<svg xmlns="http://www.w3.org/2000/svg" width="513" height="648" fill="none"><path fill="#FEEAE2" d="M0 0h513v648H0z"/><path fill="#FF999A" d="m373.428 207.92-6.651-.843-.595-.076a69.279 69.279 0 0 1-29.082-10.644l-.077-.05-6.074-3.941a156.095 156.095 0 0 1 3.35-6.716c.082-.155.163-.31.246-.463a8.333 8.333 0 0 1 10.185-3.844l10.461 3.829 14.824 5.426a8.327 8.327 0 0 1 5.296 9.513c-.094.456-.201.91-.302 1.365a149.426 149.426 0 0 1-1.581 6.444Z"/><path fill="#FE7578" d="M357.082 244.39a8.326 8.326 0 0 1-6.965.57l-3.991-1.46-9.911-3.628-8.793-3.218-2.537-.929a8.333 8.333 0 0 1-5.292-9.534c.152-.723.325-1.441.488-2.162a154.691 154.691 0 0 1 4.445-15.735 154.893 154.893 0 0 1 6.423-15.928l4.515 2.93 1.635 1.061c1.079.7 2.174 1.369 3.286 2.006a69.128 69.128 0 0 0 20.284 7.715c1.874.392 3.764.702 5.663.943l7.095.9a155.465 155.465 0 0 1-5.347 16.318 155.11 155.11 0 0 1-7.127 15.638c-.214.408-.424.819-.643 1.224a8.309 8.309 0 0 1-3.228 3.289Z"/><mask id="a" width="55" height="54" x="319" y="192" maskUnits="userSpaceOnUse" style="mask-type:luminance"><path fill="#fff" fill-rule="evenodd" d="M357.082 244.39a8.326 8.326 0 0 1-6.965.57l-3.991-1.46-9.911-3.628-8.793-3.218-2.537-.929a8.333 8.333 0 0 1-5.292-9.534c.152-.723.325-1.441.488-2.162a154.691 154.691 0 0 1 4.445-15.735 154.893 154.893 0 0 1 6.423-15.928l4.515 2.93 1.635 1.061c1.079.7 2.174 1.369 3.286 2.006a69.128 69.128 0 0 0 20.284 7.715c1.874.392 3.764.702 5.663.943l7.095.9a155.465 155.465 0 0 1-5.347 16.318 155.11 155.11 0 0 1-7.127 15.638c-.214.408-.424.819-.643 1.224a8.309 8.309 0 0 1-3.228 3.289Z" clip-rule="evenodd"/></mask><g fill="#E55A61" mask="url(#a)"><path d="M317.729 231.05c43.203 14.181 44.182 3.487 49.585-4.645 5.403-8.132 2.104 19.456 2.104 19.456s-11.997 7.731-12.848 7.885c-.851.154-38.404-12.882-38.404-12.882l-3.24-1.348M356.2 213.444a10.152 10.152 0 0 1-8.289.122 10.167 10.167 0 0 1-.273-18.57 10.169 10.169 0 1 1 8.562 18.448Z"/></g><path fill="#FFC562" d="M355.781 211.288a10.148 10.148 0 0 1-8.289.122 10.167 10.167 0 0 1-.273-18.57 10.169 10.169 0 1 1 8.562 18.448Z"/><path fill="#FF9763" d="M354.527 208.586a7.178 7.178 0 0 1-5.861.086 7.189 7.189 0 0 1-1.574-12.29 7.191 7.191 0 1 1 7.436 12.204h-.001Z"/><path fill="#FE7578" d="M363.651 194.739a2.125 2.125 0 0 1 1.349 2.117c.001.171.139.31.31.312a.318.318 0 0 0 .311-.312 2.746 2.746 0 0 0-1.807-2.718.315.315 0 0 0-.383.218.318.318 0 0 0 .218.383h.002Z"/><path fill="#E55A61" d="M331.875 225.327a6.766 6.766 0 0 0 4.484 3.795.312.312 0 0 0 .166-.6 6.184 6.184 0 0 1-4.113-3.509.312.312 0 0 0-.425-.111.318.318 0 0 0-.111.426l-.001-.001Z"/><path fill="#F0F3FC" d="m399.975 325.343-28.407 16.808-4.562-27.239 28.409-16.808 4.56 27.239Z"/><path fill="#97CC64" d="m399.975 325.343 21.396 16.252-28.41 16.811-21.393-16.255 28.407-16.808Z"/><mask id="b" width="51" height="34" x="371" y="325" maskUnits="userSpaceOnUse" style="mask-type:luminance"><path fill="#fff" fill-rule="evenodd" d="m399.975 325.343 21.396 16.252-28.41 16.811-21.393-16.255 28.407-16.808Z" clip-rule="evenodd"/></mask><g stroke="#fff" stroke-width=".6" mask="url(#b)"><path d="M360.018 358.605h72.902M360.018 355.816h72.902M360.018 353.028h72.902M360.018 350.239h72.902M360.018 347.451h72.902M360.018 344.662h72.902M360.018 341.874h72.902M360.018 339.085h72.902M360.018 336.297h72.902M360.018 333.508h72.902M360.018 330.72h72.902M360.018 327.931h72.902M360.018 325.143h72.902"/></g><path fill="#589BF7" d="m395.415 298.104 21.393 16.252 4.563 27.239-21.396-16.252-4.56-27.239Z"/><mask id="c" width="27" height="44" x="395" y="298" maskUnits="userSpaceOnUse" style="mask-type:luminance"><path fill="#fff" fill-rule="evenodd" d="m395.415 298.104 21.393 16.252 4.563 27.239-21.396-16.252-4.56-27.239Z" clip-rule="evenodd"/></mask><g mask="url(#c)"><path fill="#2976DF" d="M393.29 298.104c23.721 17.46 23.255 16.055 23.42 17.34.165 1.284 4.66 23.983 4.66 25.067 0 1.084.643-28.328.643-28.328l-8.96-11.2-16.585-5.402"/></g><path fill="#D6DCF2" d="M384.526 315.278a51.35 51.35 0 0 1-5.534 6.914c-.498.523.295 1.319.794.794a53.092 53.092 0 0 0 5.71-7.141c.402-.603-.57-1.166-.97-.567Z"/><rect width="65.659" height="87.917" x="359.276" y="425.45" fill="#589BF7" rx="5.593"/><mask id="d" width="66" height="89" x="359" y="425" maskUnits="userSpaceOnUse" style="mask-type:luminance"><rect width="65.659" height="87.917" x="359.276" y="425.45" fill="#fff" rx="5.593"/></mask><g mask="url(#d)"><path fill="#2976DF" d="M427.912 498.339c-6.914-15.304.055 19.928-64.291 15.028s31.205 26.245 31.205 26.245l45.678-28.42"/></g><rect width="54.344" height="49.237" x="364.934" y="432.673" fill="#EFF3FC" rx="3.339"/><mask id="e" width="56" height="50" x="364" y="432" maskUnits="userSpaceOnUse" style="mask-type:luminance"><rect width="54.344" height="49.237" x="364.934" y="432.673" fill="#fff" rx="3.339"/></mask><g mask="url(#e)"><path fill="#D6DCF2" d="M342.73 449.457c19.011 1.729 19.482-16.784 34.431-16.784 14.949 0-17.885-5.438-17.885-5.438l-2.226 4.445"/></g><rect width="44.732" height="4.993" x="368.953" y="490.708" fill="#2976DF" rx="1.892"/><rect width="32.534" height="4.993" x="368.953" y="498.339" fill="#2976DF" rx="1.892"/><path fill="#97CC64" d="M379.403 447.11a135.647 135.647 0 0 0-2.242 26.153h5.231a65.864 65.864 0 0 1 1.245-15.069l.529.248-.179 5.57 3.464.526v1.231l-3.504-.532-.121 3.792a12.578 12.578 0 0 0 7.514 2.235V443.08a10.2 10.2 0 0 1-3.146-.311 11.92 11.92 0 0 1 6.975-.373 4.535 4.535 0 0 1-2.476.871v28.003a12.76 12.76 0 0 0 7.693-2.239l-.121-3.787-3.466.526v-1.23l3.426-.52-.179-5.576.529-.248a65.804 65.804 0 0 1 1.246 15.069h5.23c.102-8.77-.648-17.529-2.241-26.153a30.146 30.146 0 0 0-7.6-3.001v-2.042a18.668 18.668 0 0 0-10.461 0v2.109a30.012 30.012 0 0 0-7.345 2.934l-.001-.002Z"/><mask id="f" width="31" height="33" x="377" y="441" maskUnits="userSpaceOnUse" style="mask-type:luminance"><path fill="#fff" fill-rule="evenodd" d="M379.403 447.11a135.647 135.647 0 0 0-2.242 26.153h5.231a65.864 65.864 0 0 1 1.245-15.069l.529.248-.179 5.57 3.464.526v1.231l-3.504-.532-.121 3.792a12.578 12.578 0 0 0 7.514 2.235V443.08a10.2 10.2 0 0 1-3.146-.311 11.92 11.92 0 0 1 6.975-.373 4.535 4.535 0 0 1-2.476.871v28.003a12.76 12.76 0 0 0 7.693-2.239l-.121-3.787-3.466.526v-1.23l3.426-.52-.179-5.576.529-.248a65.804 65.804 0 0 1 1.246 15.069h5.23c.102-8.77-.648-17.529-2.241-26.153a30.146 30.146 0 0 0-7.6-3.001v-2.042a18.668 18.668 0 0 0-10.461 0v2.109a30.012 30.012 0 0 0-7.345 2.934l-.001-.002Z" clip-rule="evenodd"/></mask><g mask="url(#f)"><path fill="#75AA3C" d="M368.952 453.345c10.628 5.37 10.147-7.188 16.267-8.727 6.12-1.539-6.565-3.298-6.565-3.298l-1.493 3.137"/></g><path fill="#75AA3C" d="m386.973 449.857-1.111.74a.395.395 0 0 0 .398.682l1.112-.741a.395.395 0 1 0-.399-.681Z"/><path fill="#2976DF" d="M418.041 497.356a11.597 11.597 0 0 1-2.929 2.485.395.395 0 1 0 .4.682 12.25 12.25 0 0 0 3.088-2.609.404.404 0 0 0 0-.558.397.397 0 0 0-.558 0h-.001Z"/><rect width="65.659" height="87.917" x="92.272" y="425.45" fill="#FFC562" rx="5.593"/><mask id="g" width="66" height="89" x="92" y="425" maskUnits="userSpaceOnUse" style="mask-type:luminance"><rect width="65.659" height="87.917" x="92.272" y="425.45" fill="#fff" rx="5.593"/></mask><g mask="url(#g)"><path fill="#D89D35" d="M161.603 427.316c8.104 96.226-38.21 95.885-70.051 92.352-31.84-3.533 47.98 16.837 47.98 16.837l22.507-3.704 13.602-54.779"/></g><rect width="54.344" height="49.237" x="97.93" y="432.673" fill="#EFF3FC" rx="3.339"/><mask id="h" width="56" height="50" x="97" y="432" maskUnits="userSpaceOnUse" style="mask-type:luminance"><rect width="54.344" height="49.237" x="97.93" y="432.673" fill="#fff" rx="3.339"/></mask><g mask="url(#h)"><path fill="#D6DCF2" d="M87.677 467.613c6.191-42.961 45.401-37.406 45.401-37.406l-60.764-1.969"/></g><rect width="44.732" height="4.993" x="101.949" y="490.708" fill="#E84B23" rx="1.892"/><rect width="32.534" height="4.993" x="101.949" y="498.339" fill="#E84B23" rx="1.892"/><path fill="#FFC562" d="M136.324 442.862h-5.035a6.382 6.382 0 0 1-12.37 0h-5.043v.004l-9.614 4.806 3.207 8.016 6.407-3.208v19.241h22.447V452.48l6.411 3.208 3.207-8.016-9.617-4.81Z"/><mask id="i" width="42" height="30" x="104" y="442" maskUnits="userSpaceOnUse" style="mask-type:luminance"><path fill="#fff" fill-rule="evenodd" d="M136.324 442.862h-5.035a6.382 6.382 0 0 1-12.37 0h-5.043v.004l-9.614 4.806 3.207 8.016 6.407-3.208v19.241h22.447V452.48l6.411 3.208 3.207-8.016-9.617-4.81Z" clip-rule="evenodd"/></mask><g mask="url(#i)"><path fill="#D89D35" d="M102.756 455.021c1.506-7.349 15.433-11.439 20.756-9.999 5.322 1.439-7.423-8.657-7.423-8.657l-25.184 7.247"/></g><path fill="#D89D35" d="m124.347 458.464-1.114 1.109a.395.395 0 1 0 .558.558l1.114-1.109a.395.395 0 0 0-.558-.558ZM150.931 502.042a4.685 4.685 0 0 1-.104.142l-.003.004-.056.068a4.896 4.896 0 0 1-.6.597l-.069.055a4.326 4.326 0 0 1-.885.52c-.066.031.022-.007-.019.009l-.082.032c-.055.023-.111.041-.166.06a.395.395 0 1 0 .209.761 4.963 4.963 0 0 0 2.457-1.85.398.398 0 0 0-.142-.54.405.405 0 0 0-.54.142Z"/><rect width="96.28" height="128.918" x="145.21" y="404.95" fill="#FE7578" rx="8.201"/><mask id="j" width="97" height="130" x="145" y="404" maskUnits="userSpaceOnUse" style="mask-type:luminance"><rect width="96.28" height="128.918" x="145.21" y="404.95" fill="#fff" rx="8.201"/></mask><g mask="url(#j)"><path fill="#E55A61" d="M246.066 454.539c-12.872-24.692 36.676 90.15-90.035 79.329-126.71-10.822 100.018 39.894 100.018 39.894l16.05-90.15"/></g><rect width="79.689" height="72.2" x="153.506" y="415.541" fill="#EFF3FC" rx="4.896"/><mask id="k" width="81" height="73" x="153" y="415" maskUnits="userSpaceOnUse" style="mask-type:luminance"><rect width="79.689" height="72.2" x="153.506" y="415.541" fill="#fff" rx="4.896"/></mask><g mask="url(#k)"><path fill="#D6DCF2" d="M144.216 466.233c1.334-73.315 87.591-50.692 87.591-50.692l-97.651-6.504-5.756 6.503"/></g><rect width="65.594" height="7.322" x="159.399" y="500.641" fill="#FFC562" rx="2.774"/><rect width="47.707" height="7.322" x="159.399" y="511.832" fill="#FFC562" rx="2.774"/><path fill="#FE7578" d="m215.127 475.589-5.859-42.501a1.906 1.906 0 0 0-1.974-1.507h-27.889a1.906 1.906 0 0 0-1.974 1.507l-5.859 42.501a1.823 1.823 0 0 0 1.975 1.909h15.346a1.889 1.889 0 0 0 1.983-1.592l2.043-25.747a.483.483 0 0 1 .942 0l1.966 25.742a1.888 1.888 0 0 0 1.985 1.596h15.341a1.826 1.826 0 0 0 1.974-1.908Z"/><path fill="#E55A61" d="M179.582 428.732h27.408a1.474 1.474 0 0 0 0-2.949h-27.408a1.474 1.474 0 0 0 0 2.949ZM188.587 441.386l-5.974 6.517c-.502.549.314 1.369.819.819l5.974-6.518c.502-.548-.314-1.369-.819-.818ZM230.85 510.081a5.589 5.589 0 0 1-.219.676c-.057.152.029-.059-.009.026l-.052.116a5.722 5.722 0 0 1-.476.838c-.043.063-.088.123-.133.186-.053.076.083-.102-.018.024l-.064.078a5.463 5.463 0 0 1-.87.85c.044-.035.036-.028-.004.001l-.124.089a.58.58 0 1 0 .584.999 6.31 6.31 0 0 0 2.501-3.575.576.576 0 0 0-.144-.563.576.576 0 0 0-.972.255Z"/><rect width="96.28" height="128.918" x="275.718" y="404.95" fill="#9A7ED9" rx="8.201"/><mask id="l" width="97" height="130" x="275" y="404" maskUnits="userSpaceOnUse" style="mask-type:luminance"><rect width="96.28" height="128.918" x="275.718" y="404.95" fill="#fff" rx="8.201"/></mask><g mask="url(#l)"><path fill="#6F4EB9" d="M371.998 475.061c-5.403-13.548 3.68 65.268-55.169 58.806-58.849-6.461 70.402 22.865 70.402 22.865l10.5-48.769"/></g><rect width="79.689" height="72.2" x="284.014" y="415.541" fill="#EFF3FC" rx="4.896"/><mask id="m" width="80" height="73" x="284" y="415" maskUnits="userSpaceOnUse" style="mask-type:luminance"><rect width="79.689" height="72.2" x="284.014" y="415.541" fill="#fff" rx="4.896"/></mask><g mask="url(#m)"><path fill="#D6DCF2" d="M281.513 451.641c-5.795-32.85 18.129-36.331 54.307-36.1 36.178.23-60.102-10.591-60.102-10.591l-11.584 3.703"/></g><rect width="65.594" height="7.322" x="289.907" y="500.641" fill="#6F4EB9" rx="2.774"/><rect width="47.707" height="7.322" x="289.907" y="511.832" fill="#6F4EB9" rx="2.774"/><path fill="#9A7ED9" d="M336.023 440.562v-5.806h-10.77v13.821a1.395 1.395 0 0 1-2.789 0v-13.821h-10.77v5.911c0 4.581-2.654 8.748-6.806 10.685l-2.109.985v22.374c0 .87.705 1.576 1.575 1.576h14.261c.748 0 1.393-.526 1.543-1.259l2.93-14.238h1.539l2.93 14.238c.15.733.795 1.259 1.543 1.259h14.261c.418 0 .819-.166 1.114-.462.296-.295.462-.696.462-1.114v-22.479l-2.109-.985a11.79 11.79 0 0 1-6.805-10.685Z"/><path fill="#9A7ED9" d="M338.934 434.755v5.807a8.909 8.909 0 0 0 5.125 8.047l.879.41v-14.265l-6.004.001ZM308.783 440.666v-5.911h-6.005v14.369l.879-.41a8.913 8.913 0 0 0 5.126-8.048Z"/><path fill="#6F4EB9" d="M344.748 429.085a2.09 2.09 0 0 0-2.089-2.089h-37.601a2.09 2.09 0 0 0-2.089 2.089v3.547h41.779v-3.547ZM336.588 456.152l-1.629 3.802a.597.597 0 0 0 .207.791.583.583 0 0 0 .792-.207l1.629-3.802a.6.6 0 0 0-.208-.792.582.582 0 0 0-.791.208ZM347.042 517.46l-2.729 2.155a.58.58 0 0 0 0 .818c.23.217.589.217.819 0l2.728-2.155a.58.58 0 0 0 0-.818.595.595 0 0 0-.818 0Z"/><circle cx="122.029" cy="303.077" r="34.15" fill="#9A7ED9"/><rect width="18.235" height="40.664" x="112.912" y="286.483" fill="#589BF7" rx="1.769"/><path fill="#FFC562" d="M117.547 279.007h8.965c1.169 0 2.117.947 2.117 2.116v5.36h-13.197v-5.361c0-1.168.947-2.115 2.115-2.115Z"/><mask id="n" width="14" height="8" x="115" y="279" maskUnits="userSpaceOnUse" style="mask-type:luminance"><path fill="#fff" fill-rule="evenodd" d="M117.547 279.007h8.965c1.169 0 2.117.947 2.117 2.116v5.36h-13.197v-5.361c0-1.168.947-2.115 2.115-2.115Z" clip-rule="evenodd"/></mask><g mask="url(#n)"><path fill="#D89D35" d="M117.6 286.483c-.78-1.045 11.263-.023 11.312-4.361.049-4.339 2.828 5.607 2.828 5.607l-8.045 1.755"/></g><rect width="12.328" height="3.12" x="115.866" y="295.617" fill="#2976DF" rx="1.182"/><rect width="7.411" height=".878" x="118.324" y="300.915" fill="#2976DF" rx=".332"/><path fill="#2976DF" d="M115.159 319.345H128.9v.683h-13.741z"/><path fill="#D89D35" d="m119.694 282.853-.391.26a.183.183 0 0 0-.078.101.175.175 0 0 0 .018.131.168.168 0 0 0 .232.061l.39-.26a.183.183 0 0 0 .078-.101.172.172 0 0 0-.017-.131.17.17 0 0 0-.232-.061Z"/><path fill="#2976DF" d="m124.191 313.415 1.17-1.3a.172.172 0 0 0 0-.24.172.172 0 0 0-.24 0l-1.17 1.3a.174.174 0 0 0 0 .24.17.17 0 0 0 .24 0Z"/><path fill="#7B5CB7" d="M117.698 323.742a.17.17 0 0 0 0-.339.169.169 0 0 0-.163.169.17.17 0 0 0 .163.17Z"/><circle cx="295.65" cy="389.234" r="42.853" fill="#97CC64"/><path fill="#935738" d="M291.241 406.022h8.818v10.345c0 .616-.499 1.116-1.116 1.116h-6.586a1.117 1.117 0 0 1-1.116-1.116v-10.345Z"/><mask id="o" width="10" height="12" x="291" y="406" maskUnits="userSpaceOnUse" style="mask-type:luminance"><path fill="#fff" fill-rule="evenodd" d="M291.241 406.022h8.818v10.345c0 .616-.499 1.116-1.116 1.116h-6.586a1.117 1.117 0 0 1-1.116-1.116v-10.345Z" clip-rule="evenodd"/></mask><g mask="url(#o)"><path fill="#6D3417" d="M290.576 411.754c1.627-2.637-1.946 5.318 8.368 5.73 10.313.411-9.628 2.13-9.628 2.13l-2.063-3.932"/></g><path fill="#F0F3FC" d="M305.159 363.582H286.14l5.097 42.478h8.825l5.097-42.478Z"/><mask id="p" width="20" height="44" x="286" y="363" maskUnits="userSpaceOnUse" style="mask-type:luminance"><path fill="#fff" fill-rule="evenodd" d="M305.159 363.582H286.14l5.097 42.478h8.825l5.097-42.478Z" clip-rule="evenodd"/></mask><g mask="url(#p)"><path fill="#D6DCF2" d="M287.221 380.122c1.98-7.152.546 26.084 12.838 29.407 12.292 3.323-19.453 2.892-19.453 2.892l-.115-12.078"/></g><path fill="#D6DCF2" d="M286.141 360.984h19.019v2.598h-19.019zM294.893 368.577a41.598 41.598 0 0 1-3.862 3.277c-.224.168-.005.55.222.38a42.578 42.578 0 0 0 3.95-3.346c.205-.196-.106-.507-.31-.31v-.001ZM299.131 389.432l-.344.344a.22.22 0 0 0 .31.311l.344-.344a.227.227 0 0 0 .065-.155.225.225 0 0 0-.065-.155.225.225 0 0 0-.155-.065.227.227 0 0 0-.155.065v-.001Z"/><path fill="#6D3417" d="M294.645 412.834a8.132 8.132 0 0 0 2.117-.822c.247-.138.025-.518-.222-.379a7.734 7.734 0 0 1-2.011.777c-.276.065-.159.488.117.424h-.001Z"/><path fill="#FF9763" d="M147.34 184.532c-2.313-2.698-47.792-55.5-48.95-56.657-1.156-1.156-5.17-19.532-9.508-17.754-2.697 1.106-2.825 18.525 1.8 24.307 4.625 5.781 52.417 78.201 52.417 78.201l4.241-28.097Z"/><mask id="q" width="61" height="103" x="87" y="110" maskUnits="userSpaceOnUse" style="mask-type:luminance"><path fill="#fff" fill-rule="evenodd" d="M147.34 184.532c-2.313-2.698-47.792-55.5-48.95-56.657-1.156-1.156-5.17-19.532-9.508-17.754-2.697 1.106-2.825 18.525 1.8 24.307 4.625 5.781 52.417 78.201 52.417 78.201l4.241-28.097Z" clip-rule="evenodd"/></mask><g mask="url(#q)"><path fill="#E84B23" d="M108.678 171.686c21.109 23.109 33.027 4.841 36.401 6.087 3.375 1.246 4.263 11.689 4.263 11.689l-13.777 14.773-21.109-3.663"/></g><path fill="#FFC562" d="M126.527 202.261c1.542-15.931 18.551-24.488 18.551-24.488s25.644 24.488 44.144 24.488c12.44 0 3.597 18.5 3.597 18.5l-14.483 26.723-51.809-45.223Z"/><mask id="r" width="70" height="71" x="126" y="177" maskUnits="userSpaceOnUse" style="mask-type:luminance"><path fill="#fff" fill-rule="evenodd" d="M126.527 202.261c1.542-15.931 18.551-24.488 18.551-24.488s25.644 24.488 44.144 24.488c12.44 0 3.597 18.5 3.597 18.5l-14.483 26.723-51.809-45.223Z" clip-rule="evenodd"/></mask><g mask="url(#r)"><path fill="#D89D35" d="M121.995 221.316c20.764-4.886 21.798-9.12 36.923 1.112 15.125 10.232 20.817-6.34 27.359-4.004 6.542 2.337 7.117 34.699 7.117 34.699l-28.471 4.893-42.928-36.7Z"/><path stroke="#fff" stroke-linecap="round" stroke-linejoin="round" stroke-width="3.454" d="M169.885 183.452c-28.874-4.158-34.502 34.26-34.502 34.26"/></g><path fill="#FF9763" d="M238.094 247.484c.838.837 10.309 23.238 12.349 39.636 2.651 21.321-.358 48.909-.067 49.781.514 1.542 4.426 23.613.022 19.084-3.372-3.468-6.613-14.683-6.613-14.683s-5.829 6.165-3.946.995c1.227-3.367-1.477-32.3-5.527-50.069a38.035 38.035 0 0 0-6.549-13.501c-4.11-5.806 10.331-31.243 10.331-31.243Z"/><mask id="s" width="26" height="110" x="227" y="247" maskUnits="userSpaceOnUse" style="mask-type:luminance"><path fill="#fff" fill-rule="evenodd" d="M238.094 247.484c.838.837 10.309 23.238 12.349 39.636 2.651 21.321-.358 48.909-.067 49.781.514 1.542 4.426 23.613.022 19.084-3.372-3.468-6.613-14.683-6.613-14.683s-5.829 6.165-3.946.995c1.227-3.367-1.477-32.3-5.527-50.069a38.035 38.035 0 0 0-6.549-13.501c-4.11-5.806 10.331-31.243 10.331-31.243Z" clip-rule="evenodd"/></mask><g mask="url(#s)"><path fill="#E84B23" d="M225.556 289.601c13.332.074 12.779-17.197 18.722-22.227 5.943-5.03-13.39-1.03-13.39-1.03l-9.58 12.383"/></g><path fill="#FF9763" d="m181.225 511.263 2.175 21.692h14.964l-4.25-27.855-12.889 6.163Z"/><mask id="t" width="18" height="28" x="181" y="505" maskUnits="userSpaceOnUse" style="mask-type:luminance"><path fill="#fff" fill-rule="evenodd" d="m181.225 511.263 2.175 21.692h14.964l-4.25-27.855-12.889 6.163Z" clip-rule="evenodd"/></mask><g mask="url(#t)"><path fill="#E84B23" d="M179.341 519.028c-.004 3.848 15.656 2.523 17.713 5.352 2.057 2.829 1.308-5.352 1.308-5.352l-4.583-4.596-7.222.222"/></g><path fill="#3A3530" d="M149.099 537.834s0-12.712 19.28-9.242c9.813 1.766 14.237-3.47 14.237-3.47s11.287 7.04 15.441 6.2l1.223 6.512h-50.181Z"/><path fill="#FF9763" d="m257.442 492.767 11.978 39.867h-15.675l-12.302-36.533 15.999-3.334Z"/><mask id="u" width="29" height="41" x="241" y="492" maskUnits="userSpaceOnUse" style="mask-type:luminance"><path fill="#fff" fill-rule="evenodd" d="m257.442 492.767 11.978 39.867h-15.675l-12.302-36.533 15.999-3.334Z" clip-rule="evenodd"/></mask><g mask="url(#u)"><path fill="#E84B23" d="M241.444 525.122c16.331.975 11.894-11.347 21.223-14.963 9.329-3.615-10.09-5.059-10.09-5.059l-12.444 9.865"/></g><path fill="#3A3530" d="M300.795 538.1s4.462-14.495-16.665-8.864c-8.755 2.333-17.993-7.527-17.993-7.527s-8.764 8.396-13.56 7.455l2.79 8.936h45.428Z"/><path fill="#589BF7" d="M179.692 521.003c17.615 2.848 22.677-3.559 22.677-3.559l-10.32-125.556 13.875-108.689-43.939 3.083s-5.781 94.6-5.01 102.908c.771 8.308 22.717 131.813 22.717 131.813Z"/><mask id="v" width="50" height="239" x="156" y="283" maskUnits="userSpaceOnUse" style="mask-type:luminance"><path fill="#fff" fill-rule="evenodd" d="M179.692 521.003c17.615 2.848 22.677-3.559 22.677-3.559l-10.32-125.556 13.875-108.689-43.939 3.083s-5.781 94.6-5.01 102.908c.771 8.308 22.717 131.813 22.717 131.813Z" clip-rule="evenodd"/></mask><g mask="url(#v)"><path fill="#2976DF" d="M183.524 312.426c4.615 34.886-1.925 56.465 8.02 98.494 9.946 42.028 14.38-51.333 14.38-51.333l3.266-15.399"/></g><path fill="#589BF7" d="m183.344 322.551 15.128 55.976 44.613 137.499a33.262 33.262 0 0 0 22.193-7.707l-34.944-135.445-12.685-94.147-44.941 4.472"/><mask id="w" width="94" height="239" x="172" y="278" maskUnits="userSpaceOnUse" style="mask-type:luminance"><path fill="#fff" fill-rule="evenodd" d="m183.344 322.551 15.128 55.976 44.613 137.499a33.262 33.262 0 0 0 22.193-7.707l-34.944-135.445-12.685-94.147-44.941 4.472" clip-rule="evenodd"/></mask><g mask="url(#w)"><path fill="#2976DF" d="M152.083 282.326c21.252 59.388 55.613-16.122 74.945 41.207 19.331 57.328-9.378-44.806-9.378-44.806l-47.199-20.604-23.11 15.998-20.813 15.48-9.357 12.439"/></g><path fill="#F0F3FC" d="M161.986 286.283c-16.663 26.112 15.803 23.177 47.533 7.962 31.731-15.216-30.188-10.083-30.188-10.083"/><path fill="#FFC562" d="M189.222 202.261s25.694 3.083 35.459 15.931c0 0 0 42.139-5.225 73.943 0 0-51.818 12.847-66.206-.456-10.271-9.496 12.446-50.99 26.292-73.967"/><mask id="x" width="75" height="96" x="150" y="202" maskUnits="userSpaceOnUse" style="mask-type:luminance"><path fill="#fff" fill-rule="evenodd" d="M189.222 202.261s25.694 3.083 35.459 15.931c0 0 0 42.139-5.225 73.943 0 0-51.818 12.847-66.206-.456-10.271-9.496 12.446-50.99 26.292-73.967" clip-rule="evenodd"/></mask><g mask="url(#x)"><path fill="#D89D35" d="M223.846 293.382c-38.24 26.856-.649.578-12.253-31.316-4.33-11.902-3.296-18.731-3.296-18.731l25.357 42.262-9.808 10.231"/><path fill="#D89D35" fill-rule="evenodd" d="M169.444 244.474a20.608 20.608 0 0 1 20.547-14.087c8.619.864 13.395 8.574 10.666 17.217a20.607 20.607 0 0 1-20.547 14.087c-8.618-.864-13.394-8.574-10.666-17.217Zm3.344.335c-2.144 6.792 1.608 12.849 8.38 13.528h.001a16.191 16.191 0 0 0 16.143-11.068c2.144-6.792-1.608-12.849-8.38-13.528a16.191 16.191 0 0 0-16.144 11.068Z" clip-rule="evenodd"/><path fill="#D89D35" d="M180.917 242.056a2.209 2.209 0 0 0 2.202-1.509 1.342 1.342 0 0 0-1.143-1.845c-.99-.047-1.89.57-2.202 1.51a1.342 1.342 0 0 0 1.143 1.844ZM192.426 239.75a2.209 2.209 0 0 0-2.201 1.51 1.342 1.342 0 0 0 1.143 1.844 2.207 2.207 0 0 0 2.201-1.509 1.342 1.342 0 0 0-1.143-1.845ZM190.995 245.197a1.841 1.841 0 0 0-1.831 1.247l-.002.007a5.426 5.426 0 0 1-5.413 3.711 3.28 3.28 0 0 1-2.85-4.394 1.84 1.84 0 0 0 .054-.147 1.12 1.12 0 0 0-.953-1.537 1.84 1.84 0 0 0-1.835 1.257h-.01l-.002.007a5.534 5.534 0 0 0 4.713 7.61 9.105 9.105 0 0 0 9.079-6.219l.001-.004v-.003l.003-.007a1.119 1.119 0 0 0-.954-1.528Z"/><ellipse cx="205.846" cy="207.741" fill="#F0F3FC" rx="15.552" ry="13.253" transform="rotate(-65.71 205.846 207.741)"/></g><path fill="#FFC562" d="m203.709 246.552 20.971 36.647c10.15-1.156 23.254-20.812 23.254-20.812s-13.513-39.574-25.155-45.33"/><mask id="y" width="45" height="67" x="203" y="217" maskUnits="userSpaceOnUse" style="mask-type:luminance"><path fill="#fff" fill-rule="evenodd" d="m203.709 246.552 20.971 36.647c10.15-1.156 23.254-20.812 23.254-20.812s-13.513-39.574-25.155-45.33" clip-rule="evenodd"/></mask><g mask="url(#y)"><path stroke="#fff" stroke-linecap="round" stroke-linejoin="round" stroke-width="3.454" d="M209.776 273.208c28.875 4.159 34.503-34.26 34.503-34.26"/></g><rect width="16.345" height="26.955" x="196.778" y="190.757" fill="#FF9763" rx="6.193"/><mask id="z" width="18" height="28" x="196" y="190" maskUnits="userSpaceOnUse" style="mask-type:luminance"><rect width="16.345" height="26.955" x="196.778" y="190.757" fill="#fff" rx="6.193"/></mask><g mask="url(#z)"><path fill="#E84B23" d="M194.394 213.912c5.207.926.458-7.977 7.077-9.88a7.645 7.645 0 0 0 5.471-8.646l-10.164-6.3s-7.193 16.879-7.028 17.376"/></g><path fill="#FF9763" d="M206.197 200.884a13.137 13.137 0 0 1-10.384-.271c-6.612-3.042-9.506-10.869-6.464-17.481l4.774-10.377a13.177 13.177 0 0 1 17.481-6.464c6.612 3.043 9.506 10.869 6.464 17.481l-2.638 5.733"/><mask id="A" width="32" height="37" x="188" y="165" maskUnits="userSpaceOnUse" style="mask-type:luminance"><path fill="#fff" fill-rule="evenodd" d="M206.197 200.884a13.137 13.137 0 0 1-10.384-.271c-6.612-3.042-9.506-10.869-6.464-17.481l4.774-10.377a13.177 13.177 0 0 1 17.481-6.464c6.612 3.043 9.506 10.869 6.464 17.481l-2.638 5.733" clip-rule="evenodd"/></mask><g mask="url(#A)"><ellipse cx="188.139" cy="186.952" fill="#E84B23" opacity=".27" rx="4.481" ry="2.744" transform="rotate(-6.116 188.139 186.952)"/><ellipse cx="205.017" cy="190.577" fill="#E84B23" opacity=".27" rx="2.766" ry="3.731" transform="rotate(-72.765 205.017 190.577)"/><rect width="2.679" height="4.942" x="193.674" y="179.506" fill="#190000" rx="1.015" transform="rotate(17.236 193.674 179.506)"/><rect width="2.679" height="4.942" x="203.404" y="181.737" fill="#190000" rx="1.015" transform="rotate(17.235 203.404 181.737)"/><path fill="#190000" d="M195.569 176.788c-2.848-.048-2.57 1.598-.792 1.745 1.778.146 2.653-1.713.792-1.745ZM205.573 178.993c2.375 1.572 1.446 2.725-.102 1.839-1.549-.886-1.449-2.865.102-1.839Z"/><path fill="#E84B23" d="M199.168 186.184c-.169.891-.864.393-1.803.215-.939-.179-1.769.029-1.6-.861a1.735 1.735 0 0 1 3.403.646Z"/><path fill="#C1525F" d="M192.889 189.875c-.163 6.639 6.425 5.247 7.375 1.301a.5.5 0 0 0-.219-.53 10.209 10.209 0 0 0-6.699-1.262.512.512 0 0 0-.457.491Z"/><mask id="B" width="9" height="6" x="192" y="189" maskUnits="userSpaceOnUse" style="mask-type:luminance"><path fill="#fff" fill-rule="evenodd" d="M192.889 189.875c-.163 6.639 6.425 5.247 7.375 1.301a.5.5 0 0 0-.219-.53 10.209 10.209 0 0 0-6.699-1.262.512.512 0 0 0-.457.491Z" clip-rule="evenodd"/></mask><g mask="url(#B)"><ellipse cx="196.695" cy="194.315" fill="#993443" rx="3.329" ry="2.971" transform="rotate(-7.193 196.695 194.315)"/><path fill="#F0F3FC" d="M194.228 189.083c-.099.37-.118.757-.056 1.134a6.773 6.773 0 0 0 4.444.831c.196-.464.338-.948.421-1.444l-4.262-.657"/></g></g><path fill="#3A3530" d="M222.915 155.936a12.515 12.515 0 0 0-10.403-.03c-4.211-5.601-12.068-6.928-17.885-3.021-5.817 3.908-7.559 11.684-3.966 17.7s11.265 8.169 17.464 4.901c.061.072.118.149.181.22-.176.304-.383.58-.532.905a11.106 11.106 0 0 0 17.657 12.772 11.105 11.105 0 0 0 1.854-13.987 12.52 12.52 0 0 0-4.37-19.46Z"/><path fill="#FF9763" d="M208.267 188.252a6.009 6.009 0 1 1 2.772 8.319"/><path fill="#190000" d="M202.514 161.218a4.96 4.96 0 0 0-.523 4.509.933.933 0 0 0 .397.517.885.885 0 0 0 .666.088.875.875 0 0 0 .604-1.065 4.165 4.165 0 0 1-.208-.7l-.022-.12a.89.89 0 0 0 .005.049 1.383 1.383 0 0 1-.03-.488c0-.153.013-.304.023-.457.008-.066.004-.04-.012.079l.019-.121a4.189 4.189 0 0 1 .187-.707l.044-.114c-.048.113-.054.125-.016.038.035-.073.069-.147.107-.219.076-.144.161-.283.253-.417a.869.869 0 0 0-.31-1.183.886.886 0 0 0-1.183.31l-.001.001ZM213.548 189.85c.051.048.099.099.142.154l-.135-.175c.065.086.12.18.163.279l-.087-.206c.048.115.08.235.098.358l-.031-.23c.016.124.016.249 0 .372l.031-.23a1.387 1.387 0 0 1-.092.335l.087-.207a1.355 1.355 0 0 1-.113.204.864.864 0 0 0 .977 1.27.958.958 0 0 0 .517-.398c.128-.191.22-.405.271-.63.057-.23.075-.468.053-.704-.018-.3-.1-.594-.241-.859a1.88 1.88 0 0 0-.417-.556.908.908 0 0 0-.612-.253.865.865 0 0 0-.611 1.476Z"/><path fill="#D89D35" d="M165.251 277.715a22.571 22.571 0 0 0 9.311 5.445.866.866 0 0 0 .46-1.668 20.703 20.703 0 0 1-8.548-5c-.798-.776-2.023.446-1.223 1.223Z"/><path fill="#2976DF" d="M197.431 309.527a11.71 11.71 0 0 0 13.537 14.658c1.094-.197.63-1.864-.46-1.668a9.987 9.987 0 0 1-11.409-12.53.866.866 0 0 0-1.668-.46Z"/><path fill="#190000" d="M175.409 522.742a12.21 12.21 0 0 1 2.485 5.327l1.667-.46c-.773-1.871-3.198-2.307-4.965-2.742a30.335 30.335 0 0 0-6.557-.86.865.865 0 1 0 0 1.729 28.022 28.022 0 0 1 8.209 1.405c.497.164 1.419.377 1.646.928a.865.865 0 0 0 1.668-.46 13.991 13.991 0 0 0-2.93-6.091.872.872 0 0 0-1.223 0 .886.886 0 0 0 0 1.224ZM271.833 520.55a12.38 12.38 0 0 0-1.145 5.343.875.875 0 0 0 1.477.612 21.08 21.08 0 0 1 8.323-5.15c1.052-.346.601-2.017-.46-1.668a22.97 22.97 0 0 0-9.086 5.595l1.476.611a10.385 10.385 0 0 1 .909-4.471.892.892 0 0 0-.31-1.183.872.872 0 0 0-1.184.311Z"/><path fill="#FFC562" d="m176.512 512.701 2.138 9.008s15.705 4.011 24.429-4.265l-.714-8.684s-5.321 7.687-25.853 3.941ZM264.093 499.958l1.976 9.045s-12.414 10.419-23.864 6.742l-3.119-8.136s8.125 4.623 25.007-7.651Z"/><path fill="#E84B23" d="m96.162 128.194-1.926 1.283a.919.919 0 0 0-.397.517.865.865 0 0 0 1.27.977l1.925-1.283a.918.918 0 0 0 .398-.517.883.883 0 0 0-.087-.666.862.862 0 0 0-1.183-.311ZM246.277 340.889l1.283-3.85a.87.87 0 0 0-.604-1.064.884.884 0 0 0-1.064.604l-1.283 3.85a.87.87 0 0 0 .604 1.064.885.885 0 0 0 1.064-.604Z"/><path fill="#D89D35" d="M206.986 254.475a14.722 14.722 0 0 0 3.815 7.466c.768.808 1.99-.416 1.223-1.224a13.093 13.093 0 0 1-3.369-6.701.873.873 0 0 0-1.064-.604.884.884 0 0 0-.605 1.064v-.001ZM214.927 227.158a7.816 7.816 0 0 0-4.483 6.988.865.865 0 1 0 1.729 0 5.886 5.886 0 0 1 1.003-3.272c.137-.223.295-.433.47-.628.2-.229.415-.446.643-.647a4.22 4.22 0 0 1 .663-.495 6.79 6.79 0 0 1 .846-.451.87.87 0 0 0 .31-1.183.887.887 0 0 0-1.183-.311l.002-.001ZM176.325 224.392a67.417 67.417 0 0 0 3.308-5.121.865.865 0 0 0-1.494-.873 67.597 67.597 0 0 1-3.308 5.121.868.868 0 0 0 .311 1.183.888.888 0 0 0 1.183-.31Z"/><path fill="#2976DF" d="M181.062 498.597a15.766 15.766 0 0 0 8.986 1.855.888.888 0 0 0 .865-.864.87.87 0 0 0-.865-.865 14.144 14.144 0 0 1-8.113-1.618c-.979-.531-1.853.962-.873 1.493v-.001ZM214.402 391.707l11.994 5.958c.993.494 1.87-.998.873-1.493l-11.994-5.959c-.993-.494-1.871.998-.873 1.494Z"/><rect width="55.666" height="100.707" x="252.476" y="229.315" fill="#2976DF" rx="8.373"/><mask id="C" width="57" height="102" x="252" y="229" maskUnits="userSpaceOnUse" style="mask-type:luminance"><rect width="55.666" height="100.707" x="252.476" y="229.315" fill="#fff" rx="8.373"/></mask><g mask="url(#C)"><path fill="#1665C4" d="M272.872 293.304c14.814 27.431 9.882 45.852 9.882 45.852h25.854l3.923-47.823h-49.502"/></g><rect width="14.981" height="18.478" x="259.636" y="239.478" fill="#589BF7" rx="2.623"/><path stroke="#3A3530" stroke-linecap="round" stroke-linejoin="round" stroke-width="1.865" d="M285.705 291.333s18.048 27.717 3.898 58.553"/><path fill="#589BF7" d="M274.618 358.894h11.087V539h-11.087z"/><mask id="D" width="12" height="181" x="274" y="358" maskUnits="userSpaceOnUse" style="mask-type:luminance"><path fill="#fff" d="M274.618 358.894h11.087V539h-11.087z"/></mask><g mask="url(#D)"><path fill="#2976DF" d="M271.995 423.248c2.758-23.989 16.52-25.284 16.52-25.284l1.088-13.555-23.286 3.572"/></g><rect width="18.882" height="18.882" x="270.72" y="380.375" fill="#F0F3FC" rx="3.056"/><path fill="#F0F3FC" fill-rule="evenodd" d="M202.854 247.336c12.952-31.268 43.463-51.655 77.307-51.655 46.213 0 83.677 37.464 83.677 83.677 0 33.844-20.387 64.355-51.655 77.307-31.268 12.951-67.259 5.792-91.19-18.139-23.931-23.931-31.09-59.922-18.139-91.19Zm11.101 32.022c0 36.564 29.642 66.206 66.206 66.206 36.565 0 66.206-29.642 66.207-66.206 0-36.565-29.642-66.207-66.207-66.207-36.564 0-66.206 29.642-66.206 66.207Z" clip-rule="evenodd"/><mask id="E" width="168" height="169" x="196" y="195" maskUnits="userSpaceOnUse" style="mask-type:luminance"><path fill="#fff" fill-rule="evenodd" d="M280.161 195.681c-33.844 0-64.355 20.387-77.307 51.655-12.951 31.268-5.792 67.259 18.139 91.19 23.931 23.931 59.922 31.09 91.19 18.139 31.268-12.952 51.655-43.463 51.655-77.307 0-46.213-37.464-83.677-83.677-83.677Zm0 149.883c-36.564 0-66.206-29.642-66.206-66.206 0-36.565 29.642-66.207 66.206-66.207 36.565 0 66.207 29.642 66.207 66.207-.001 36.564-29.642 66.206-66.207 66.206Z" clip-rule="evenodd"/></mask><g mask="url(#E)"><path fill="#D6DCF2" d="M335.953 300.341c35.864 9.635 63.36-13.628 63.36-13.628l-35.475 60.86-41.634-26.964"/></g><rect width="64.212" height="20.095" x="248.319" y="276.665" fill="#9A7ED9" rx="1.715"/><circle cx="285.705" cy="285.096" r="15.245" fill="#6F4EB9"/><path fill="#1665C4" d="m290.635 256.141-2.977 4.789a1.22 1.22 0 0 0 .434 1.653 1.233 1.233 0 0 0 1.653-.433l2.977-4.789a1.218 1.218 0 0 0-.433-1.653 1.234 1.234 0 0 0-1.654.433Z"/><path fill="#2976DF" d="m283.693 465.13-1.195 1.196a1.242 1.242 0 0 0 0 1.709c.227.226.534.354.854.355l.322-.043c.201-.056.385-.163.533-.311l1.195-1.195c.454-.48.454-1.23 0-1.709a1.212 1.212 0 0 0-.854-.355l-.321.043a1.213 1.213 0 0 0-.534.311v-.001Z"/></svg>