<svg xmlns="http://www.w3.org/2000/svg" width="480" height="671" fill="none"><path fill="#E4D4FF" d="M0 0h480v671H0z"/><rect width="84.492" height="113.133" x="214.159" y="185.003" fill="#9A7ED9" rx="9.497"/><mask id="a" width="85" height="114" x="214" y="185" maskUnits="userSpaceOnUse" style="mask-type:luminance"><rect width="84.492" height="113.133" x="214.159" y="185.003" fill="#fff" rx="9.497"/></mask><g mask="url(#a)"><path fill="#6F4EB9" d="M298.651 246.53c-4.742-11.889 3.231 57.277-48.414 51.607-51.645-5.67 61.783 20.065 61.783 20.065l9.213-42.798"/></g><rect width="69.932" height="63.36" x="221.439" y="194.298" fill="#EFF3FC" rx="5.669"/><mask id="b" width="71" height="64" x="221" y="194" maskUnits="userSpaceOnUse" style="mask-type:luminance"><rect width="69.932" height="63.36" x="221.439" y="194.298" fill="#fff" rx="5.669"/></mask><g mask="url(#b)"><path fill="#D6DCF2" d="M219.244 225.978c-5.085-28.828 15.91-31.882 47.659-31.68 31.749.202-52.744-9.294-52.744-9.294l-10.165 3.25"/></g><rect width="57.563" height="6.426" x="226.611" y="268.978" fill="#6F4EB9" rx="3.213"/><rect width="41.866" height="6.426" x="226.611" y="278.799" fill="#6F4EB9" rx="3.213"/><path fill="#9A7ED9" d="M267.081 216.254v-5.095h-9.452v12.13a1.222 1.222 0 1 1-2.447 0v-12.13h-9.452v5.187c0 4.021-2.329 7.677-5.972 9.377l-1.851.864v19.635c0 .764.619 1.383 1.382 1.383h12.515c.657 0 1.223-.461 1.355-1.104l2.57-12.496h1.351l2.57 12.496a1.382 1.382 0 0 0 1.355 1.104h12.516a1.383 1.383 0 0 0 1.382-1.383v-19.726l-1.851-.864a10.346 10.346 0 0 1-5.971-9.378Z"/><path fill="#9A7ED9" d="M269.635 211.159v5.095a7.82 7.82 0 0 0 4.497 7.063l.772.36v-12.518h-5.269ZM243.175 216.347v-5.188h-5.268v12.61l.772-.36a7.82 7.82 0 0 0 4.496-7.062Z"/><path fill="#6F4EB9" d="M274.737 206.184a1.834 1.834 0 0 0-1.833-1.834h-32.998a1.834 1.834 0 0 0-1.833 1.834v3.112h36.664v-3.112ZM267.576 229.937l-1.43 3.336a.526.526 0 0 0 .182.695.512.512 0 0 0 .695-.183l1.43-3.336a.526.526 0 0 0-.182-.695.512.512 0 0 0-.695.183ZM276.75 283.738l-2.394 1.891a.508.508 0 0 0 0 .718.521.521 0 0 0 .718 0l2.394-1.891a.508.508 0 0 0 0-.718.521.521 0 0 0-.718 0Z"/><rect width="58.593" height="78.455" x="379.784" y="214.953" fill="#FFC562" rx="6.586"/><mask id="c" width="60" height="80" x="379" y="214" maskUnits="userSpaceOnUse" style="mask-type:luminance"><rect width="58.593" height="78.455" x="379.784" y="214.953" fill="#fff" rx="6.586"/></mask><g mask="url(#c)"><path fill="#D89D35" d="M441.653 216.618c7.232 85.871-34.098 85.566-62.513 82.413-28.414-3.152 42.817 15.025 42.817 15.025l20.085-3.305 12.138-48.884"/></g><rect width="48.496" height="43.939" x="384.833" y="221.399" fill="#EFF3FC" rx="3.932"/><mask id="d" width="50" height="45" x="384" y="221" maskUnits="userSpaceOnUse" style="mask-type:luminance"><rect width="48.496" height="43.939" x="384.833" y="221.399" fill="#fff" rx="3.932"/></mask><g mask="url(#d)"><path fill="#D6DCF2" d="M375.683 252.579c5.525-38.338 40.514-33.38 40.514-33.38l-54.224-1.758"/></g><rect width="39.918" height="4.456" x="388.419" y="273.188" fill="#E84B23" rx="2.228"/><rect width="29.033" height="4.456" x="388.419" y="279.998" fill="#E84B23" rx="2.228"/><path fill="#FFC562" d="M419.095 230.492h-4.493a5.694 5.694 0 0 1-11.039 0h-4.499v.003l-8.58 4.288 2.862 7.154 5.718-2.862v17.169h20.031v-17.169l5.721 2.862 2.862-7.154-8.583-4.291Z"/><mask id="e" width="38" height="27" x="390" y="230" maskUnits="userSpaceOnUse" style="mask-type:luminance"><path fill="#fff" fill-rule="evenodd" d="M419.095 230.492h-4.493a5.694 5.694 0 0 1-11.039 0h-4.499v.003l-8.58 4.288 2.862 7.154 5.718-2.862v17.169h20.031v-17.169l5.721 2.862 2.862-7.154-8.583-4.291Z" clip-rule="evenodd"/></mask><g mask="url(#e)"><path fill="#D89D35" d="M389.14 241.342c1.344-6.559 13.771-10.208 18.521-8.923 4.75 1.284-6.623-7.726-6.623-7.726l-22.474 6.468"/></g><path fill="#D89D35" d="m408.407 244.414-.995.989a.353.353 0 0 0 .498.498l.994-.989a.35.35 0 0 0-.015-.482.352.352 0 0 0-.482-.016ZM432.13 283.302c-.03.043-.061.085-.093.128.021-.029.015-.019-.003.003l-.05.061a4.237 4.237 0 0 1-.428.44 3.26 3.26 0 0 1-.108.092l-.061.049c.039-.031.004-.003-.017.012a3.905 3.905 0 0 1-.773.453c-.06.027.021-.008-.017.007l-.073.029a3.724 3.724 0 0 1-.148.054.353.353 0 0 0 .187.679 4.434 4.434 0 0 0 2.192-1.651.354.354 0 0 0-.126-.482.361.361 0 0 0-.482.126Z"/><path fill="#BB393C" d="M79.502 228.06a27.496 27.496 0 0 0 3.558 2.828 32.31 32.31 0 0 0 3.879 2.22 35.01 35.01 0 0 0 5.192 2.026c1.09.325 1.75.457 1.75.457l.027-.008a28.377 28.377 0 0 0 2.3-.808 41.393 41.393 0 0 0 5.522-2.661 36.614 36.614 0 0 0 3.671-2.419 31.332 31.332 0 0 0 2.522-2.107 26.662 26.662 0 0 0 2.772-2.998 21.919 21.919 0 0 0 3.452-6.163c.51-1.422.863-2.896 1.052-4.395.118-.935.177-1.876.176-2.818 0-.69-.055-1.379-.163-2.06a14.37 14.37 0 0 0-3.813-7.621 13.332 13.332 0 0 0-2.21-1.853 11.791 11.791 0 0 0-3.764-1.665 10.893 10.893 0 0 0-2.568-.307 12.42 12.42 0 0 0-8.977 3.805 12.421 12.421 0 0 0-8.977-3.805c-.695 0-1.389.067-2.07.199-1.287.253-2.521.724-3.65 1.391a13.158 13.158 0 0 0-2.822 2.236 14.354 14.354 0 0 0-2.319 3.199 14.126 14.126 0 0 0-1.505 4.503c-.1.655-.151 1.316-.152 1.979-.001 1.043.06 2.086.182 3.122.18 1.542.517 3.063 1.003 4.538a21.598 21.598 0 0 0 3.284 6.239 23.785 23.785 0 0 0 2.648 2.946Z"/><mask id="f" width="44" height="39" x="72" y="197" maskUnits="userSpaceOnUse" style="mask-type:luminance"><path fill="#fff" fill-rule="evenodd" d="M79.502 228.06a27.496 27.496 0 0 0 3.558 2.828 32.31 32.31 0 0 0 3.879 2.22 35.01 35.01 0 0 0 5.192 2.026c1.09.325 1.75.457 1.75.457l.027-.008a28.377 28.377 0 0 0 2.3-.808 41.393 41.393 0 0 0 5.522-2.661 36.614 36.614 0 0 0 3.671-2.419 31.332 31.332 0 0 0 2.522-2.107 26.662 26.662 0 0 0 2.772-2.998 21.919 21.919 0 0 0 3.452-6.163c.51-1.422.863-2.896 1.052-4.395.118-.935.177-1.876.176-2.818 0-.69-.055-1.379-.163-2.06a14.37 14.37 0 0 0-3.813-7.621 13.332 13.332 0 0 0-2.21-1.853 11.791 11.791 0 0 0-3.764-1.665 10.893 10.893 0 0 0-2.568-.307 12.42 12.42 0 0 0-8.977 3.805 12.421 12.421 0 0 0-8.977-3.805c-.695 0-1.389.067-2.07.199-1.287.253-2.521.724-3.65 1.391a13.158 13.158 0 0 0-2.822 2.236 14.354 14.354 0 0 0-2.319 3.199 14.126 14.126 0 0 0-1.505 4.503c-.1.655-.151 1.316-.152 1.979-.001 1.043.06 2.086.182 3.122.18 1.542.517 3.063 1.003 4.538a21.598 21.598 0 0 0 3.284 6.239 23.785 23.785 0 0 0 2.648 2.946Z" clip-rule="evenodd"/></mask><g mask="url(#f)"><path fill="#90282A" d="M95.693 196.513c23.121-2.356 15.261 34.976-3.561 38.621-18.823 3.645 14.164 6.737 14.164 6.737l27.392-44.164h-12.371"/></g><path fill="#90282A" d="M84.747 207.149a2.775 2.775 0 0 0-.017 2.226c.066.112.21.149.321.084a.242.242 0 0 0 .084-.322 2.253 2.253 0 0 1 .018-1.751.242.242 0 0 0-.084-.322.237.237 0 0 0-.322.084v.001ZM101.837 223.535a4.77 4.77 0 0 1-2.84 2.434c-.288.09-.164.545.126.454a5.243 5.243 0 0 0 3.12-2.651c.135-.27-.272-.509-.406-.237Z"/><path fill="#FFC562" d="M363.69 194.15a5.235 5.235 0 0 0-3.514-5.14.642.642 0 0 0-.151-.012h-10.303c-.039 0-.062-.2-.053-.235a22.409 22.409 0 0 0 .73-9.441l-.003-.01a5.027 5.027 0 0 0-4.682-5.312 4.94 4.94 0 0 0-4.651 4.669h-.003c-.946 8.903-6.984 11.559-8.342 12.051a.105.105 0 0 1-.025 0 1.274 1.274 0 0 0-.247 0h-6.335a1.809 1.809 0 0 0-1.697 1.911v22.078a1.739 1.739 0 0 0 1.697 1.837h29.195c.166.009.333.009.5 0a4.592 4.592 0 0 0 4.156-2.89c.339-.733 3.52-17.959 3.52-17.959h.003a5.94 5.94 0 0 0 .137-.713l.014-.078v-.006c.034-.248.052-.498.054-.749"/><mask id="g" width="40" height="43" x="324" y="174" maskUnits="userSpaceOnUse" style="mask-type:luminance"><path fill="#fff" fill-rule="evenodd" d="M363.69 194.15a5.235 5.235 0 0 0-3.514-5.14.642.642 0 0 0-.151-.012h-10.303c-.039 0-.062-.2-.053-.235a22.409 22.409 0 0 0 .73-9.441l-.003-.01a5.027 5.027 0 0 0-4.682-5.312 4.94 4.94 0 0 0-4.651 4.669h-.003c-.946 8.903-6.984 11.559-8.342 12.051a.105.105 0 0 1-.025 0 1.274 1.274 0 0 0-.247 0h-6.335a1.809 1.809 0 0 0-1.697 1.911v22.078a1.739 1.739 0 0 0 1.697 1.837h29.195c.166.009.333.009.5 0a4.592 4.592 0 0 0 4.156-2.89c.339-.733 3.52-17.959 3.52-17.959h.003a5.94 5.94 0 0 0 .137-.713l.014-.078v-.006c.034-.248.052-.498.054-.749" clip-rule="evenodd"/></mask><g fill="#D89D35" mask="url(#g)"><path d="M330.789 199.7c4.185-3.615.571 17.475 17.883 18.345 17.311.87-30.456 6.767-30.456 6.767l4.942-16.741M352.155 181.626l-2.432 7.373s-.053 1.318-2.174 3.187c-2.122 1.868 12.627-3.176 12.627-3.176l-3.626-3.429"/></g><rect width="14.824" height="30.388" x="318.216" y="187.656" fill="#FE7578" rx="1.596"/><mask id="h" width="16" height="32" x="318" y="187" maskUnits="userSpaceOnUse" style="mask-type:luminance"><rect width="14.824" height="30.388" x="318.216" y="187.656" fill="#fff" rx="1.596"/></mask><g mask="url(#h)"><path fill="#E55A61" d="M317.608 204.392c-1.323-13.045 2.028-16.956 9.567-16.736 7.54.221-15.439-3.011-15.439-3.011l-1.675 4.788"/></g><circle cx="325.628" cy="195.275" r="2.47" fill="#EFF3FC"/><path fill="#FFC562" d="M345.844 193.166c2.48-.187 4.022-5.139 4.022-5.139l-4.022 5.139Z"/><path fill="#D89D35" d="M354.84 197.272a10.846 10.846 0 0 1-2.598 4.181.255.255 0 0 0 .36.361 11.413 11.413 0 0 0 2.73-4.407c.106-.311-.386-.445-.492-.135Z"/><path fill="#E55A61" d="M326.323 207.794a6.341 6.341 0 0 0 1 4.739c.185.269.628.014.441-.257a5.826 5.826 0 0 1-.949-4.347c.059-.321-.432-.458-.492-.135Z"/><mask id="i" width="462" height="295" x="8" y="202" maskUnits="userSpaceOnUse" style="mask-type:luminance"><path fill="#fff" d="M8 202.59h461.751v294.277H8z"/></mask><g mask="url(#i)"><path fill="#FF9763" d="M43.32 345.9s1.453-73.217 4.638-84.218c0 0-2.672-6.654-4.21-11.286-1.537-4.632 3.797-20.21 10.219-17.559 0 0 5.372-1.315 6.612 1.425 0 0 4.628-1.233 5.596-.056 0 0 4.07-.513 4.445.104 1.186 1.951 1.173 14.525 1.173 14.525a11.494 11.494 0 0 1-1.14 5.685c-1.308 1.823-6.932 7.825-6.932 7.825l1.844 70.838-1.199 18.768L43.32 345.9Z"/><mask id="j" width="29" height="120" x="43" y="232" maskUnits="userSpaceOnUse" style="mask-type:luminance"><path fill="#fff" fill-rule="evenodd" d="M43.32 345.9s1.453-73.217 4.638-84.218c0 0-2.672-6.654-4.21-11.286-1.537-4.632 3.797-20.21 10.219-17.559 0 0 5.372-1.315 6.612 1.425 0 0 4.628-1.233 5.596-.056 0 0 4.07-.513 4.445.104 1.186 1.951 1.173 14.525 1.173 14.525a11.494 11.494 0 0 1-1.14 5.685c-1.308 1.823-6.932 7.825-6.932 7.825l1.844 70.838-1.199 18.768L43.32 345.9Z" clip-rule="evenodd"/></mask><g mask="url(#j)"><path fill="#E84B23" d="M22.264 275.613c14.595-7.658 43.622-1.406 43.622-1.406l-.957 5.483-29.205 2.028"/></g><path fill="#FF9763" d="M55.496 255.247c.992-2.906 2.728-6.727 5.215-7.72l-4.17-2.041s-7.124 5.464-7.875 1.561c0 0 7.172-6.656 8.606-6.904 1.435-.249 14.978 3.545 15.186 4.321.209.776-.578 8.536-1.806 10.054-1.227 1.518-6.931 7.826-6.931 7.826"/><path fill="#FE7578" d="M37.186 283.768c-.16-7.229 28.7-9.561 28.7-9.561l3.82 60.398 76.022-3.226 11.567 47.129-102.223-7.198a20.175 20.175 0 0 1-15.95-19.221c-.582-21.865-1.81-62.667-1.936-68.321Z"/><mask id="k" width="121" height="105" x="37" y="274" maskUnits="userSpaceOnUse" style="mask-type:luminance"><path fill="#fff" fill-rule="evenodd" d="M37.186 283.768c-.16-7.229 28.7-9.561 28.7-9.561l3.82 60.398 76.022-3.226 11.567 47.129-102.223-7.198a20.175 20.175 0 0 1-15.95-19.221c-.582-21.865-1.81-62.667-1.936-68.321Z" clip-rule="evenodd"/></mask><g mask="url(#k)"><path fill="#BA393C" d="M6.89 364.686c112.913 22.402 130.769-13.845 130.769-13.845l14.266 42.068-59.322 17.782-88.411-34.056"/><path stroke="#BA393C" stroke-linecap="round" stroke-linejoin="round" stroke-width="2.329" d="M29.19 306.214c8.201-14.864 42.61-18.802 42.61-18.802"/><path stroke="#BA393C" stroke-linecap="round" stroke-linejoin="round" stroke-width="2.329" d="M43.32 275.748c-2.114 3.935-.664 19.53-.664 19.53M49.24 272.11c-2.113 3.935-.663 19.53-.663 19.53M56.422 270.391c-2.114 3.935-.664 19.53-.664 19.53M62.472 269.197c-2.113 3.935-.663 19.53-.663 19.53"/><ellipse cx="44.298" cy="370.473" fill="#BA393C" rx="12.806" ry="22.938" transform="rotate(-75.64 44.298 370.473)"/></g><path fill="#274B69" d="M168.749 774.439c18.417 8.908 45.27-6.809 45.27-6.809L172.92 608.162l13.486-169.512-66.118 19.605s-2.52 103.245.91 149.849c1.649 22.384 47.551 166.335 47.551 166.335Z"/><mask id="l" width="96" height="340" x="119" y="438" maskUnits="userSpaceOnUse" style="mask-type:luminance"><path fill="#fff" fill-rule="evenodd" d="M168.749 774.439c18.417 8.908 45.27-6.809 45.27-6.809L172.92 608.162l13.486-169.512-66.118 19.605s-2.52 103.245.91 149.849c1.649 22.384 47.551 166.335 47.551 166.335Z" clip-rule="evenodd"/></mask><g mask="url(#l)"><path fill="#11314B" d="M164.369 452.251c-6.534 57.23-42.941-10.453-41.611 64.711 1.615 91.234-34.81-16.507-34.81-16.507l15.663-51.405"/></g><path fill="#274B69" d="m153.821 510.017 30.496 91.737 93.753 180.362s35.432-.883 42.755-12.153l-85.891-177.945-32.713-153.35-65.668 19.407"/><path fill="#FF9763" d="m209.996 460.407.793 13.429s-30.26 21.701-91.394-2.237l-1.446-13.955c34.611 14.196 92.047 2.763 92.047 2.763Z"/><path fill="#FFC562" d="M151.154 466.927a1.978 1.978 0 0 0-3.681.869l-.802 11.813a1.982 1.982 0 0 0 3.276 1.625c.395-.345.638-.833.673-1.357"/><path fill="#FFC562" d="m185.557 473.63 2.395 3.67a2.399 2.399 0 0 1-.347 3.039l-3.347 3.215a2.599 2.599 0 0 1-2.027.727c-5.633-.474-29.882-2.599-34.561-4.507l1.762-11.812s23.899 4.486 32.97 4.093a3.543 3.543 0 0 1 3.155 1.575Z"/><path stroke="#fff" stroke-linecap="round" stroke-linejoin="round" stroke-width="2.329" d="M161.968 482.494a12.699 12.699 0 0 0 1.958-6.616 11.806 11.806 0 0 0-2.027-7.57"/><path fill="#FE7578" d="M138.196 331.798s25.395-9.768 84.561 1.644a7.767 7.767 0 0 1 5.787 10.34c-5.237 14.115-14.254 48.248-15.775 118.348 0 0-52.92 29.363-98.452-.826 0 0-7.369-63.957 8.088-104.922"/><mask id="m" width="118" height="148" x="112" y="327" maskUnits="userSpaceOnUse" style="mask-type:luminance"><path fill="#fff" fill-rule="evenodd" d="M138.196 331.798s25.395-9.768 84.561 1.644a7.767 7.767 0 0 1 5.787 10.34c-5.237 14.115-14.254 48.248-15.775 118.348 0 0-52.92 29.363-98.452-.826 0 0-7.369-63.957 8.088-104.922" clip-rule="evenodd"/></mask><g mask="url(#m)"><path fill="#BA393C" d="M209.136 375.943c-18.387 80.706 11.038 93.61-90.17 90.811-112.796-3.119-4.179 45.56-4.179 45.56s129.981-9.468 129.988-15.801c.006-6.332 6.396-114.403 6.396-114.403l-22.858-24.507-13.107 1.777"/><path fill="#FFC562" d="m157.924 366.688-28.473 37.157 50.6 7.604-22.127-44.761Z"/><ellipse cx="155.889" cy="392.95" stroke="#BA393C" stroke-linecap="round" stroke-linejoin="round" stroke-width="2.329" rx="20.251" ry="21.762" transform="rotate(-37.784 155.889 392.95)"/><path fill="#F0F3FC" d="M144.074 322.829c4.137 36.801 18.473 46.882 56.513 5.077 38.039-41.805-27.176-13.583-27.176-13.583l-25.816 9.421"/></g><path fill="#FF9763" d="M306.915 383.947s33.797-69.401 36.231-81.148c0 0 5.571-5.06 9.162-8.725 3.592-3.665 6.301-20.668-.695-21.035 0 0-4.161-3.625-6.58-1.603 0 0-3.536-3.217-4.963-2.542 0 0-3.383-2.293-4.013-1.881-1.993 1.305-8.008 13.118-8.008 13.118a12.677 12.677 0 0 0-1.708 5.846c.292 2.294 2.43 10.433 2.43 10.433l-35.598 65.697-7.926 18.157 21.668 3.683Z"/><mask id="n" width="71" height="118" x="285" y="266" maskUnits="userSpaceOnUse" style="mask-type:luminance"><path fill="#fff" fill-rule="evenodd" d="M306.915 383.947s33.797-69.401 36.231-81.148c0 0 5.571-5.06 9.162-8.725 3.592-3.665 6.301-20.668-.695-21.035 0 0-4.161-3.625-6.58-1.603 0 0-3.536-3.217-4.963-2.542 0 0-3.383-2.293-4.013-1.881-1.993 1.305-8.008 13.118-8.008 13.118a12.677 12.677 0 0 0-1.708 5.846c.292 2.294 2.43 10.433 2.43 10.433l-35.598 65.697-7.926 18.157 21.668 3.683Z" clip-rule="evenodd"/></mask><g mask="url(#n)"><path fill="#E84B23" d="M346.585 325.003c-3.62-20.572-22.636-19.695-22.636-19.695l.414 24.355 13.017.771"/></g><path fill="#FF9763" d="M339.895 288.875a8.032 8.032 0 0 0-1.338-5.04l4.697-.062s3.733 8.3 6.274 4.97c0 0-3.205-9.442-4.365-10.313-1.16-.871-15.056-3.334-15.613-2.698-.558.636-3.576 8.272-3.209 10.244.367 1.972 2.43 10.433 2.43 10.433"/><path fill="#FE7578" d="m194.585 368.052 87.43 33.817c8.382 1.831 17.633-2.962 22.37-11.602 11.087-20.22 35.439-61.296 38.304-66.523 3.783-6.9-20.575-19.488-20.575-19.488l-32.662 52.884-64.247-22.779"/><mask id="o" width="150" height="99" x="194" y="304" maskUnits="userSpaceOnUse" style="mask-type:luminance"><path fill="#fff" fill-rule="evenodd" d="m194.585 368.052 87.43 33.817c8.382 1.831 17.633-2.962 22.37-11.602 11.087-20.22 35.439-61.296 38.304-66.523 3.783-6.9-20.575-19.488-20.575-19.488l-32.662 52.884-64.247-22.779" clip-rule="evenodd"/></mask><g mask="url(#o)"><circle cx="302.706" cy="411.299" r="27.352" fill="#BA393C"/></g><path fill="#FF9763" d="m186.98 329.003-25.383 16.198-2.522-8.882.052-46.23 27.896.03-.043 38.884Z"/><mask id="p" width="29" height="56" x="159" y="290" maskUnits="userSpaceOnUse" style="mask-type:luminance"><path fill="#fff" fill-rule="evenodd" d="m186.98 329.003-25.383 16.198-2.522-8.882.052-46.23 27.896.03-.043 38.884Z" clip-rule="evenodd"/></mask><g mask="url(#p)"><path fill="#E84B23" d="M147.424 334.664c22.134-6.329 10.719-13.435 22.335-18.242 11.616-4.807-.292-10.202-.292-10.202l-7.91-3.513-13.446 4.573 3.455 16.873"/></g><path fill="#FF9763" d="m187.234 291.34 5.429-25.996-41.199 2.873c-5.245 7.359-8.243 30.576-5.577 43.314 1.087 5.2 16.971 2.056 27.822-.738"/><mask id="q" width="49" height="50" x="144" y="265" maskUnits="userSpaceOnUse" style="mask-type:luminance"><path fill="#fff" fill-rule="evenodd" d="m187.234 291.34 5.429-25.996-41.199 2.873c-5.245 7.359-8.243 30.576-5.577 43.314 1.087 5.2 16.971 2.056 27.822-.738" clip-rule="evenodd"/></mask><g mask="url(#q)"><ellipse cx="143.234" cy="293.613" fill="#E84B23" opacity=".27" rx="3.971" ry="5.353" transform="rotate(-86.487 143.234 293.613)"/><ellipse cx="168.457" cy="295.271" fill="#E84B23" opacity=".27" rx="3.971" ry="5.353" transform="rotate(-86.487 168.457 295.271)"/><path fill="#190000" d="M149.215 288.774a1.865 1.865 0 0 1-1.621-2.094l.446-3.101a1.896 1.896 0 0 1 2.149-1.579 1.864 1.864 0 0 1 1.621 2.093l-.446 3.101a1.897 1.897 0 0 1-2.149 1.58ZM163.369 289.653a1.86 1.86 0 0 1-1.621-2.093l.446-3.101a1.896 1.896 0 0 1 2.149-1.58 1.866 1.866 0 0 1 1.621 2.094l-.446 3.101a1.897 1.897 0 0 1-2.149 1.579ZM150.341 277.609c-4.004.568-3.238 2.755-.712 2.559 2.527-.197 3.327-2.93.712-2.559ZM164.872 278.393c3.689 1.618 2.65 3.398.276 2.534-2.374-.865-2.686-3.591-.276-2.534Z"/><path fill="#E84B23" d="M157.536 289.641c-.034 1.253-1.122.729-2.48.694-1.359-.034-2.474.435-2.44-.818a2.47 2.47 0 0 1 4.92.124Z"/><path fill="#C1525F" d="M149.575 296.079c1.289 9.104 10.208 5.736 10.638.136a.692.692 0 0 0-.428-.676 14.862 14.862 0 0 0-9.682-.232.709.709 0 0 0-.528.772Z"/><mask id="r" width="12" height="8" x="149" y="294" maskUnits="userSpaceOnUse" style="mask-type:luminance"><path fill="#fff" fill-rule="evenodd" d="M149.575 296.079c1.289 9.104 10.208 5.736 10.638.136a.692.692 0 0 0-.428-.676 14.862 14.862 0 0 0-9.682-.232.709.709 0 0 0-.528.772Z" clip-rule="evenodd"/></mask><g mask="url(#r)"><ellipse cx="155.959" cy="301.363" fill="#993443" rx="4.721" ry="4.119" transform="rotate(-13.443 155.959 301.363)"/><path fill="#F0F3FC" d="M151.271 294.7a3.635 3.635 0 0 0 .181 1.562c.963.934 5.754.648 6.421.144a8.72 8.72 0 0 0 .26-2.066l-6.126.053"/></g></g><path fill="#3A3530" d="M153.769 249.793c-31.467-2.101-17.909 6.223-11.958 8.573 5.952 2.351-41.98-12.915-33.861-.037 8.121 12.878 33.563 12.136 58.729 13.966 25.166 1.829 4.595 20.285 16.581 22.394 11.986 2.109 32.153-40.78-29.491-44.896Z"/><path fill="#F0F3FC" d="m150.304 328.368 8.541-6.715 2.752 23.548-5.264 5.5-6.029-22.333Z"/><path fill="#F0F3FC" d="m164.629 351.451-3.032-6.25 25.426-25.87 7.562 9.882-29.956 22.238Z"/><path fill="#274B69" d="M183.826 493.789c2.623 24.485 23.319 18.363 23.319 18.363l-23.319-18.363Z"/><path stroke="#11314B" stroke-width="3.106" d="M183.826 493.789c2.623 24.485 23.319 18.363 23.319 18.363"/><ellipse cx="147.713" cy="285.744" stroke="#190000" stroke-linecap="round" stroke-linejoin="round" stroke-width="2.329" rx="7.652" ry="4.737" transform="rotate(-83.17 147.713 285.744)"/><ellipse cx="163.763" cy="285.882" stroke="#190000" stroke-linecap="round" stroke-linejoin="round" stroke-width="2.329" rx="7.652" ry="5.896" transform="rotate(-83.17 163.763 285.882)"/><path stroke="#190000" stroke-linecap="round" stroke-linejoin="round" stroke-width="2.329" d="M157.839 286.438a3.443 3.443 0 0 0-5.601.474M169.98 285.19l9.182.693"/><path fill="#FF9763" d="M174.353 290.473c5.707-10.071 24.736-11.059 10.799 10.52l-10.799-10.52Z"/><path fill="#190000" d="M154.114 259.744a3.612 3.612 0 0 0 1.872 2.425 8.107 8.107 0 0 0 3.294.765 1.183 1.183 0 0 0 1.178-1.179 1.21 1.21 0 0 0-1.178-1.179 20.875 20.875 0 0 1-.936-.093l.314.042a6.532 6.532 0 0 1-1.056-.218c-.091-.028-.181-.062-.271-.093-.214-.073.244.119-.024-.013a3.202 3.202 0 0 1-.385-.222c-.096-.065-.204-.215.024.025-.053-.056-.121-.102-.177-.156a2.914 2.914 0 0 1-.238-.26c.117.155.15.196.097.122-.079-.123-.142-.25-.214-.376.178.309.053.127.021.011a2.198 2.198 0 0 1-.048-.228 1.179 1.179 0 0 0-2.155-.282c-.144.28-.186.601-.119.909h.001ZM181.79 293.388c.114-.105.228-.209.351-.304l-.239.185a1.86 1.86 0 0 1 .39-.234l-.281.119c.088-.036.181-.061.275-.075l-.313.042a.871.871 0 0 1 .191-.001l-.313-.042a.669.669 0 0 1 .153.043l-.281-.119a.794.794 0 0 1 .156.093l-.239-.185a.92.92 0 0 1 .142.144l-.185-.238a.792.792 0 0 1 .088.152l-.119-.281a.595.595 0 0 1 .039.143l-.042-.313a.479.479 0 0 1 0 .107l.042-.314a.446.446 0 0 1-.027.103l.119-.282a.488.488 0 0 1-.046.08l.185-.239-.038.044c-.217.224-.34.522-.345.834.002.312.126.611.345.833.222.22.521.344.833.345a1.21 1.21 0 0 0 .834-.345c.092-.096.173-.201.243-.314a2.11 2.11 0 0 0 .158-.371 2.565 2.565 0 0 0 .057-.401 1.908 1.908 0 0 0-.077-.519 2.351 2.351 0 0 0-.165-.378 2.489 2.489 0 0 0-.328-.417 1.919 1.919 0 0 0-1.239-.525c-.1 0-.2.009-.299.027-.104.01-.207.027-.309.052a3.352 3.352 0 0 0-.558.238 4.084 4.084 0 0 0-.529.385c-.103.082-.2.172-.296.262a1.176 1.176 0 0 0 0 1.666c.221.221.521.345.833.346.311-.009.608-.132.833-.346h.001Z"/><path fill="#BA393C" d="M131.874 436.15a37.35 37.35 0 0 0 19.879 9.271 1.221 1.221 0 0 0 1.449-.824 1.185 1.185 0 0 0-.823-1.449 35.246 35.246 0 0 1-18.838-8.665c-1.125-1.012-2.797.65-1.667 1.667ZM67.422 334.325a8.974 8.974 0 0 1-.339 1.045c-.014.036-.081.194-.007.023.078-.182-.007.015-.025.055l-.06.129a8.436 8.436 0 0 1-.45.844c-.105.172-.215.34-.33.504-.061.087-.125.172-.188.258-.09.122.15-.187.054-.071-.038.045-.075.092-.112.138a8.95 8.95 0 0 1-.884.919 1.187 1.187 0 0 0 0 1.667c.466.446 1.2.446 1.667 0a10.043 10.043 0 0 0 2.947-4.885 1.179 1.179 0 1 0-2.273-.626ZM288.123 357.668a17.338 17.338 0 0 1-.388 6.705 1.18 1.18 0 0 0 2.273.627c.623-2.392.783-4.88.473-7.332a1.211 1.211 0 0 0-1.179-1.179c-.57.026-1.264.524-1.179 1.179Z"/><path fill="#E84B23" d="M61.944 261.361h-1.166a1.212 1.212 0 0 0-1.179 1.179l.043.313c.053.197.158.376.302.521.224.217.522.34.833.345h1.166a1.211 1.211 0 0 0 1.179-1.179l-.042-.313a1.18 1.18 0 0 0-.303-.521 1.225 1.225 0 0 0-.833-.345Z"/><path fill="#FF9763" d="M404.605 388.695s16.019-29.904 28.323-39.259c11.323-8.61 16.641-6.535 17.726-10.754.828-3.222-12.101 1.524-13.709-2.092-1.608-3.616 4.983-14.963 10.377-17.125 4.55-1.824.798-4.377-4.471-3.317-7.026 1.413-17.799 17.127-20.692 25.264-2.893 8.136-23.712 23.205-31.119 36.798-5.649 10.37 13.565 10.485 13.565 10.485Z"/><mask id="s" width="61" height="74" x="390" y="315" maskUnits="userSpaceOnUse" style="mask-type:luminance"><path fill="#fff" fill-rule="evenodd" d="M404.605 388.695s16.019-29.904 28.323-39.259c11.323-8.61 16.641-6.535 17.726-10.754.828-3.222-12.101 1.524-13.709-2.092-1.608-3.616 4.983-14.963 10.377-17.125 4.55-1.824.798-4.377-4.471-3.317-7.026 1.413-17.799 17.127-20.692 25.264-2.893 8.136-23.712 23.205-31.119 36.798-5.649 10.37 13.565 10.485 13.565 10.485Z" clip-rule="evenodd"/></mask><g mask="url(#s)"><path fill="#E84B23" d="M394.305 365.339c7.588 13.409 14.806 8.782 18.322 19.146s-19.601 1.697-19.601 1.697l-4.643-23.535"/></g><path fill="#274B69" d="M272.658 556.633c.097 2.231 11.146 34.166 14.184 83.734L273.59 780.036s38.324 5.725 43.033 1.066c0 0 22.711-292.72 5.788-304.008-11.601-7.74-34.559 16.321-34.559 16.321l-15.194 63.218Z"/><path fill="#274B69" d="M314.622 483.292s-35.457-50.687-52.169-30.308c-14.36 17.51-18.573 162.436-18.573 162.436-9.823 43.447-63.715 142.984-63.715 142.984-2.595-.617 20.877 26.909 33.1 19.51 0 0 44.369-61.109 73.577-137.547 0 0 10.694-75.618 20.821-118.694"/><path fill="#FFC562" d="M396.648 368.287c-.704 2.422 10.437 12.034 11.623 14.602 0 0-14.081 24.346-28.677 31.408-14.595 7.062-67.611-3.784-67.611-3.784l-17.196-44.193s77.137 20.82 83.729 18.613c5.556-1.861 12.252-9.634 14.217-12.029.104-.127 3.96-4.771 3.915-4.617Z"/><mask id="t" width="115" height="51" x="294" y="366" maskUnits="userSpaceOnUse" style="mask-type:luminance"><path fill="#fff" fill-rule="evenodd" d="M396.648 368.287c-.704 2.422 10.437 12.034 11.623 14.602 0 0-14.081 24.346-28.677 31.408-14.595 7.062-67.611-3.784-67.611-3.784l-17.196-44.193s77.137 20.82 83.729 18.613c5.556-1.861 12.252-9.634 14.217-12.029.104-.127 3.96-4.771 3.915-4.617Z" clip-rule="evenodd"/></mask><g mask="url(#t)"><path fill="#D89D35" d="M390.001 409.839c-56.507 16.903-54.11-9.71-72.313-23.657-13.148-10.073-8.513 35.131-8.513 35.131l69.338 5.182"/></g><path fill="#FFC562" d="m294.787 366.32-22.169-.114a32.017 32.017 0 0 0-6.172 1.351c-7.577 1.03-57.193 21.475-70.966 82.115-7.113 31.323 23.917 13.536 23.917 13.536s9.208-23.604 26.424-37.469a146.84 146.84 0 0 0 5.276 14.958 24.947 24.947 0 0 1-4.462 27.233 7.562 7.562 0 0 0 3.613 12.26c17.978 5.904 51.213 14.25 74.452 4.907a7.53 7.53 0 0 0 3.635-11.267c-6.032-8.955-14.82-24.913-9.047-35.045 6.179-10.846 13.719-33.949-.275-53.548"/><mask id="u" width="136" height="124" x="194" y="366" maskUnits="userSpaceOnUse" style="mask-type:luminance"><path fill="#fff" fill-rule="evenodd" d="m294.787 366.32-22.169-.114a32.017 32.017 0 0 0-6.172 1.351c-7.577 1.03-57.193 21.475-70.966 82.115-7.113 31.323 23.917 13.536 23.917 13.536s9.208-23.604 26.424-37.469a146.84 146.84 0 0 0 5.276 14.958 24.947 24.947 0 0 1-4.462 27.233 7.562 7.562 0 0 0 3.613 12.26c17.978 5.904 51.213 14.25 74.452 4.907a7.53 7.53 0 0 0 3.635-11.267c-6.032-8.955-14.82-24.913-9.047-35.045 6.179-10.846 13.719-33.949-.275-53.548" clip-rule="evenodd"/></mask><g mask="url(#u)"><path fill="#D89D35" d="M257.785 416.686c-15.158 9.036 23.837 17.842 6.343 34.542-17.494 16.701 8.975 34.618 20.183 36.295 11.207 1.676-34.834 1.769-34.834 1.769l-10.93-23.486 6.024-39.027 13.214-10.093Z"/><path fill="#F0F3FC" d="m299.97 407.104-17.293 36.878 40.583-3.464-23.29-33.414Z"/><circle cx="285.7" cy="417.721" r="15.063" fill="#935738"/><path fill="#FE7578" d="M306.767 404.111h21.911v21.911h-21.911z"/></g><path fill="#FF9763" d="M298.145 344.495v24.767s13.536 16.966 3.678 16.92c-9.7-.044-27.742-11.711-27.006-16.37l-.022-37.145 23.35 11.828Z"/><mask id="v" width="32" height="55" x="274" y="332" maskUnits="userSpaceOnUse" style="mask-type:luminance"><path fill="#fff" fill-rule="evenodd" d="M298.145 344.495v24.767s13.536 16.966 3.678 16.92c-9.7-.044-27.742-11.711-27.006-16.37l-.022-37.145 23.35 11.828Z" clip-rule="evenodd"/></mask><g mask="url(#v)"><path fill="#E84B23" d="M311.553 366.443c-23.963-.238-16.999-17.083-22.454-17.194-5.456-.112 11.005-6.007 11.005-6.007l12.458 14.259-1.009 8.942Z"/></g><path fill="#FF9763" d="M288.715 350.192a21.388 21.388 0 0 0 5.324 1.167c8.684 0 11.813-11.464 11.813-24.035a31.791 31.791 0 0 0-1.145-8.501c-4.005-5.588-18.283-7.786-21.719-11.777-.339.251-.667.525-.992.809-4.119 3.614-7.004 9.878-7.509 17.168a6.9 6.9 0 1 0 .327 13.731 8.607 8.607 0 0 0 1.663-.168"/><mask id="w" width="39" height="45" x="267" y="307" maskUnits="userSpaceOnUse" style="mask-type:luminance"><path fill="#fff" fill-rule="evenodd" d="M288.715 350.192a21.388 21.388 0 0 0 5.324 1.167c8.684 0 11.813-11.464 11.813-24.035a31.791 31.791 0 0 0-1.145-8.501c-4.005-5.588-18.283-7.786-21.719-11.777-.339.251-.667.525-.992.809-4.119 3.614-7.004 9.878-7.509 17.168a6.9 6.9 0 1 0 .327 13.731 8.607 8.607 0 0 0 1.663-.168" clip-rule="evenodd"/></mask><g mask="url(#w)"><ellipse cx="307.79" cy="338.149" fill="#E84B23" opacity=".27" rx="5.16" ry="6.961" transform="rotate(-66.776 307.79 338.149)"/><ellipse cx="284.61" cy="335.035" fill="#E84B23" opacity=".27" rx="3.77" ry="5.086" transform="rotate(-66.776 284.61 335.035)"/><rect width="3.652" height="6.735" x="303.84" y="331.898" fill="#190000" rx="1.826" transform="rotate(179.873 303.84 331.898)"/><rect width="3.652" height="6.735" x="290.288" y="330.881" fill="#190000" rx="1.826" transform="rotate(179.874 290.288 330.881)"/><path fill="#190000" d="M302.446 320.862c3.728 1.079 2.707 3.112.332 2.59-2.375-.523-2.768-3.295-.332-2.59ZM288.531 319.723c-3.724 1.096-2.976 2.969-.603 2.436 2.372-.532 3.036-3.151.603-2.436Z"/><path fill="#E84B23" d="M293.99 331.658c-.136 1.226.968.857 2.264 1.002 1.296.145 2.292.748 2.429-.479a2.363 2.363 0 0 0-4.693-.523Z"/><path fill="#C1525F" d="M300.69 338.981c-2.449 8.713-10.472 4.259-10.127-1.261a.682.682 0 0 1 .497-.603 13.911 13.911 0 0 1 9.232 1.042.696.696 0 0 1 .398.822Z"/><mask id="x" width="11" height="8" x="290" y="336" maskUnits="userSpaceOnUse" style="mask-type:luminance"><path fill="#fff" fill-rule="evenodd" d="M300.69 338.981c-2.449 8.713-10.472 4.259-10.127-1.261a.682.682 0 0 1 .497-.603 13.911 13.911 0 0 1 9.232 1.042.696.696 0 0 1 .398.822Z" clip-rule="evenodd"/></mask><g mask="url(#x)"><ellipse cx="293.912" cy="343.299" fill="#993443" rx="4.05" ry="4.537" transform="rotate(-65.7 293.912 343.299)"/><path fill="#F0F3FC" d="M299.264 337.413a3.676 3.676 0 0 1-.382 1.501c-1.041.785-5.555-.121-6.122-.7a8.787 8.787 0 0 1 .031-2.05l5.815.854"/></g></g><path fill="#FF9763" d="M254.719 508.388s8.89 1.385 18.33-11.424c1.618-2.195-9.72-7.853-16.763-11.394-6.313-3.175-33.372-26.178-38.916-30.914a3.812 3.812 0 0 0-2.483-.916 16.097 16.097 0 0 0-15.276 9.488 1.82 1.82 0 0 0 .837 2.356c7.321 3.902 37.625 22.7 46.791 28.028 2.114 2.203 1.376 13.575 7.48 14.776Z"/><mask id="y" width="75" height="56" x="199" y="453" maskUnits="userSpaceOnUse" style="mask-type:luminance"><path fill="#fff" fill-rule="evenodd" d="M254.719 508.388s8.89 1.385 18.33-11.424c1.618-2.195-9.72-7.853-16.763-11.394-6.313-3.175-33.372-26.178-38.916-30.914a3.812 3.812 0 0 0-2.483-.916 16.097 16.097 0 0 0-15.276 9.488 1.82 1.82 0 0 0 .837 2.356c7.321 3.902 37.625 22.7 46.791 28.028 2.113 2.203 1.376 13.575 7.48 14.776Z" clip-rule="evenodd"/></mask><g mask="url(#y)"><path fill="#E84B23" d="M219.788 452.867c-18.877 4.442-16.378 15.731-16.378 15.731l-10.549-4.719 4.534-9.069 17.858-5.274"/></g><path fill="#3A3530" d="M279.045 294.349c-30.747 1.444-49.98 53.817-4.937 55.516 0 0 4.81-6.995 2.369-11.279a8.75 8.75 0 0 1-1.663.168 6.902 6.902 0 1 1-.327-13.732c11.63-1.801 8.501-17.976 8.501-17.976 3.437 3.991 17.83 15.116 24.676 10.613a6.516 6.516 0 0 0 1.135-.926c6.641-6.894-8.42-23.387-29.754-22.384Z"/><path fill="#FFC562" d="M261.059 414.309c-8.308 2.769-16.488 12.469-16.488 12.469l16.488-12.469Z"/><path stroke="#11314B" stroke-linecap="round" stroke-linejoin="round" stroke-width="2.329" d="M274.03 494.324c-3.935 13.7-20.841 15.157-20.841 15.157"/><path fill="#190000" d="m274.548 329.187-.044-.013c-.056-.011-.13-.018-.175-.024-.052-.007-.12-.02-.179-.023a.323.323 0 0 0-.044 0l-.012.001a8.554 8.554 0 0 0-.316.043l-.025.004-.042.012a2.92 2.92 0 0 0-.321.137l-.039.022-.019.013c-.084.061-.173.13-.253.196a.53.53 0 0 0-.068.066 6.744 6.744 0 0 0-.194.252l-.014.019-.025.042a1.88 1.88 0 0 0-.078.178c-.023.056-.056.121-.075.183l-.011.043a2.859 2.859 0 0 0-.047.357.277.277 0 0 0 .001.05l.001.013c.012.096.027.224.043.319l.005.024a2.071 2.071 0 0 0 .161.375c.235.415.704.64 1.175.562a.878.878 0 0 0 .438-.139l.238-.185c.145-.145.249-.324.303-.521l.042-.313c0-.209-.055-.415-.161-.595a.315.315 0 0 1-.028-.051l.119.282a.309.309 0 0 1-.02-.072l.042.313a.422.422 0 0 1 0-.087l-.042.313a.416.416 0 0 1 .029-.103l-.119.281a.49.49 0 0 1 .06-.101l-.185.239a.466.466 0 0 1 .083-.083l-.238.185a.426.426 0 0 1 .087-.052l-.281.119a.349.349 0 0 1 .084-.023l-.314.042a.275.275 0 0 1 .081 0l-.313-.042a.332.332 0 0 1 .062.016.887.887 0 0 0 .471.021.875.875 0 0 0 .438-.139c.257-.165.448-.414.542-.705l.042-.313c0-.209-.055-.415-.161-.595l-.185-.238a1.17 1.17 0 0 0-.521-.303l.002-.002Z"/><path fill="#D89D35" d="M289.126 462.478a27.758 27.758 0 0 0 17.732 1.553c1.473-.361.849-2.635-.627-2.273a25.1 25.1 0 0 1-15.915-1.315 1.218 1.218 0 0 0-1.613.423 1.185 1.185 0 0 0 .423 1.612ZM376.565 386.753a7.397 7.397 0 0 0 .573 5.019c.331.559 1.05.748 1.613.423a1.21 1.21 0 0 0 .423-1.613c-.037-.075-.071-.151-.107-.227-.05-.104.106.268.009.017a6.257 6.257 0 0 1-.35-1.347l.042.314a6.304 6.304 0 0 1-.007-1.641l-.042.314c.03-.213.07-.424.12-.633a1.18 1.18 0 0 0-2.273-.626h-.001Z"/><path fill="#190000" d="M267.558 308.207c.004.267-.015.528-.036.794-.012.162.051-.297.003-.024l-.03.165a6.32 6.32 0 0 1-.091.408 8.332 8.332 0 0 1-.249.755c-.055.151.122-.262.004-.012l-.071.151a6.535 6.535 0 0 1-.603 1.004c-.159.225.11-.128.006-.006-.045.053-.088.109-.133.161a6.135 6.135 0 0 1-.554.569c-.061.055-.266.17-.286.244.021-.074.177-.13.006-.007a6.206 6.206 0 0 1-.528.34 1.178 1.178 0 0 0 1.19 2.035 7.585 7.585 0 0 0 3.73-6.577 1.179 1.179 0 1 0-2.357 0h-.001Z"/><path fill="#E84B23" d="m435.886 336.078-1.312.655a1.136 1.136 0 0 0-.563 1.175.876.876 0 0 0 .14.438c.156.265.408.459.704.541l.314.043c.209 0 .414-.056.595-.161l1.311-.655c.416-.235.641-.704.563-1.175a.876.876 0 0 0-.14-.438 1.189 1.189 0 0 0-.704-.542l-.314-.042a1.17 1.17 0 0 0-.594.161Z"/><path fill="#D89D35" d="M258.433 400.771a10.698 10.698 0 0 1-.228 12.448 1.218 1.218 0 0 0 0 1.667 1.187 1.187 0 0 0 1.667 0 13.064 13.064 0 0 0 .597-15.305c-.861-1.236-2.905-.059-2.036 1.19Z"/></g><rect width="30.36" height="54.924" x="382.707" y="323.792" fill="#2976DF" rx="6.026"/><mask id="z" width="32" height="56" x="382" y="323" maskUnits="userSpaceOnUse" style="mask-type:luminance"><rect width="30.36" height="54.924" x="382.707" y="323.792" fill="#fff" rx="6.026"/></mask><g mask="url(#z)"><path fill="#1665C4" d="M393.831 358.691c8.079 14.961 5.39 25.008 5.39 25.008h14.1l2.139-26.083h-26.997"/></g><rect width="8.171" height="10.078" x="386.612" y="329.335" fill="#589BF7" rx="1.888"/><path stroke="#3A3530" stroke-linecap="round" stroke-linejoin="round" stroke-width="1.342" d="M400.83 357.616s9.843 15.117 2.125 31.934"/><path fill="#589BF7" d="M394.783 394.464h6.047v98.228h-6.047z"/><mask id="A" width="7" height="99" x="394" y="394" maskUnits="userSpaceOnUse" style="mask-type:luminance"><path fill="#fff" d="M394.783 394.464h6.047v98.228h-6.047z"/></mask><g mask="url(#A)"><path fill="#2976DF" d="M393.353 429.561c1.503-13.084 9.009-13.79 9.009-13.79l.593-7.392-12.699 1.949"/></g><rect width="10.298" height="10.298" x="392.657" y="406.179" fill="#F0F3FC" rx="2.199"/><path fill="#F0F3FC" fill-rule="evenodd" d="M355.644 333.621a45.635 45.635 0 0 1 87.798 17.464 45.637 45.637 0 1 1-87.798-17.464Zm8.803 31.282a36.106 36.106 0 0 0 33.359 22.29c19.942 0 36.108-16.166 36.108-36.108a36.107 36.107 0 1 0-69.467 13.818Z" clip-rule="evenodd"/><mask id="B" width="92" height="92" x="352" y="305" maskUnits="userSpaceOnUse" style="mask-type:luminance"><path fill="#fff" fill-rule="evenodd" d="M397.806 305.449a45.635 45.635 0 0 0-42.162 28.172 45.637 45.637 0 1 0 42.162-28.172Zm0 81.744a36.107 36.107 0 1 1 13.818-69.467 36.106 36.106 0 0 1 22.29 33.359c0 19.942-16.166 36.108-36.108 36.108Z" clip-rule="evenodd"/></mask><g mask="url(#B)"><path fill="#D6DCF2" d="M428.234 362.529c19.56 5.254 34.556-7.433 34.556-7.433l-19.348 33.192-22.705-14.705"/></g><rect width="35.021" height="10.96" x="380.44" y="349.617" fill="#9A7ED9" rx="1.234"/><circle cx="400.83" cy="354.215" r="8.314" fill="#6F4EB9"/><path fill="#1665C4" d="m403.519 338.423-1.624 2.612a.666.666 0 0 0 .236.902.673.673 0 0 0 .902-.236l1.624-2.612a.666.666 0 0 0-.236-.902.673.673 0 0 0-.902.236Z"/><path fill="#2976DF" d="m399.732 452.404-.652.652a.679.679 0 0 0 0 .932.668.668 0 0 0 .467.193l.175-.024c.11-.03.21-.088.291-.169l.652-.652a.679.679 0 0 0 0-.932.66.66 0 0 0-.466-.193l-.176.023a.666.666 0 0 0-.291.17Z"/><path fill="#F0F3FC" d="M84.96 337.163h5.61v150.53h-5.61z"/><mask id="C" width="7" height="151" x="84" y="337" maskUnits="userSpaceOnUse" style="mask-type:luminance"><path fill="#fff" d="M84.96 337.163h5.61v150.53h-5.61z"/></mask><g mask="url(#C)"><path fill="#D6DCF2" d="M92.606 376.911c-29.192 2.206-1.258 30.159 0 31.407 1.258 1.249 14.368-22.259 14.368-22.259l-2.96-10.385"/></g><path fill="#F0F3FC" d="m91.605 306.94 5.422 1.246-7.055 30.699-5.422-1.246z"/><circle cx="87.368" cy="336.164" r="6.513" fill="#2976DF"/><path fill="#3A3530" d="m81.357 488.705-.564-.233a356.007 356.007 0 0 0 13.072-39.318c7.232-27.43 7.646-46.599 1.197-55.434-5.079-6.957-15.312-12.657-25.208-18.17-13.423-7.478-26.103-14.541-26.817-24.493-.47-6.555 4.41-13.637 14.919-21.649l.37.485c-10.333 7.878-15.134 14.787-14.68 21.121.69 9.621 13.23 16.607 26.505 24.002 9.954 5.545 20.246 11.279 25.404 18.344 6.655 9.118 6.285 27.944-1.101 55.956a356.812 356.812 0 0 1-13.097 39.389Z"/><path fill="#9A7ED9" d="m58.345 331.397 10.698-5.042a1.482 1.482 0 0 0 .665-2.051l-.727-1.317a1.477 1.477 0 0 0-2.089-.533l-9.972 6.36a1.478 1.478 0 0 0 1.425 2.583Z"/><ellipse cx="73.646" cy="321.869" fill="#589BF7" rx="7.039" ry="8.797" transform="rotate(-28.88 73.646 321.869)"/><rect width="55.175" height="20.435" x="127.491" y="303.836" fill="#9A7ED9" rx="3.92" transform="rotate(151.12 127.491 303.836)"/><rect width="48.268" height="22.777" x="119.239" y="309.725" fill="#589BF7" rx="3.912" transform="rotate(151.12 119.239 309.725)"/><mask id="D" width="51" height="41" x="67" y="291" maskUnits="userSpaceOnUse" style="mask-type:luminance"><rect width="48.268" height="22.777" x="119.239" y="309.725" fill="#fff" rx="3.912" transform="rotate(151.12 119.239 309.725)"/></mask><g mask="url(#D)"><path fill="#2976DF" d="M91.336 303.95c-4.691-1.787 8.827 16.238-1.687 25.251-10.514 9.012 13.518 9.012 15.02 7.509 1.502-1.502 3.005-28.539 3.005-28.539"/></g><path fill="#935738" d="m121.391 309.933-17.21 9.493a4.435 4.435 0 0 1-6.026-1.741l-7.897-14.317a4.434 4.434 0 0 1 1.741-6.025l17.211-9.493c5.536-3.054 12.499-1.042 15.553 4.494l1.123 2.037c3.054 5.536 1.041 12.499-4.495 15.553v-.001Z"/><mask id="E" width="39" height="34" x="89" y="286" maskUnits="userSpaceOnUse" style="mask-type:luminance"><path fill="#fff" fill-rule="evenodd" d="m121.391 309.933-17.21 9.493a4.435 4.435 0 0 1-6.026-1.741l-7.897-14.317a4.434 4.434 0 0 1 1.741-6.025l17.211-9.493c5.536-3.054 12.499-1.042 15.553 4.494l1.123 2.037c3.054 5.536 1.041 12.499-4.495 15.553v-.001Z" clip-rule="evenodd"/></mask><g mask="url(#E)"><path fill="#6D3417" d="M115.318 286.447c17.665 7.241 4.131 30.3 4.131 30.3l13.851-11.429-9.304-22.838-16.282 3.701"/></g><rect width="4.087" height="28.885" x="104.759" y="321.201" fill="#9A7ED9" rx="2.044" transform="rotate(151.12 104.759 321.201)"/><path fill="#6D3417" d="M106.968 299.327v2.537a.57.57 0 1 0 1.14 0v-2.537a.57.57 0 1 0-1.14 0Z"/><path fill="#2976DF" d="m78.245 318.633-1.106 4.235a.57.57 0 0 0 1.1.302l1.105-4.235a.57.57 0 1 0-1.1-.302Z"/><path fill="#D6DCF2" d="m88.622 424.392.275.848a.601.601 0 0 0 .262.341.421.421 0 0 0 .212.067.428.428 0 0 0 .227-.01.571.571 0 0 0 .398-.701l-.274-.848a.603.603 0 0 0-.262-.341.42.42 0 0 0-.212-.067.438.438 0 0 0-.228.01.571.571 0 0 0-.398.701Z"/><rect width="377.773" height="25.986" x="43.006" y="479.909" fill="#9A7ED9" rx="12.993"/><mask id="F" width="378" height="27" x="43" y="479" maskUnits="userSpaceOnUse" style="mask-type:luminance"><rect width="377.773" height="25.986" x="43.006" y="479.909" fill="#fff" rx="12.993"/></mask><g mask="url(#F)"><path fill="#6F4EB9" d="M49.42 526.296c-30.316-45.041 382.289-27.61 394.022-32.827 11.734-5.218 41.501 65.792-9.528 71.096-51.028 5.304-293.549 7.698-293.549 7.698"/></g></svg>