<svg xmlns="http://www.w3.org/2000/svg" width="272" height="340" fill="none"><path fill="#FEC094" d="M0 0h272v340H0z"/><mask id="a" width="256" height="192" x="8" y="76" maskUnits="userSpaceOnUse" style="mask-type:luminance"><path fill="#fff" d="M8 76h255.242v191.431H8z"/></mask><path fill="#FFC562" d="m195.793 173.471 3.267 3.143c.358.305.537.772.472 1.238l-.758 4.596c-.069.4.054.808.333 1.102.402.434 1.046.54 1.566.26l2.583-1.38 1.527-.815c.714-.382 1.362.07 1.993.396l3.357 1.737a1.302 1.302 0 0 0 1.881-1.386l-.103-.577-.595-3.34c-.116-.649-.28-1.304.248-1.825l.8-.79 2.515-2.483a1.3 1.3 0 0 0-.737-2.218l-2.413-.334-2.201-.306a1.303 1.303 0 0 1-.986-.706l-1.968-3.923-.121-.241a1.298 1.298 0 0 0-2.336.015l-1.544 3.179-.491 1.012c-.324.667-.997.722-1.649.821l-3.354.51-.579.088a1.304 1.304 0 0 0-.707 2.227Z"/><mask id="b" width="21" height="20" x="195" y="164" maskUnits="userSpaceOnUse" style="mask-type:luminance"><path fill="#fff" fill-rule="evenodd" d="m195.793 173.471 3.267 3.143c.358.305.537.772.472 1.238l-.758 4.596c-.069.4.054.808.333 1.102.402.434 1.046.54 1.566.26l2.583-1.38 1.527-.815c.714-.382 1.362.07 1.993.396l3.357 1.737a1.302 1.302 0 0 0 1.881-1.386l-.103-.577-.595-3.34c-.116-.649-.28-1.304.248-1.825l.8-.79 2.515-2.483a1.3 1.3 0 0 0-.737-2.218l-2.413-.334-2.201-.306a1.303 1.303 0 0 1-.986-.706l-1.968-3.923-.121-.241a1.298 1.298 0 0 0-2.336.015l-1.544 3.179-.491 1.012c-.324.667-.997.722-1.649.821l-3.354.51-.579.088a1.304 1.304 0 0 0-.707 2.227Z" clip-rule="evenodd"/></mask><g fill="#D89D35" mask="url(#b)"><path d="m198.172 187.312 6.611-5.697s1.04-3.598 5.351 2.133c4.311 5.73-1.25 3.623-1.25 3.623M195.392 170.981c7.814-.409 9.637.193 8.725-5.347-.911-5.54-8.725-.096-8.725-.096"/></g><path fill="#D89D35" d="m208.139 175.565-.829.928a.127.127 0 0 0 0 .176.127.127 0 0 0 .177 0l.829-.928a.127.127 0 0 0 0-.176.127.127 0 0 0-.177 0Z"/><path fill="#FF999A" d="m193.521 148.894-2.608-1.503-.233-.134a31.103 31.103 0 0 1-10.195-9.453l-.023-.034-1.831-2.685a71.183 71.183 0 0 1 2.552-2.199l.183-.149a3.74 3.74 0 0 1 4.884.175l3.667 3.4 5.196 4.818a3.738 3.738 0 0 1 .543 4.857c-.118.173-.241.342-.362.513a67.857 67.857 0 0 1-1.773 2.394Z"/><path fill="#FE7578" d="M180.427 161.159a3.738 3.738 0 0 1-2.983-.972l-1.398-1.297-3.475-3.221-3.082-2.857-.89-.825a3.74 3.74 0 0 1-.537-4.866c.188-.273.384-.54.577-.81a68.696 68.696 0 0 1 4.57-5.744 69.292 69.292 0 0 1 5.422-5.481l1.361 1.996.493.723a31.034 31.034 0 0 0 10.254 9.486l2.782 1.603a69.297 69.297 0 0 1-5.045 5.829 69.85 69.85 0 0 1-5.663 5.239c-.16.132-.318.266-.479.395a3.724 3.724 0 0 1-1.907.802Z"/><mask id="c" width="27" height="27" x="167" y="135" maskUnits="userSpaceOnUse" style="mask-type:luminance"><path fill="#fff" fill-rule="evenodd" d="M180.427 161.159a3.738 3.738 0 0 1-2.983-.972l-1.398-1.297-3.475-3.221-3.082-2.857-.89-.825a3.74 3.74 0 0 1-.537-4.866c.188-.273.384-.54.577-.81a68.696 68.696 0 0 1 4.57-5.744 69.292 69.292 0 0 1 5.422-5.481l1.361 1.996.493.723a31.034 31.034 0 0 0 10.254 9.486l2.782 1.603a69.297 69.297 0 0 1-5.045 5.829 69.85 69.85 0 0 1-5.663 5.239c-.16.132-.318.266-.479.395a3.724 3.724 0 0 1-1.907.802Z" clip-rule="evenodd"/></mask><g fill="#E55A61" mask="url(#c)"><path d="M166.447 148.81c15.428 13.365 17.689 9.108 21.336 6.677 3.648-2.43-2.503 8.421-2.503 8.421s-6.309 1.12-6.688 1.036c-.379-.084-13.666-11.995-13.666-11.995l-1.108-1.12M185.43 148.193a4.553 4.553 0 1 1-.333-9.1 4.553 4.553 0 0 1 .333 9.1Z"/></g><path fill="#FFC562" d="M185.63 147.227a4.571 4.571 0 1 1-.339-9.134 4.571 4.571 0 0 1 .339 9.134Z"/><path fill="#FF9763" d="M185.58 145.891a3.22 3.22 0 1 1-.237-6.434 3.22 3.22 0 0 1 .237 6.434Z"/><path fill="#FE7578" d="M191.747 141.729a.95.95 0 0 1 .212 1.106.143.143 0 0 0 .05.191.141.141 0 0 0 .191-.05 1.234 1.234 0 0 0-.256-1.444c-.133-.121-.331.076-.198.197h.001Z"/><path fill="#E55A61" d="M173.295 148.875c.02.937.468 1.814 1.216 2.379.144.108.283-.135.141-.242a2.763 2.763 0 0 1-1.077-2.137.14.14 0 0 0-.28 0Z"/><circle cx="185.776" cy="104.594" r="18.131" fill="#589BF7"/><path fill="#E84B23" d="M186.692 91.705h.52c.471 0 .853.382.853.853v7.512h-4.578v-5.16a3.205 3.205 0 0 1 3.205-3.205Z"/><mask id="d" width="6" height="10" x="183" y="91" maskUnits="userSpaceOnUse" style="mask-type:luminance"><path fill="#fff" fill-rule="evenodd" d="M186.692 91.705h.52c.471 0 .853.382.853.853v7.512h-4.578v-5.16a3.205 3.205 0 0 1 3.205-3.205Z" clip-rule="evenodd"/></mask><g mask="url(#d)"><ellipse cx="184.092" cy="91.044" fill="#FF9763" rx="3.973" ry="2.628"/></g><rect width="6.068" height="9.448" x="182.742" y="98.943" fill="#97CC64" rx="1.756"/><mask id="e" width="7" height="11" x="182" y="98" maskUnits="userSpaceOnUse" style="mask-type:luminance"><rect width="6.068" height="9.448" x="182.742" y="98.943" fill="#fff" rx="1.756"/></mask><g mask="url(#e)"><path fill="#75AA3C" d="M182.742 104.159c-.414.721 8.116 1.576 7.54 1.892-.576.316-7.54 1.632-7.54 1.632l-1.487-1.632"/></g><rect width="7.861" height="11.824" x="181.845" y="105.66" fill="#EFF3FC" rx="1.756"/><path fill="#3A3530" d="M181.845 107.938h7.861v8.748a.798.798 0 0 1-.798.798h-6.265a.796.796 0 0 1-.798-.798v-8.748Z"/><mask id="f" width="9" height="11" x="181" y="107" maskUnits="userSpaceOnUse" style="mask-type:luminance"><path fill="#fff" fill-rule="evenodd" d="M181.845 107.938h7.861v8.748a.798.798 0 0 1-.798.798h-6.265a.796.796 0 0 1-.798-.798v-8.748Z" clip-rule="evenodd"/></mask><g mask="url(#f)"><path fill="#190000" d="M181.445 113.857c2.588 4.834 9.342 2.84 9.089 3.627-.252.787-8.143.925-8.143.925l-2.272-1.924"/></g><path fill="#75AA3C" d="m186.644 101.157-.505.397a.142.142 0 0 0-.043.103.146.146 0 0 0 .146.146.165.165 0 0 0 .103-.043l.505-.397a.142.142 0 0 0 .043-.103.146.146 0 0 0-.146-.146.165.165 0 0 0-.103.043Z"/><path fill="#BF290C" d="m185.855 94.341-1.151.628c-.166.09-.018.343.147.252l1.151-.628c.165-.09.018-.342-.147-.252Z"/><path fill="#190000" d="m184.283 113.874.379.198a.156.156 0 0 0 .112.015.148.148 0 0 0 .107-.122.148.148 0 0 0-.072-.146l-.379-.197a.146.146 0 0 0-.219.107.148.148 0 0 0 .072.145Z"/><circle cx="101.859" cy="111.622" r="26.337" fill="#9A7ED9"/><rect width="14.063" height="31.36" x="94.828" y="98.825" fill="#589BF7" rx="3.962"/><path fill="#FFC562" d="M98.403 93.059h6.913a1.632 1.632 0 0 1 1.632 1.632v4.133H96.771v-4.133a1.632 1.632 0 0 1 1.632-1.632Z"/><mask id="g" width="11" height="6" x="96" y="93" maskUnits="userSpaceOnUse" style="mask-type:luminance"><path fill="#fff" fill-rule="evenodd" d="M98.403 93.059h6.913a1.632 1.632 0 0 1 1.632 1.632v4.133H96.771v-4.133a1.632 1.632 0 0 1 1.632-1.632Z" clip-rule="evenodd"/></mask><g mask="url(#g)"><path fill="#D89D35" d="M98.445 98.824c-.602-.806 8.686-.016 8.723-3.362.037-3.347 2.181 4.324 2.181 4.324l-6.204 1.353"/></g><rect width="9.507" height="2.407" x="97.106" y="105.868" fill="#2976DF" rx="1.203"/><rect width="5.715" height=".677" x="99.002" y="109.955" fill="#2976DF" rx=".338"/><path fill="#2976DF" d="M96.561 124.168h10.597v.526H96.561z"/><path fill="#D89D35" d="m100.058 96.025-.3.2a.139.139 0 0 0-.06.079.13.13 0 0 0 .192.148l.3-.2a.132.132 0 0 0 .047-.18.13.13 0 0 0-.179-.047Z"/><path fill="#2976DF" d="m103.527 119.595.902-1.003a.133.133 0 0 0 0-.185.133.133 0 0 0-.185 0l-.903 1.003a.135.135 0 0 0 0 .185c.052.05.134.05.186 0Z"/><path fill="#7B5CB7" d="M98.52 127.559a.131.131 0 0 0 0-.262.131.131 0 0 0 0 .262Z"/><circle cx="48.892" cy="161.293" r="20.189" fill="#97CC64"/><path fill="#935738" d="M46.815 169.203h4.155v4.873c0 .29-.236.526-.526.526h-3.103a.526.526 0 0 1-.526-.526v-4.873Z"/><mask id="h" width="5" height="6" x="46" y="169" maskUnits="userSpaceOnUse" style="mask-type:luminance"><path fill="#fff" fill-rule="evenodd" d="M46.815 169.203h4.155v4.873c0 .29-.236.526-.526.526h-3.103a.526.526 0 0 1-.526-.526v-4.873Z" clip-rule="evenodd"/></mask><g mask="url(#h)"><path fill="#6D3417" d="M46.502 171.902c.767-1.242-.917 2.506 3.942 2.7 4.858.194-4.536 1.004-4.536 1.004l-.972-1.853"/></g><path fill="#F0F3FC" d="M53.373 149.208h-8.96l2.4 20.012h4.158l2.402-20.012Z"/><mask id="i" width="10" height="21" x="44" y="149" maskUnits="userSpaceOnUse" style="mask-type:luminance"><path fill="#fff" fill-rule="evenodd" d="M53.373 149.208h-8.96l2.4 20.012h4.158l2.402-20.012Z" clip-rule="evenodd"/></mask><g mask="url(#i)"><path fill="#D6DCF2" d="M44.921 157c.933-3.369.258 12.289 6.048 13.854 5.791 1.565-9.164 1.363-9.164 1.363l-.054-5.691"/></g><path fill="#D6DCF2" d="M44.412 147.984h8.96v1.224h-8.96zM48.536 151.562a19.766 19.766 0 0 1-1.82 1.544c-.105.078-.002.258.105.178a19.998 19.998 0 0 0 1.861-1.576c.096-.092-.05-.239-.146-.146ZM50.532 161.387l-.162.162a.103.103 0 0 0 0 .146.11.11 0 0 0 .073.031.111.111 0 0 0 .074-.031l.162-.162a.103.103 0 0 0 0-.146.102.102 0 0 0-.147 0Z"/><path fill="#6D3417" d="M48.42 172.411c.348-.082.683-.212.996-.387.117-.065.012-.244-.104-.179-.297.166-.616.29-.948.367-.13.03-.075.23.055.199Z"/><path fill="#FFC562" d="M220.97 147.568a2.167 2.167 0 0 0-2.568-.201.312.312 0 0 0-.043.046l-2.672 3.319c-.01.013-.081-.032-.09-.044a9.271 9.271 0 0 0-2.853-2.685l-.004-.001a2.078 2.078 0 0 0-2.925.13 2.044 2.044 0 0 0 .297 2.71l-.001.001c2.623 2.614 1.913 5.248 1.719 5.813-.001.004-.005.006-.007.009a.54.54 0 0 0-.064.079l-1.643 2.041a.747.747 0 0 0 .175 1.042l7.113 5.728a.718.718 0 0 0 1.032-.07l7.573-9.406a1.83 1.83 0 0 0 .13-.161 1.9 1.9 0 0 0 .147-2.089c-.148-.299-4.872-5.792-4.872-5.792l.001-.001a2.358 2.358 0 0 0-.195-.229l-.021-.025-.002-.001a2.393 2.393 0 0 0-.227-.212"/><mask id="j" width="18" height="19" x="209" y="147" maskUnits="userSpaceOnUse" style="mask-type:luminance"><path fill="#fff" fill-rule="evenodd" d="M220.97 147.568a2.167 2.167 0 0 0-2.568-.201.312.312 0 0 0-.043.046l-2.672 3.319c-.01.013-.081-.032-.09-.044a9.271 9.271 0 0 0-2.853-2.685l-.004-.001a2.078 2.078 0 0 0-2.925.13 2.044 2.044 0 0 0 .297 2.71l-.001.001c2.623 2.614 1.913 5.248 1.719 5.813-.001.004-.005.006-.007.009a.54.54 0 0 0-.064.079l-1.643 2.041a.747.747 0 0 0 .175 1.042l7.113 5.728a.718.718 0 0 0 1.032-.07l7.573-9.406a1.83 1.83 0 0 0 .13-.161 1.9 1.9 0 0 0 .147-2.089c-.148-.299-4.872-5.792-4.872-5.792l.001-.001a2.358 2.358 0 0 0-.195-.229l-.021-.025-.002-.001a2.393 2.393 0 0 0-.227-.212" clip-rule="evenodd"/></mask><g fill="#D89D35" mask="url(#j)"><path d="M214.223 159.607c-.079-2.286 5.778 4.35 10.549-1.002 4.77-5.352-5.721 11.567-5.721 11.567l-4.111-5.935M213.943 148.036l1.744 2.695c.34.434.505.979.463 1.528.051 1.168 2.252-4.892 2.252-4.892l-2.045.278"/></g><rect width="6.131" height="12.569" x="207.081" y="160.534" fill="#FE7578" rx="1.453" transform="rotate(-51.16 207.081 160.534)"/><mask id="k" width="14" height="12" x="207" y="156" maskUnits="userSpaceOnUse" style="mask-type:luminance"><rect width="6.131" height="12.569" x="207.081" y="160.534" fill="#fff" rx="1.453" transform="rotate(-51.16 207.081 160.534)"/></mask><g mask="url(#k)"><path fill="#E55A61" d="M212.316 165.071c-4.546-2.957-4.937-5.052-2.91-7.423 2.026-2.372-4.975 4.192-4.975 4.192l1.107 1.782"/></g><circle cx="211.459" cy="160.123" r="1.022" fill="#EFF3FC"/><path fill="#FFC562" d="M216.023 153.063c.584-.848-.612-2.629-.612-2.629l.612 2.629Z"/><path fill="#D89D35" d="M219.674 151.221c.37.579.602 1.236.678 1.919.015.133.226.135.211 0a4.731 4.731 0 0 0-.706-2.026c-.073-.114-.256-.008-.183.107Z"/><path fill="#E55A61" d="M215.683 163.159a2.617 2.617 0 0 0 1.791.895c.136.01.135-.201 0-.211a2.41 2.41 0 0 1-1.642-.833c-.088-.104-.237.046-.149.149Z"/><path fill="#FF9763" d="M213.975 196.462a1.703 1.703 0 0 0-1.904-.687.219.219 0 0 0-.041.026l-2.716 1.958c-.01.008-.054-.041-.059-.052a7.291 7.291 0 0 0-1.602-2.628l-.003-.002a1.633 1.633 0 0 0-2.243-.51 1.604 1.604 0 0 0-.339 2.115h-.001a4.398 4.398 0 0 1 .092 4.762l-.007.005a.37.37 0 0 0-.065.047l-1.67 1.204a.587.587 0 0 0-.084.826l4.196 5.82a.567.567 0 0 0 .796.162l7.696-5.549a1.38 1.38 0 0 0 .132-.095c.476-.361.691-.972.546-1.552-.05-.257-2.485-5.403-2.485-5.403h.001a2.075 2.075 0 0 0-.099-.214l-.011-.023-.002-.002a1.922 1.922 0 0 0-.128-.207"/><mask id="l" width="14" height="16" x="203" y="194" maskUnits="userSpaceOnUse" style="mask-type:luminance"><path fill="#fff" fill-rule="evenodd" d="M213.975 196.462a1.703 1.703 0 0 0-1.904-.687.219.219 0 0 0-.041.026l-2.716 1.958c-.01.008-.054-.041-.059-.052a7.291 7.291 0 0 0-1.602-2.628l-.003-.002a1.633 1.633 0 0 0-2.243-.51 1.604 1.604 0 0 0-.339 2.115h-.001a4.398 4.398 0 0 1 .092 4.762l-.007.005a.37.37 0 0 0-.065.047l-1.67 1.204a.587.587 0 0 0-.084.826l4.196 5.82a.567.567 0 0 0 .796.162l7.696-5.549a1.38 1.38 0 0 0 .132-.095c.476-.361.691-.972.546-1.552-.05-.257-2.485-5.403-2.485-5.403h.001a2.075 2.075 0 0 0-.099-.214l-.011-.023-.002-.002a1.922 1.922 0 0 0-.128-.207" clip-rule="evenodd"/></mask><g mask="url(#l)"><path fill="#E84B23" d="M206.52 204.4c.088-1.763 4.625 4.058 8.035 1.599 3.41-2.459-5.084 5.365-5.084 5.365l-2.658-4.201"/></g><rect width="4.817" height="9.875" x="200.754" y="203.393" fill="#589BF7" rx="1.142" transform="rotate(-35.792 200.754 203.393)"/><mask id="m" width="9" height="10" x="201" y="201" maskUnits="userSpaceOnUse" style="mask-type:luminance"><rect width="4.817" height="9.875" x="200.754" y="203.393" fill="#fff" rx="1.142" transform="rotate(-35.792 200.754 203.393)"/></mask><g mask="url(#m)"><path fill="#2976DF" d="M203.396 207.575c-2.986-4.599-.002-5.751.845-6.696.847-.946-4.524 1.076-4.524 1.076l-.167 1.112 1.157 2.423"/></g><circle cx="204.156" cy="203.992" r=".803" fill="#EFF3FC"/><path fill="#E84B23" d="M212.86 201.531a3.385 3.385 0 0 1-.342 2.195c-.051.097.096.183.148.086a3.575 3.575 0 0 0 .359-2.326c-.02-.108-.185-.063-.165.046v-.001Z"/><path fill="#2976DF" d="m205.079 207.627.282.391c.025.04.076.054.117.031a.086.086 0 0 0 .031-.117l-.283-.392a.088.088 0 0 0-.117-.03.086.086 0 0 0-.03.117Z"/><path fill="#9A7ED9" d="M94.22 213.516c-11.337 3.405-7.562 12.596-7.562 12.596s13.543 16.857 18.792 9.44c6.232-7.085 14.321-39.571 14.321-39.571s-.186-24.778-6.944-22.342c-10.968 3.953-16.022 41.665-16.022 41.665l-2.586-1.788Z"/><mask id="n" width="34" height="65" x="86" y="173" maskUnits="userSpaceOnUse" style="mask-type:luminance"><path fill="#fff" fill-rule="evenodd" d="M94.22 213.516c-11.337 3.405-7.562 12.596-7.562 12.596s13.543 16.857 18.792 9.44c6.232-7.085 14.321-39.571 14.321-39.571s-.186-24.778-6.944-22.342c-10.968 3.953-16.022 41.665-16.022 41.665l-2.586-1.788Z" clip-rule="evenodd"/></mask><g fill="#6F4EB9" mask="url(#n)"><path d="M111.47 191.9c-10.658-2.941 4.651 37.331-8.557 45.972-13.209 8.64 18.976 3.357 18.976 3.357l.232-35.781M96.46 195.314a1.146 1.146 0 0 0-.87.114l-.23.177a1.125 1.125 0 0 0-.266.456l.005-.011c-.12.264-.267.515-.44.748a4.037 4.037 0 0 1-.593.594 1.26 1.26 0 0 0-.331.799c.002.299.12.585.33.799.213.211.5.33.8.33l.3-.04c.189-.052.36-.152.499-.29a5.052 5.052 0 0 0 1.585-2.286.852.852 0 0 0 .02-.45.841.841 0 0 0-.134-.42 1.155 1.155 0 0 0-.675-.52ZM86.29 186.172a1.089 1.089 0 0 0-1.125-.54.847.847 0 0 0-.42.134l-.229.177c-.138.138-.238.31-.29.498l-.04.301c0 .2.052.397.154.57l.318.636c.224.399.674.614 1.125.539a.827.827 0 0 0 .42-.134l.229-.176c.138-.138.238-.31.29-.499l.04-.3c0-.201-.052-.397-.154-.57l-.318-.636ZM98.027 204.946a1.089 1.089 0 0 0-1.125-.54.847.847 0 0 0-.42.134l-.229.177c-.138.138-.238.31-.29.498l-.04.301c-.001.2.052.397.153.57l.319.636c.224.399.674.614 1.125.54a.847.847 0 0 0 .42-.134l.228-.177c.139-.138.24-.31.291-.499l.04-.3c0-.2-.052-.397-.154-.57l-.318-.636Z"/><path d="m101.912 230.475-.229-.177a1.131 1.131 0 0 0-.57-.154l-.301.04c-.188.052-.36.153-.498.291l-1.06.848a1.163 1.163 0 0 0 0 1.598l.229.176c.172.102.37.155.57.155l.3-.041c.189-.052.36-.152.498-.29l1.061-.848a1.163 1.163 0 0 0 0-1.598ZM99.208 221.215c.219.201.502.318.799.33l.3-.04c.189-.052.36-.152.499-.29l.176-.229c.101-.173.155-.37.155-.571v-.53a1.16 1.16 0 0 0-1.13-1.129l-.3.04c-.19.052-.36.152-.5.29l-.176.229c-.101.173-.154.37-.154.571v.53c.013.297.13.58.33.799ZM118.107 215.917l-.742-2.862a1.13 1.13 0 0 0-2.179.601l.742 2.863a1.13 1.13 0 0 0 2.179-.601v-.001ZM108.291 194.162a8.278 8.278 0 0 1-.902-1.522 1.131 1.131 0 0 0-.675-.519 1.154 1.154 0 0 0-.87.114c-.254.149-.44.391-.519.675l-.041.3c0 .201.053.397.155.57a8.996 8.996 0 0 0 2.193 2.984c.215.206.5.324.799.331a1.13 1.13 0 0 0 .799-1.929 8.337 8.337 0 0 1-.939-1.004Z"/></g><path fill="#9A7ED9" d="M110.262 190.852c-.29 23.608 11.974 42.242 7.57 61.931 23.275 10.202 66.061 3.689 58.09-6.832-7.971-10.522-.831-68.683-2.107-72.481-1.275-3.797-27.848-19.652-60.988.169"/><mask id="o" width="67" height="95" x="110" y="163" maskUnits="userSpaceOnUse" style="mask-type:luminance"><path fill="#fff" fill-rule="evenodd" d="M110.262 190.852c-.29 23.608 11.974 42.242 7.57 61.931 23.275 10.202 66.061 3.689 58.09-6.832-7.971-10.522-.831-68.683-2.107-72.481-1.275-3.797-27.848-19.652-60.988.169" clip-rule="evenodd"/></mask><g mask="url(#o)"><path fill="#6F4EB9" d="M111.929 193.184a1.146 1.146 0 0 0-1.546.405 12.65 12.65 0 0 0-1.275 3.863c-.07.294-.03.603.113.87a1.131 1.131 0 0 0 2.065-.27c.141-.913.389-1.806.739-2.661.098-.223.198-.445.309-.661a1.15 1.15 0 0 0-.405-1.546ZM129.897 209.599a1.146 1.146 0 0 0-1.546.405 12.662 12.662 0 0 0-1.275 3.862c-.07.294-.029.604.114.87a1.128 1.128 0 0 0 1.546.406c.257-.146.444-.39.519-.676.141-.912.389-1.806.738-2.66.098-.223.198-.445.309-.662a1.15 1.15 0 0 0-.405-1.545ZM133.28 225.9a1.146 1.146 0 0 0-1.546.405 12.67 12.67 0 0 0-1.275 3.862c-.07.295-.029.604.114.871a1.132 1.132 0 0 0 1.546.405c.257-.146.444-.389.519-.675.141-.913.389-1.806.738-2.661.098-.223.198-.445.309-.662a1.15 1.15 0 0 0-.405-1.545ZM126.298 183.153a8.068 8.068 0 0 0-.793-.672.847.847 0 0 0-.42-.134 1.16 1.16 0 0 0-1.125.54l-.114.269a1.135 1.135 0 0 0 0 .601l.114.27c.098.167.237.307.405.405l-.214-.165c.386.3.733.647 1.033 1.034l-.166-.214a1.09 1.09 0 0 0 1.126.54.85.85 0 0 0 .42-.134l.229-.177a1.13 1.13 0 0 0 .29-.499l.041-.3c0-.2-.053-.397-.155-.57a7.934 7.934 0 0 0-.671-.794ZM137.45 160.908c-.3-.004-.589.116-.799.331-.303.37-.573.766-.807 1.183a8.238 8.238 0 0 0-.567 1.321 1.13 1.13 0 0 0 1.66 1.276 1.24 1.24 0 0 0 .519-.675c.036-.11.08-.217.122-.325.208-.472.471-.917.783-1.328l-.107.139a1.25 1.25 0 0 0 .326-.792 1.15 1.15 0 0 0-.331-.799 1.138 1.138 0 0 0-.799-.331ZM142.905 180.832a1.145 1.145 0 0 0-.87.114l-.229.177a1.119 1.119 0 0 0-.266.456l.005-.011a3.399 3.399 0 0 1-1.034 1.342 1.258 1.258 0 0 0-.331.798c.003.3.121.586.331.799.213.212.5.33.799.331l.3-.04c.189-.052.361-.152.499-.291a5.046 5.046 0 0 0 1.585-2.285.85.85 0 0 0 .02-.45.841.841 0 0 0-.134-.421 1.152 1.152 0 0 0-.675-.519ZM116.676 175.607a1.136 1.136 0 0 0-.87.114l-.229.176a1.116 1.116 0 0 0-.266.457l.005-.012a4.1 4.1 0 0 1-.44.748 4.068 4.068 0 0 1-.594.594 1.257 1.257 0 0 0-.33.799c.002.299.12.586.33.799.213.211.5.33.799.331l.301-.041c.188-.052.36-.152.498-.29a5.044 5.044 0 0 0 1.585-2.286.85.85 0 0 0 .02-.45.84.84 0 0 0-.134-.42 1.148 1.148 0 0 0-.675-.519ZM161.316 170.715a1.146 1.146 0 0 0-.87.114l-.229.177a1.124 1.124 0 0 0-.266.456l.005-.011a3.396 3.396 0 0 1-1.033 1.342 1.253 1.253 0 0 0-.331.798c.002.299.121.586.331.799.212.211.499.33.799.331l.3-.04c.189-.052.36-.152.499-.291a5.036 5.036 0 0 0 1.584-2.285.853.853 0 0 0 .02-.451.833.833 0 0 0-.133-.419 1.148 1.148 0 0 0-.676-.52ZM151.148 161.572a1.09 1.09 0 0 0-1.126-.539.84.84 0 0 0-.42.134l-.228.177c-.139.138-.239.31-.291.498l-.04.3c-.001.201.053.398.154.571l.318.636c.224.398.674.614 1.125.539a.834.834 0 0 0 .42-.134l.229-.177c.138-.138.238-.31.29-.498l.041-.3c0-.201-.053-.398-.154-.571a94.217 94.217 0 0 1-.318-.636ZM162.884 180.346a1.088 1.088 0 0 0-1.126-.539.834.834 0 0 0-.419.134l-.229.177a1.119 1.119 0 0 0-.291.498l-.04.3c-.001.201.053.398.154.571l.318.636c.225.398.674.614 1.126.539a.834.834 0 0 0 .419-.134l.229-.177c.138-.138.239-.31.29-.498l.041-.3c0-.201-.053-.398-.154-.571l-.318-.636ZM146.411 206.724l-.53-.424a1.16 1.16 0 0 0-1.597 0l-.177.229a1.109 1.109 0 0 0-.154.57l.04.3c.052.189.152.36.291.499l.53.424a1.162 1.162 0 0 0 1.597 0l.177-.229c.101-.173.155-.37.154-.57l-.04-.301a1.124 1.124 0 0 0-.291-.498ZM166.769 205.876l-.229-.177a1.121 1.121 0 0 0-.57-.154l-.301.04c-.188.052-.36.152-.498.291l-1.06.848a1.163 1.163 0 0 0 0 1.598l.228.176c.173.101.37.155.571.155l.3-.041c.188-.052.36-.152.498-.29l1.061-.849a1.162 1.162 0 0 0 0-1.597ZM164.065 196.615c.219.201.502.319.799.331l.3-.04c.188-.052.36-.152.498-.291l.177-.229c.101-.173.155-.37.154-.57v-.53a1.16 1.16 0 0 0-1.129-1.13l-.301.041c-.188.052-.36.152-.498.29l-.177.229c-.101.173-.154.37-.154.57v.53c.012.297.13.58.331.799ZM173.148 169.563a8.286 8.286 0 0 1-.902-1.523 1.135 1.135 0 0 0-.675-.519 1.154 1.154 0 0 0-.87.114 1.14 1.14 0 0 0-.519.675l-.041.301c0 .2.053.397.154.57a9.013 9.013 0 0 0 2.194 2.984c.215.206.5.324.799.33a1.131 1.131 0 0 0 .799-1.928 8.337 8.337 0 0 1-.939-1.004ZM135.183 247.581a1.146 1.146 0 0 0-1.546.405 12.67 12.67 0 0 0-1.275 3.862c-.07.294-.029.604.114.87a1.128 1.128 0 0 0 1.546.406c.257-.146.445-.389.519-.675.141-.913.389-1.806.738-2.661.099-.223.198-.445.31-.662a1.15 1.15 0 0 0-.406-1.545ZM149.552 237.55a7.92 7.92 0 0 0-.792-.672.84.84 0 0 0-.42-.134 1.161 1.161 0 0 0-1.126.539l-.113.27a1.135 1.135 0 0 0 0 .601l.113.27c.099.167.238.306.405.405l-.213-.166c.386.3.733.648 1.032 1.035l-.165-.214c.225.398.674.614 1.126.539a.834.834 0 0 0 .419-.134l.229-.176c.139-.139.239-.31.291-.499l.04-.3a1.116 1.116 0 0 0-.154-.57 8.08 8.08 0 0 0-.672-.794ZM160.705 215.305c-.3-.004-.589.115-.799.331a8.21 8.21 0 0 0-.808 1.183 8.234 8.234 0 0 0-.566 1.321 1.129 1.129 0 0 0 1.659 1.276c.248-.157.432-.396.519-.676.037-.11.08-.217.122-.325.208-.471.471-.917.783-1.327l-.107.138c.199-.217.315-.498.327-.792a1.156 1.156 0 0 0-.331-.799 1.14 1.14 0 0 0-.799-.33ZM166.159 235.229a1.146 1.146 0 0 0-.87.114l-.229.176a1.134 1.134 0 0 0-.266.457l.005-.011a3.386 3.386 0 0 1-1.033 1.341 1.258 1.258 0 0 0-.331.799c.002.299.121.586.331.799.212.211.499.33.799.331l.3-.04c.189-.052.36-.153.499-.291a5.046 5.046 0 0 0 1.585-2.285.874.874 0 0 0 .02-.451.844.844 0 0 0-.134-.419 1.148 1.148 0 0 0-.676-.52ZM139.931 230.003a1.148 1.148 0 0 0-.871.114l-.229.177a1.13 1.13 0 0 0-.266.456l.005-.011a4.044 4.044 0 0 1-.44.748 4.012 4.012 0 0 1-.593.594 1.258 1.258 0 0 0-.331.799c.002.299.121.586.331.799.212.211.499.33.799.33l.3-.04c.189-.052.36-.152.499-.29a5.054 5.054 0 0 0 1.585-2.286.87.87 0 0 0 .02-.45.844.844 0 0 0-.134-.42 1.157 1.157 0 0 0-.675-.52ZM174.402 215.969a1.09 1.09 0 0 0-1.126-.54.85.85 0 0 0-.42.134l-.228.177c-.139.138-.239.31-.291.498l-.04.301c0 .2.053.397.154.57l.318.636a1.09 1.09 0 0 0 1.126.539.83.83 0 0 0 .42-.134l.228-.176c.139-.138.239-.31.291-.499l.04-.3c0-.201-.053-.397-.154-.57l-.318-.636Z"/><path fill="#F0F3FC" d="M157.316 165.399c0 9.571-9.156 17.237-17.703 17.237-8.547 0-13.25-7.666-13.25-17.237 0-9.571 6.93-17.33 15.477-17.33s15.476 7.759 15.476 17.33Z"/><ellipse cx="140.65" cy="161.79" fill="#FF9763" rx="17.359" ry="13.215" transform="rotate(-82.003 140.65 161.79)"/><path fill="#6F4EB9" d="M158.925 189.656c-13.422 1.559 23.082 36.679 6.496 38.332-16.587 1.653-19.3 3.084-19.3 3.084-8.083 4.657 32.118 20.765 32.655 20.997.538.231 10.818-28.956 10.818-28.956l-8.511-21.33"/><path fill="#97CC64" d="M127.841 223.611c-19.012-.768 5.555 21.374-13.56 28.663l-3.735-1.959c20.78-3.302-6.603-30.033 16.598-28.115l.697 1.411Z"/><path fill="#F08059" d="M128.75 219.873c15.732-16.991-5.187-27.005-2.63-1.898l2.63 1.898ZM126.443 221.215c-15.731 16.991 5.187 27.006 2.631 1.898l-2.631-1.898ZM126.765 219.067c-18.35-21.72-23.102.611-1.168 2.68l1.168-2.68ZM128.429 222.021c18.35 21.72 23.101-.611 1.167-2.68l-1.167 2.68Z"/><path fill="#F08059" d="M127.824 219.025c-1.851-27.372-20.003-18.664-2.686.553l2.686-.553ZM127.369 222.063c1.852 27.372 20.004 18.664 2.686-.553l-2.686.553ZM126.193 219.974c-24.1-3.344-12.668 19.528 1.034 3.237l-1.034-3.237ZM129.001 221.114c24.099 3.344 12.667-19.528-1.035-3.237l1.035 3.237Z"/><ellipse cx="127.459" cy="220.471" fill="#F0F3FC" rx="6.328" ry="8.041" transform="rotate(-28.067 127.459 220.471)"/><path fill="#97CC64" d="M116.459 240.706c-11.118.924-11.38-12.078-11.38-12.078s14.188 2.917 11.38 12.078Z"/><path fill="#6F4EB9" d="M111.96 247.169c19.88 19.562 71.526 4.93 66.379-3.341-5.148-8.27 5.879 9.967 5.879 9.967l-9.33 8.695-70.615.848"/></g><path fill="#FF9763" d="M174.808 231.94a47.064 47.064 0 0 0-13.429-1.922s-2.568 1.797.939 3.073c0 0 .309.314-1.382 0-6.616-1.23-11.485-3.863-12.102-3.45-.705.472-.965.997-.704 1.112a1.462 1.462 0 0 0-2.009.319c-1.104 1.267 9.466 6.837 13.186 7.581a43.607 43.607 0 0 0 16.296-.036c6.589-1.275-.795-6.677-.795-6.677Z"/><mask id="p" width="33" height="11" x="146" y="229" maskUnits="userSpaceOnUse" style="mask-type:luminance"><path fill="#fff" fill-rule="evenodd" d="M174.808 231.94a47.064 47.064 0 0 0-13.429-1.922s-2.568 1.797.939 3.073c0 0 .309.314-1.382 0-6.616-1.23-11.485-3.863-12.102-3.45-.705.472-.965.997-.704 1.112a1.462 1.462 0 0 0-2.009.319c-1.104 1.267 9.466 6.837 13.186 7.581a43.607 43.607 0 0 0 16.296-.036c6.589-1.275-.795-6.677-.795-6.677Z" clip-rule="evenodd"/></mask><g mask="url(#p)"><path fill="#E84B23" d="M171.128 231.016c-5.399.445 2.86 5.848-4.395 9.707-7.255 3.859 7.994 3.043 7.994 3.043l2.593-9.447"/></g><path fill="#9A7ED9" d="M170.114 170.096c8.662 4.404 29.132 40.485 29.132 40.485l-18.163 21.34-21.407-43.644"/><mask id="q" width="41" height="62" x="159" y="170" maskUnits="userSpaceOnUse" style="mask-type:luminance"><path fill="#fff" fill-rule="evenodd" d="M170.114 170.096c8.662 4.404 29.132 40.485 29.132 40.485l-18.163 21.34-21.407-43.644" clip-rule="evenodd"/></mask><g fill="#6F4EB9" mask="url(#q)"><path d="M166.072 194.691a1.146 1.146 0 0 0-1.546.405 12.662 12.662 0 0 0-1.275 3.862c-.07.294-.029.604.114.87a1.128 1.128 0 0 0 1.546.406c.257-.146.444-.389.519-.676.141-.912.389-1.805.738-2.66.098-.223.198-.445.309-.662a1.15 1.15 0 0 0-.405-1.545ZM184.04 211.105a1.145 1.145 0 0 0-1.545.405 12.646 12.646 0 0 0-1.276 3.862c-.069.295-.029.604.114.871a1.132 1.132 0 0 0 1.546.405c.257-.146.445-.389.519-.675.141-.913.389-1.806.739-2.661.098-.223.197-.445.309-.662a1.15 1.15 0 0 0-.406-1.545ZM187.423 227.406a1.147 1.147 0 0 0-1.546.406 12.662 12.662 0 0 0-1.275 3.862c-.07.294-.029.604.114.87a1.128 1.128 0 0 0 1.546.405 1.09 1.09 0 0 0 .519-.675c.141-.913.389-1.806.738-2.661.099-.222.198-.444.31-.661a1.151 1.151 0 0 0-.406-1.546ZM180.441 184.66a7.821 7.821 0 0 0-.793-.672.824.824 0 0 0-.419-.134 1.16 1.16 0 0 0-1.126.539l-.114.27a1.131 1.131 0 0 0 0 .6l.114.27c.098.168.238.307.405.405l-.214-.165c.387.3.734.648 1.033 1.034l-.165-.213c.224.398.674.614 1.125.539a.834.834 0 0 0 .42-.134l.229-.177c.138-.138.239-.31.291-.498l.04-.3c0-.201-.053-.398-.154-.571a8.068 8.068 0 0 0-.672-.793ZM197.048 182.339a1.14 1.14 0 0 0-.87.113l-.229.177a1.116 1.116 0 0 0-.266.457l.005-.012a4.1 4.1 0 0 1-.44.748 4.11 4.11 0 0 1-.593.594 1.252 1.252 0 0 0-.331.799c.002.299.12.586.331.799.212.211.499.33.798.331l.301-.041c.188-.052.36-.152.498-.29a5.041 5.041 0 0 0 1.585-2.286.85.85 0 0 0 .02-.45.83.83 0 0 0-.134-.42 1.148 1.148 0 0 0-.675-.519ZM170.819 177.113a1.146 1.146 0 0 0-.87.114l-.229.177a1.119 1.119 0 0 0-.266.456l.005-.011a3.396 3.396 0 0 1-1.033 1.342 1.255 1.255 0 0 0-.331.798 1.133 1.133 0 0 0 1.13 1.13l.3-.04c.189-.052.36-.152.499-.291a5.036 5.036 0 0 0 1.584-2.285.85.85 0 0 0 .02-.45.833.833 0 0 0-.133-.42 1.156 1.156 0 0 0-.676-.52ZM200.555 208.23l-.531-.424a1.162 1.162 0 0 0-1.597 0l-.177.229c-.101.173-.154.37-.154.57l.04.301c.052.188.153.36.291.498l.53.424c.448.424 1.15.424 1.598 0l.176-.229a1.12 1.12 0 0 0 .155-.57l-.041-.3a1.13 1.13 0 0 0-.29-.499ZM193.796 199.366c.319 6.785-3.992 5.669-3.992 5.669l-2.263 17.551-4.772-24.175"/></g><path fill="#9A7ED9" d="M183.071 216.192a130.423 130.423 0 0 0-11.63 13.396c-1.594 4.778 3.418 12.324 3.418 12.324s32.594-19.751 23.828-32.307"/><mask id="r" width="30" height="33" x="171" y="209" maskUnits="userSpaceOnUse" style="mask-type:luminance"><path fill="#fff" fill-rule="evenodd" d="M183.071 216.192a130.423 130.423 0 0 0-11.63 13.396c-1.594 4.778 3.418 12.324 3.418 12.324s32.594-19.751 23.828-32.307" clip-rule="evenodd"/></mask><g mask="url(#r)"><path fill="#9A7ED9" d="M169.295 231.765c9.787 1.626 21.359 2.358 19.095-4.182-2.263-6.541-16.29-5.521-16.29-5.521"/><path fill="#6F4EB9" d="M171.371 205.926a1.148 1.148 0 0 0-.871.114l-.229.177a1.13 1.13 0 0 0-.266.456l.005-.011a4.044 4.044 0 0 1-.44.748 4.012 4.012 0 0 1-.593.594 1.258 1.258 0 0 0-.331.798 1.133 1.133 0 0 0 1.13 1.13l.3-.04c.189-.052.361-.152.499-.291a5.046 5.046 0 0 0 1.585-2.285.86.86 0 0 0 .02-.45.851.851 0 0 0-.134-.421 1.155 1.155 0 0 0-.675-.519ZM174.877 231.818l-.53-.424a1.16 1.16 0 0 0-1.598 0l-.177.229c-.101.173-.154.37-.154.57l.041.3c.052.189.152.361.29.499l.53.424c.448.424 1.15.424 1.598 0l.177-.229c.101-.173.154-.37.154-.57l-.04-.301a1.133 1.133 0 0 0-.291-.498ZM195.234 230.97l-.228-.177a1.121 1.121 0 0 0-.57-.154l-.3.04a1.122 1.122 0 0 0-.499.291l-1.06.848a1.163 1.163 0 0 0 0 1.598l.229.176c.172.101.369.155.57.155l.3-.041a1.14 1.14 0 0 0 .499-.29l1.06-.849a1.162 1.162 0 0 0 0-1.597h-.001ZM192.53 221.709c.219.202.502.319.799.331l.301-.04c.188-.052.36-.152.498-.291l.177-.229c.101-.173.154-.37.154-.57v-.53a1.162 1.162 0 0 0-1.13-1.13l-.3.04c-.189.053-.36.153-.499.291a35.07 35.07 0 0 1-.176.229 1.109 1.109 0 0 0-.154.57v.53c.012.297.129.58.33.799Z"/><path fill="#6F4EB9" d="M166.969 236.168c.32-2.979 19.983-3.607 18.687-4.671-1.296-1.064-12.005-2.443-12.005-2.443"/></g><path fill="#589BF7" d="M162.19 195.31h18.148a1.756 1.756 0 0 0 1.742-1.932 19.82 19.82 0 0 0-1.705-6.35 1.751 1.751 0 0 0-2.47-.792l-15.716 9.074h.001Z"/><path fill="#516DDB" d="m162.19 195.31 15.712-9.072a1.753 1.753 0 0 0 .544-2.542 20.08 20.08 0 0 0-4.643-4.643 1.754 1.754 0 0 0-2.542.544l-9.071 15.713ZM150.576 179.053a20.08 20.08 0 0 0-4.643 4.643 1.755 1.755 0 0 0 .544 2.542l10.059 5.808a1.748 1.748 0 0 0 2.389-2.39l-5.807-10.059a1.754 1.754 0 0 0-2.542-.544Z"/><path fill="#589BF7" d="m162.189 195.31-15.716-9.074a1.754 1.754 0 0 0-2.47.792 19.845 19.845 0 0 0-1.704 6.35 1.754 1.754 0 0 0 1.741 1.932h18.149Z"/><circle cx="162.189" cy="195.31" r="6.351" fill="#589BF7"/><path fill="#FFC562" d="M135.989 198.842h52.401v28.74a4.182 4.182 0 0 1-4.182 4.183h-44.036a4.182 4.182 0 0 1-4.183-4.183v-28.74Z"/><mask id="s" width="54" height="34" x="135" y="198" maskUnits="userSpaceOnUse" style="mask-type:luminance"><path fill="#fff" fill-rule="evenodd" d="M135.989 198.842h52.401v28.74a4.182 4.182 0 0 1-4.182 4.183h-44.036a4.182 4.182 0 0 1-4.183-4.183v-28.74Z" clip-rule="evenodd"/></mask><g fill="#F0F3FC" mask="url(#s)"><path d="m114.262 219 60.134-31.13 2.548 4.92-60.134 31.132zM122.493 226.441l60.134-31.13 2.548 4.92-60.134 31.132zM131.656 232.792l60.134-31.13 2.548 4.92-60.134 31.132zM141.596 237.854l60.134-31.13 2.548 4.92-60.134 31.132zM148.597 244.87l60.134-31.13 2.548 4.92-60.134 31.132z"/></g><rect width="60.124" height="11.308" x="132.127" y="192.103" fill="#D89D35" rx="4.818"/><path fill="#516DDB" d="M155.084 191.9h14.211v39.866h-14.211z"/><path fill="#BB393C" d="M92.844 171.522c.19 1.732-1.547 3.48-4 3.967-.43.086-.869.128-1.308.126a4.675 4.675 0 0 1-6.876 1.366 6.573 6.573 0 0 1-1.258.383c-2.452.487-4.725-.464-5.212-2.138a6.333 6.333 0 0 1-2.262.103l5.819 29.298c.11.552.646.911 1.198.801l21.046-4.18c.552-.109.91-.646.801-1.197l-5.819-29.299a6.337 6.337 0 0 1-1.967.741l-.162.029Z"/><path fill="#72171B" d="m92.982 165.953-21.046 4.179a1.023 1.023 0 0 0-.802 1.199l.794 3.998a6.332 6.332 0 0 0 2.1-.068l.162-.035c.487 1.674 2.76 2.625 5.212 2.138.431-.085.852-.214 1.258-.383a4.675 4.675 0 0 0 6.876-1.366c.44.002.877-.04 1.308-.126 2.453-.487 4.19-2.234 4-3.967l.163-.03a6.309 6.309 0 0 0 1.966-.74l-.793-3.998a1.019 1.019 0 0 0-1.198-.801Z"/><path fill="#BB393C" d="M83.97 174.094c.436 1.688-1.034 3.665-3.392 4.497a6.525 6.525 0 0 1-1.277.312 4.675 4.675 0 0 1-6.611 2.332 6.535 6.535 0 0 1-1.19.558c-2.358.832-4.743.215-5.463-1.373-.052.02-.103.04-.155.058a6.321 6.321 0 0 1-2.07.367l9.937 28.169c.187.531.77.809 1.3.622l20.235-7.138c.53-.187.809-.769.622-1.3l-9.937-28.169a6.336 6.336 0 0 1-1.998 1.065Z"/><mask id="t" width="33" height="37" x="63" y="173" maskUnits="userSpaceOnUse" style="mask-type:luminance"><path fill="#fff" fill-rule="evenodd" d="M83.97 174.094c.436 1.688-1.034 3.665-3.392 4.497a6.525 6.525 0 0 1-1.277.312 4.675 4.675 0 0 1-6.611 2.332 6.535 6.535 0 0 1-1.19.558c-2.358.832-4.743.215-5.463-1.373-.052.02-.103.04-.155.058a6.321 6.321 0 0 1-2.07.367l9.937 28.169c.187.531.77.809 1.3.622l20.235-7.138c.53-.187.809-.769.622-1.3l-9.937-28.169a6.336 6.336 0 0 1-1.998 1.065Z" clip-rule="evenodd"/></mask><g mask="url(#t)"><path fill="#90282A" d="M78.805 184.38c-3.38-1.698-.592 22.94-3.756 25.256-3.165 2.315 7.587-1.382 7.995-1.269.408.114 1.364-9.913 1.364-9.913"/></g><path fill="#872126" d="M83.314 168.562 63.079 175.7a1.021 1.021 0 0 0-.622 1.3l1.356 3.844a6.347 6.347 0 0 0 2.224-.424c.72 1.588 3.106 2.205 5.464 1.373a6.603 6.603 0 0 0 1.19-.558 4.677 4.677 0 0 0 6.61-2.333c.436-.06.864-.165 1.278-.311 2.358-.832 3.828-2.809 3.392-4.497l.157-.052a6.339 6.339 0 0 0 1.842-1.014l-1.356-3.844a1.02 1.02 0 0 0-1.3-.622Z"/><path fill="#BB393C" d="M99.62 177.932c-.15 1.736-2.195 3.112-4.695 3.112-.44 0-.877-.044-1.308-.131a4.674 4.674 0 0 1-7.01 0c-.43.087-.869.131-1.308.131-2.5 0-4.545-1.376-4.696-3.112l-.165.003a6.333 6.333 0 0 1-2.074-.343v29.87c0 .563.457 1.019 1.02 1.019h21.457c.562 0 1.018-.456 1.018-1.019v-29.87a6.33 6.33 0 0 1-2.073.343l-.165-.003Z"/><mask id="u" width="24" height="32" x="78" y="177" maskUnits="userSpaceOnUse" style="mask-type:luminance"><path fill="#fff" fill-rule="evenodd" d="M99.62 177.932c-.15 1.736-2.195 3.112-4.695 3.112-.44 0-.877-.044-1.308-.131a4.674 4.674 0 0 1-7.01 0c-.43.087-.869.131-1.308.131-2.5 0-4.545-1.376-4.696-3.112l-.165.003a6.333 6.333 0 0 1-2.074-.343v29.87c0 .563.457 1.019 1.02 1.019h21.457c.562 0 1.018-.456 1.018-1.019v-29.87a6.33 6.33 0 0 1-2.073.343l-.165-.003Z" clip-rule="evenodd"/></mask><g mask="url(#u)"><path fill="#90282A" d="M86.888 196.999c-2.741-.965-9.842 13.546-12.003 14.703-2.161 1.158 11.17-.818 11.17-.818l1.138-4.816"/></g><path fill="#90282A" d="M100.841 172.497H79.383a1.019 1.019 0 0 0-1.019 1.019v4.076a6.333 6.333 0 0 0 2.074.343c.055 0 .11-.002.165-.004.151 1.737 2.195 3.113 4.696 3.113.44 0 .877-.044 1.308-.131a4.674 4.674 0 0 0 7.01 0c.43.087.869.131 1.308.131 2.5 0 4.545-1.376 4.696-3.113.055.002.11.004.165.004a6.33 6.33 0 0 0 2.073-.343v-4.076a1.018 1.018 0 0 0-1.018-1.019Z"/><path fill="#FF9763" d="M95.134 216.928s.305 5.879-6.337 6.185c0 0-9.163-8.094-9.85-10.308-1.342-4.325 7.254-15.119 7.94-15.806.688-.687 2.215.305 1.375 2.443 0 0 1.756-3.283 2.29-2.977.535.305 2.063.687 1.452 2.596 0 0 3.665-.611 1.527 3.894 0 0 4.81-2.062-.306 9.85l1.91 4.123Z"/><mask id="v" width="18" height="28" x="78" y="196" maskUnits="userSpaceOnUse" style="mask-type:luminance"><path fill="#fff" fill-rule="evenodd" d="M95.134 216.928s.305 5.879-6.337 6.185c0 0-9.163-8.094-9.85-10.308-1.342-4.325 7.254-15.119 7.94-15.806.688-.687 2.215.305 1.375 2.443 0 0 1.756-3.283 2.29-2.977.535.305 2.063.687 1.452 2.596 0 0 3.665-.611 1.527 3.894 0 0 4.81-2.062-.306 9.85l1.91 4.123Z" clip-rule="evenodd"/></mask><g mask="url(#v)"><path fill="#E84B23" d="M83.044 219.421c12.565 4.515 12.09-2.493 12.09-2.493l.475 7.008-11.23.232"/></g><ellipse cx="149.344" cy="142.116" fill="#FF9763" rx="5.554" ry="4.603" transform="rotate(-29.32 149.344 142.116)"/><path fill="#FF9763" d="m130.817 167.359-.311-17.059h18.037l.286 15.633"/><mask id="w" width="19" height="18" x="130" y="150" maskUnits="userSpaceOnUse" style="mask-type:luminance"><path fill="#fff" fill-rule="evenodd" d="m130.817 167.359-.311-17.059h18.037l.286 15.633" clip-rule="evenodd"/></mask><g mask="url(#w)"><path fill="#E84B23" d="M121.239 167.958c22.687-5.998 25.039-14.62 25.039-14.62l-15.355-2-1.937 8.123-6.087 7.373"/></g><path fill="#FF9763" d="M137.251 158.249c-6.965 0-12.611-5.101-12.611-11.393v-11.923c0-6.292 5.646-11.393 12.611-11.393a13.283 13.283 0 0 1 8.918 3.337 10.832 10.832 0 0 1 3.694 8.056v11.923c0 6.292-5.646 11.393-12.612 11.393Z"/><mask id="x" width="26" height="36" x="124" y="123" maskUnits="userSpaceOnUse" style="mask-type:luminance"><path fill="#fff" fill-rule="evenodd" d="M137.251 158.249c-6.965 0-12.611-5.101-12.611-11.393v-11.923c0-6.292 5.646-11.393 12.611-11.393a13.283 13.283 0 0 1 8.918 3.337 10.832 10.832 0 0 1 3.694 8.056v11.923c0 6.292-5.646 11.393-12.612 11.393Z" clip-rule="evenodd"/></mask><g mask="url(#x)"><path fill="#4B4D5C" d="M120.093 136.655c.514-.993 2.776-.909 3.208-1.722 3.05-5.729 5.759-6.153 9.899-3.676 4.907 2.935 10.504-5.332 13.584-.828 3.079 4.504 3.666 22.719-6.746 14.373-10.412-8.346-18.991 10.201-18.991 10.201l11.072 7.087 17.744.398 5.133-24.773-5.133-17.288-19.797-.198-6.6 8.544"/></g><ellipse cx="127.944" cy="143.75" fill="#E84B23" opacity=".27" rx="2.419" ry="3.177" transform="rotate(-89.918 127.944 143.75)"/><ellipse cx="142.948" cy="143.771" fill="#E84B23" opacity=".27" rx="2.419" ry="3.177" transform="rotate(-89.918 142.948 143.771)"/><rect width="2.259" height="4.167" x="130.469" y="136.335" fill="#190000" rx="1.13" transform="rotate(4.196 130.469 136.335)"/><rect width="2.259" height="4.167" x="138.888" y="136.316" fill="#190000" rx="1.13" transform="rotate(4.195 138.888 136.316)"/><path fill="#190000" d="M131.51 133.742c-2.349.502-1.807 1.801-.319 1.583 1.488-.217 1.853-1.911.319-1.583ZM140.147 133.65c2.25.84 1.706 1.962.265 1.53-1.441-.433-1.735-2.078-.265-1.53Z"/><path fill="#E84B23" d="M136.254 140.775c.03.764-.635.487-1.441.519-.806.033-1.448.361-1.478-.402a1.462 1.462 0 0 1 2.919-.117Z"/><path stroke="#993443" stroke-linecap="round" stroke-linejoin="round" stroke-width="2.487" d="M132.998 147.968c2.346.728 4.547-1.416 4.547-1.416"/><path fill="#373947" d="m151.218 141.588.108.317c.054.167.164.31.311.405a.508.508 0 0 0 .252.081.52.52 0 0 0 .271-.012l.161-.069a.685.685 0 0 0 .244-.243l.068-.162a.67.67 0 0 0 0-.361l-.108-.317a.761.761 0 0 0-.311-.405.506.506 0 0 0-.252-.08.51.51 0 0 0-.271.012l-.161.068a.68.68 0 0 0-.244.244l-.068.161a.69.69 0 0 0 0 .361Z"/><path fill="#6F4EB9" d="m118.969 191.646.586 2.257a.677.677 0 1 0 1.307-.361l-.585-2.257a.678.678 0 0 0-1.308.361Z"/><path fill="#90282A" d="m85.274 189.557-1.697 1.697a.677.677 0 1 0 .959.958l1.696-1.696a.678.678 0 0 0-.958-.959Z"/><rect width="18" height="32.565" x="93.96" y="158.007" fill="#2976DF" rx="7.864"/><mask id="y" width="19" height="33" x="93" y="158" maskUnits="userSpaceOnUse" style="mask-type:luminance"><rect width="18" height="32.565" x="93.96" y="158.007" fill="#fff" rx="7.864"/></mask><g mask="url(#y)"><path fill="#1665C4" d="M100.556 178.698c4.79 8.87 3.195 14.827 3.195 14.827h8.36l1.269-15.464H97.373"/></g><rect width="4.844" height="5.975" x="96.276" y="161.293" fill="#589BF7" rx="2.422"/><path stroke="#3A3530" stroke-linecap="round" stroke-linejoin="round" stroke-width="1.752" d="M104.705 178.061s5.836 8.962 1.261 18.934"/><path fill="#589BF7" d="M101.12 199.907h3.585v58.239h-3.585z"/><mask id="z" width="4" height="60" x="101" y="199" maskUnits="userSpaceOnUse" style="mask-type:luminance"><path fill="#fff" d="M101.12 199.907h3.585v58.239h-3.585z"/></mask><g mask="url(#z)"><path fill="#2976DF" d="M100.272 220.716c.892-7.757 5.342-8.176 5.342-8.176l.352-4.383-7.53 1.155"/></g><rect width="6.106" height="6.106" x="99.86" y="206.854" fill="#F0F3FC" rx="2.87"/><path fill="#F0F3FC" fill-rule="evenodd" d="M77.915 163.834a27.057 27.057 0 0 1 24.998-16.703c14.943 0 27.057 12.114 27.057 27.057a27.057 27.057 0 1 1-52.055-10.354Zm5.219 18.547a21.409 21.409 0 0 0 19.779 13.216c11.823 0 21.408-9.585 21.408-21.409a21.409 21.409 0 1 0-41.187 8.193Z" clip-rule="evenodd"/><mask id="A" width="55" height="55" x="75" y="147" maskUnits="userSpaceOnUse" style="mask-type:luminance"><path fill="#fff" fill-rule="evenodd" d="M102.913 147.131a27.057 27.057 0 1 0 27.057 27.057c0-14.943-12.114-27.057-27.057-27.057Zm0 48.466a21.409 21.409 0 1 1 21.408-21.409c0 11.824-9.585 21.409-21.408 21.409Z" clip-rule="evenodd"/></mask><g mask="url(#A)"><path fill="#D6DCF2" d="M120.954 180.974c11.597 3.115 20.488-4.407 20.488-4.407l-11.472 19.679-13.462-8.718"/></g><rect width="20.764" height="6.498" x="92.616" y="173.318" fill="#9A7ED9" rx="1.61"/><circle cx="104.705" cy="176.044" r="4.93" fill="#6F4EB9"/><path fill="#1665C4" d="m106.3 166.681-.963 1.549a.394.394 0 0 0 .14.534.399.399 0 0 0 .534-.14l.963-1.549a.394.394 0 0 0-.14-.534.399.399 0 0 0-.534.14Z"/><path fill="#2976DF" d="m104.055 234.26-.387.386a.402.402 0 0 0 0 .553.394.394 0 0 0 .277.114l.103-.014a.387.387 0 0 0 .173-.1l.386-.387a.4.4 0 0 0 0-.552.395.395 0 0 0-.276-.115l-.104.014a.391.391 0 0 0-.172.101Z"/></svg>