<svg xmlns="http://www.w3.org/2000/svg" width="272" height="340" fill="none"><path fill="#FEC094" d="M0 0h272v340H0z"/><mask id="a" width="235" height="177" x="18" y="69" maskUnits="userSpaceOnUse" style="mask-type:luminance"><path fill="#fff" d="M18 69h235v176.25H18z"/></mask><g mask="url(#a)"><path fill="#97CC64" d="M101.477 95.555c-7.498-7.498-17.78-9.373-22.965-4.188-5.186 5.186-3.31 15.468 4.187 22.966a25.157 25.157 0 0 0 9.932 6.236 20.264 20.264 0 0 1 8.401 5.38c.123.13.249.259.376.386 5.325 5.325 12.345 6.94 15.678 3.607 3.333-3.334 1.719-10.353-3.606-15.678a22.786 22.786 0 0 0-.386-.377 20.247 20.247 0 0 1-5.38-8.401 25.171 25.171 0 0 0-6.237-9.931Z"/><mask id="b" width="44" height="44" x="75" y="88" maskUnits="userSpaceOnUse" style="mask-type:luminance"><path fill="#fff" fill-rule="evenodd" d="M101.477 95.555c-7.498-7.498-17.78-9.373-22.965-4.188-5.186 5.186-3.31 15.468 4.187 22.966a25.158 25.158 0 0 0 9.932 6.236 20.264 20.264 0 0 1 8.401 5.38c.123.13.249.259.376.386 5.325 5.325 12.345 6.94 15.678 3.607 3.333-3.334 1.719-10.353-3.606-15.678a27.257 27.257 0 0 0-.386-.377 20.247 20.247 0 0 1-5.38-8.401 25.171 25.171 0 0 0-6.237-9.931Z" clip-rule="evenodd"/></mask><g mask="url(#b)"><path fill="#75AA3C" d="M83.942 83.372c-12.854 52.31 24.146 21.626 34.879 56.871 10.732 35.245-56.856.415-56.856.415l-2.488-68.832"/></g><path fill="#75AA3C" d="M89.897 98.484a6.789 6.789 0 0 1-.647 4.467c-.176.335.332.634.509.297a7.44 7.44 0 0 0 .706-4.92c-.075-.372-.642-.215-.568.156Z"/><rect width="34.957" height="46.807" x="186.581" y="124.722" fill="#589BF7" rx="8.186"/><mask id="c" width="36" height="48" x="186" y="124" maskUnits="userSpaceOnUse" style="mask-type:luminance"><rect width="34.957" height="46.807" x="186.581" y="124.722" fill="#fff" rx="8.186"/></mask><g mask="url(#c)"><path fill="#2976DF" d="M223.123 163.528c-3.681-8.147.029 10.61-34.229 8.001s16.614 13.973 16.614 13.973l24.319-15.13"/></g><rect width="28.933" height="26.214" x="189.593" y="128.567" fill="#EFF3FC" rx="4.887"/><mask id="d" width="30" height="27" x="189" y="128" maskUnits="userSpaceOnUse" style="mask-type:luminance"><rect width="28.933" height="26.214" x="189.593" y="128.567" fill="#fff" rx="4.887"/></mask><g mask="url(#d)"><path fill="#D6DCF2" d="M177.772 137.503c10.121.92 10.372-8.936 18.331-8.936s-9.522-2.895-9.522-2.895l-1.186 2.366"/></g><rect width="23.816" height="2.658" x="191.733" y="159.465" fill="#2976DF" rx="1.329"/><rect width="17.321" height="2.658" x="191.733" y="163.528" fill="#2976DF" rx="1.329"/><path fill="#97CC64" d="M197.297 136.254a72.161 72.161 0 0 0-1.194 13.924h2.785c.072-2.872.034-5.893.663-8.023l.282.132-.096 2.966 1.845.28v.655l-1.866-.283-.064 2.019a6.703 6.703 0 0 0 4 1.19v-15.006a5.468 5.468 0 0 1-1.675-.165 6.345 6.345 0 0 1 3.714-.2 2.415 2.415 0 0 1-1.318.465v14.908c1.654-.045 3.262-.442 4.095-1.192l-.065-2.017-1.845.281v-.655l1.824-.277-.095-2.969.282-.132c.628 2.13.591 5.151.663 8.023h2.784a72.003 72.003 0 0 0-1.193-13.924 16.06 16.06 0 0 0-4.046-1.598v-1.087a9.955 9.955 0 0 0-5.57 0v1.123a15.98 15.98 0 0 0-3.911 1.562h.001Z"/><mask id="e" width="17" height="18" x="196" y="133" maskUnits="userSpaceOnUse" style="mask-type:luminance"><path fill="#fff" fill-rule="evenodd" d="M197.297 136.254a72.161 72.161 0 0 0-1.194 13.924h2.785c.072-2.872.034-5.893.663-8.023l.282.132-.096 2.966 1.845.28v.655l-1.866-.283-.064 2.019a6.703 6.703 0 0 0 4 1.19v-15.006a5.468 5.468 0 0 1-1.675-.165 6.345 6.345 0 0 1 3.714-.2 2.415 2.415 0 0 1-1.318.465v14.908c1.654-.045 3.262-.442 4.095-1.192l-.065-2.017-1.845.281v-.655l1.824-.277-.095-2.969.282-.132c.628 2.13.591 5.151.663 8.023h2.784a72.003 72.003 0 0 0-1.193-13.924 16.06 16.06 0 0 0-4.046-1.598v-1.087a9.955 9.955 0 0 0-5.57 0v1.123a15.98 15.98 0 0 0-3.911 1.562h.001Z" clip-rule="evenodd"/></mask><g mask="url(#e)"><path fill="#75AA3C" d="M191.733 139.573c5.658 2.859 5.402-3.826 8.661-4.646 3.258-.819-3.496-1.756-3.496-1.756l-.795 1.67"/></g><path fill="#75AA3C" d="m201.327 137.716-.591.394a.21.21 0 1 0 .211.363l.592-.394a.209.209 0 0 0 .022-.348.208.208 0 0 0-.234-.015Z"/><path fill="#2976DF" d="M217.868 163.005c-.443.524-.97.972-1.559 1.323a.21.21 0 0 0 .212.363 6.521 6.521 0 0 0 1.644-1.389.216.216 0 0 0 0-.297.212.212 0 0 0-.297 0Z"/><rect width="34.957" height="46.807" x="44.427" y="124.722" fill="#FFC562" rx="8.186"/><mask id="f" width="36" height="48" x="44" y="124" maskUnits="userSpaceOnUse" style="mask-type:luminance"><rect width="34.957" height="46.807" x="44.427" y="124.722" fill="#fff" rx="8.186"/></mask><g mask="url(#f)"><path fill="#D89D35" d="M81.34 125.715c4.314 51.231-20.344 51.049-37.296 49.168-16.952-1.88 25.544 8.964 25.544 8.964l11.984-1.971 7.241-29.165"/></g><rect width="28.933" height="26.214" x="47.44" y="128.567" fill="#EFF3FC" rx="4.887"/><mask id="g" width="30" height="27" x="47" y="128" maskUnits="userSpaceOnUse" style="mask-type:luminance"><rect width="28.933" height="26.214" x="47.44" y="128.567" fill="#fff" rx="4.887"/></mask><g mask="url(#g)"><path fill="#D6DCF2" d="M41.98 147.169c3.297-22.872 24.172-19.915 24.172-19.915L33.8 126.206"/></g><rect width="23.816" height="2.658" x="49.579" y="159.465" fill="#E84B23" rx="1.329"/><rect width="17.321" height="2.658" x="49.579" y="163.528" fill="#E84B23" rx="1.329"/><path fill="#FFC562" d="M67.88 133.992H65.2a3.398 3.398 0 0 1-6.586 0H55.93v.002l-5.12 2.559 1.708 4.268 3.412-1.708v10.243h11.95v-10.243l3.414 1.708L73 136.553l-5.12-2.561Z"/><mask id="h" width="24" height="17" x="50" y="133" maskUnits="userSpaceOnUse" style="mask-type:luminance"><path fill="#fff" fill-rule="evenodd" d="M67.88 133.992H65.2a3.398 3.398 0 0 1-6.586 0H55.93v.002l-5.12 2.559 1.708 4.268 3.412-1.708v10.243h11.95v-10.243l3.414 1.708L73 136.553l-5.12-2.561Z" clip-rule="evenodd"/></mask><g mask="url(#h)"><path fill="#D89D35" d="M50.01 140.466c.8-3.913 8.215-6.09 11.05-5.324 2.833.766-3.953-4.609-3.953-4.609L43.7 134.391"/></g><path fill="#D89D35" d="m61.504 142.298-.593.59a.21.21 0 0 0 .297.298l.593-.59a.21.21 0 0 0-.093-.354.209.209 0 0 0-.204.056ZM75.657 165.499a2.551 2.551 0 0 1-.055.076c.013-.016.01-.011-.002.002l-.03.037a2.344 2.344 0 0 1-.319.317l-.037.03c.024-.019.003-.002-.01.007a2.39 2.39 0 0 1-.46.27c-.037.016.011-.005-.011.004l-.044.017c-.029.012-.058.022-.088.033a.21.21 0 1 0 .111.405c.53-.182.987-.527 1.308-.985a.212.212 0 0 0-.075-.288.216.216 0 0 0-.288.076v-.001Z"/><rect width="51.26" height="68.636" x="72.611" y="113.807" fill="#FE7578" rx="12.004"/><mask id="i" width="52" height="70" x="72" y="113" maskUnits="userSpaceOnUse" style="mask-type:luminance"><rect width="51.26" height="68.636" x="72.611" y="113.807" fill="#fff" rx="12.004"/></mask><g mask="url(#i)"><path fill="#E55A61" d="M126.307 140.209c-6.852-13.146 19.527 47.996-47.934 42.235-67.462-5.761 53.249 21.24 53.249 21.24l8.546-47.997"/></g><rect width="42.426" height="38.44" x="77.028" y="119.446" fill="#EFF3FC" rx="7.166"/><mask id="j" width="43" height="39" x="77" y="119" maskUnits="userSpaceOnUse" style="mask-type:luminance"><rect width="42.426" height="38.44" x="77.028" y="119.446" fill="#fff" rx="7.166"/></mask><g mask="url(#j)"><path fill="#D6DCF2" d="M72.082 146.435c.71-39.034 46.634-26.989 46.634-26.989l-51.99-3.463-3.064 3.463"/></g><rect width="34.922" height="3.898" x="80.166" y="164.753" fill="#FFC562" rx="1.949"/><rect width="25.399" height="3.898" x="80.166" y="170.712" fill="#FFC562" rx="1.949"/><path fill="#FE7578" d="m109.836 151.416-3.119-22.628a1.017 1.017 0 0 0-1.052-.802H90.817c-.5-.029-.946.312-1.05.802l-3.12 22.627a.973.973 0 0 0 1.051 1.016h8.17c.519.033.976-.334 1.057-.847l1.087-13.708a.256.256 0 0 1 .502.001l1.047 13.705c.079.514.537.882 1.056.85h8.167a.975.975 0 0 0 1.052-1.016Z"/><path fill="#E55A61" d="M90.912 126.469h14.591a.785.785 0 0 0 0-1.57H90.912a.786.786 0 1 0 0 1.57ZM95.706 133.206l-3.18 3.469c-.268.292.166.729.435.436l3.18-3.47c.268-.292-.167-.729-.435-.435ZM118.207 169.779a3.48 3.48 0 0 1-.117.36c-.031.081.015-.031-.005.014l-.027.062a3.07 3.07 0 0 1-.325.545c-.028.04.045-.054-.009.012l-.034.042a2.85 2.85 0 0 1-.464.452c.024-.018.019-.014-.002.001l-.066.048a.309.309 0 0 0 .311.532 3.358 3.358 0 0 0 1.331-1.903.306.306 0 0 0-.374-.38.306.306 0 0 0-.22.216l.001-.001Z"/><rect width="51.26" height="68.636" x="142.094" y="113.807" fill="#9A7ED9" rx="12.004"/><mask id="k" width="52" height="70" x="142" y="113" maskUnits="userSpaceOnUse" style="mask-type:luminance"><rect width="51.26" height="68.636" x="142.094" y="113.807" fill="#fff" rx="12.004"/></mask><g mask="url(#k)"><path fill="#6F4EB9" d="M193.354 151.135c-2.876-7.213 1.96 34.748-29.372 31.308-31.331-3.44 37.483 12.174 37.483 12.174l5.59-25.965"/></g><rect width="42.426" height="38.44" x="146.511" y="119.446" fill="#EFF3FC" rx="7.166"/><mask id="l" width="43" height="39" x="146" y="119" maskUnits="userSpaceOnUse" style="mask-type:luminance"><rect width="42.426" height="38.44" x="146.511" y="119.446" fill="#fff" rx="7.166"/></mask><g mask="url(#l)"><path fill="#D6DCF2" d="M145.18 138.666c-3.086-17.49 9.652-19.343 28.913-19.22 19.261.123-31.999-5.639-31.999-5.639l-6.167 1.972"/></g><rect width="34.922" height="3.898" x="149.649" y="164.753" fill="#6F4EB9" rx="1.949"/><rect width="25.399" height="3.898" x="149.649" y="170.712" fill="#6F4EB9" rx="1.949"/><path fill="#9A7ED9" d="M174.201 132.767v-3.091h-5.734v7.358a.743.743 0 0 1-1.485 0v-7.358h-5.734v3.146a6.277 6.277 0 0 1-3.623 5.689l-1.123.524v11.912a.838.838 0 0 0 .838.839h7.593c.398 0 .741-.28.821-.67l1.56-7.581h.82l1.559 7.581c.08.39.424.67.822.67h7.593a.839.839 0 0 0 .838-.839V138.98l-1.123-.524a6.278 6.278 0 0 1-3.622-5.689Z"/><path fill="#9A7ED9" d="M175.751 129.676v3.091a4.744 4.744 0 0 0 2.728 4.285l.468.218v-7.594h-3.196ZM159.698 132.823v-3.147h-3.197v7.649l.469-.218a4.745 4.745 0 0 0 2.728-4.284Z"/><path fill="#6F4EB9" d="M178.846 126.657c0-.614-.498-1.112-1.112-1.112h-20.019c-.614 0-1.112.498-1.112 1.112v1.888h22.243v-1.888ZM174.502 141.068l-.868 2.024a.318.318 0 0 0 .111.421.31.31 0 0 0 .421-.11l.868-2.024a.318.318 0 0 0-.111-.422.31.31 0 0 0-.421.111ZM180.068 173.708l-1.453 1.147a.309.309 0 0 0 0 .436.317.317 0 0 0 .435 0l1.453-1.148a.308.308 0 0 0 0-.435.317.317 0 0 0-.435 0Z"/><path fill="#3A3530" d="M129.575 122.671c-5.4-1.705-4.438-13.937 6.141-12.498 10.58 1.439 8.719 20.864 25.25 19.745 17.169-1.163 16.019 39.907-6.811 34.292-16.719-4.112-24.58-41.539-24.58-41.539Z"/><mask id="m" width="47" height="55" x="126" y="110" maskUnits="userSpaceOnUse" style="mask-type:luminance"><path fill="#fff" fill-rule="evenodd" d="M129.575 122.671c-5.4-1.705-4.438-13.937 6.141-12.498 10.58 1.439 8.719 20.864 25.25 19.745 17.169-1.163 16.019 39.907-6.811 34.292-16.719-4.112-24.58-41.539-24.58-41.539Z" clip-rule="evenodd"/></mask><g mask="url(#m)"><path fill="#190000" d="M164.743 164.287c1.608-9.903-19.222-13.001-17.673-17.206 1.549-4.205 3.106-8.942-1.512-10.829-4.619-1.886-8.015 8.349-8.015 8.349l-1.653 8.229 2.866 6.322 26.348 6.684"/></g><path fill="#FE7578" d="M127.537 121.124s5.377-3.543 10.005-.772l-.56 2.274-8.008.462-1.437-1.964ZM96.13 212.587c-1.118-4.508-18.583-63.673 39.965-63.493 58.549.181 36.614 68.351 36.614 68.351l-76.578-4.858Z"/><mask id="n" width="85" height="69" x="92" y="149" maskUnits="userSpaceOnUse" style="mask-type:luminance"><path fill="#fff" fill-rule="evenodd" d="M96.13 212.587c-1.118-4.508-18.583-63.673 39.965-63.493 58.549.181 36.614 68.351 36.614 68.351l-76.578-4.858Z" clip-rule="evenodd"/></mask><g mask="url(#n)"><ellipse cx="134.966" cy="149.828" fill="#F0F3FC" rx="15.061" ry="11.021"/><ellipse cx="134.966" cy="149.828" fill="#FF9763" rx="11.229" ry="8.217"/><mask id="o" width="24" height="18" x="123" y="141" maskUnits="userSpaceOnUse" style="mask-type:luminance"><ellipse cx="134.966" cy="149.828" fill="#fff" rx="11.229" ry="8.217"/></mask><g mask="url(#o)"><ellipse cx="128.455" cy="149.332" fill="#E84B23" rx="13.845" ry="6.715"/></g><path fill="#FE7578" d="M164.202 171.85c-.09 3.573-1.768 13.892-1.768 13.892l2.748-7.322-.98-6.57ZM86.778 191.308c9.92 2.119 11.657 3.845 11.657 3.845l-11.657-3.845Z"/><path fill="#BA393C" d="M88.518 193.085a13.007 13.007 0 0 1 10.51 3.904s-8.074-22.879 4.457-23.401c12.53-.522 60.267 1.009 61.697 4.831 1.429 3.823-.961 16.735-.961 16.735s4.296 6.425 12.764 0 2.892 11.674 2.892 11.674l-82.962 8.527"/></g><path fill="#F0F3FC" d="M134.65 157.117c-.296 7.441-13.715 10.09-16.586-6.083 0 0 8.193-4.524 8.328-2.288.432 7.135 8.258 8.371 8.258 8.371Z"/><path fill="#F0F3FC" d="M134.579 157.117c.296 7.442 13.148 9.588 17.221-5.932 0 0-8.828-4.675-8.963-2.439-.432 7.135-8.258 8.371-8.258 8.371ZM162.91 222.858h-60.741l-3.701-40.616c-.335-3.679 1.956-6.716 5.123-6.716h57.897c3.167 0 5.458 3.037 5.123 6.716l-3.701 40.616Z"/><mask id="p" width="69" height="48" x="98" y="175" maskUnits="userSpaceOnUse" style="mask-type:luminance"><path fill="#fff" fill-rule="evenodd" d="M162.91 222.858h-60.741l-3.701-40.616c-.335-3.679 1.956-6.716 5.123-6.716h57.897c3.167 0 5.458 3.037 5.123 6.716l-3.701 40.616Z" clip-rule="evenodd"/></mask><g mask="url(#p)"><path fill="#D6DCF2" d="M91.362 197.966c12.995-6.425 33.853 13.856 44.888 19.374 11.034 5.518 20.316-25.361 35.398-21.055 15.083 4.306-15.449 27.338-15.449 27.338l-39.653 2.26"/></g><path fill="#FF9763" d="M136.909 196.719c-.178 1.762-1.959 3.069-3.99 3.032-2.031-.036-3.761-1.406-3.871-3.173-.119-1.908 1.668-3.534 3.999-3.492 2.332.042 4.054 1.732 3.862 3.633Z"/><path fill="#3A3530" d="m181.051 229.884 4.423-.61s7.842 9.547-12.666 13.641l8.243-13.031Z"/><path fill="#F0F3FC" d="M175.114 228.698a46.745 46.745 0 0 1 8.796-.136c5.735.906.338 12.14-11.102 14.353 0 0 7.591-10.059 2.306-14.217Z"/><path fill="#3A3530" d="M151.963 231.447s13.374-1.99 23.151-2.749c5.285 4.159-2.306 14.217-2.306 14.217-.727.141-1.461.243-2.199.305-12.928 1.082-23.987-.03-25.483-1.193-1.496-1.163 6.837-10.58 6.837-10.58Z"/><path fill="#FF9763" d="M143.266 224.606c6.766 4.322 11.183 7.322 11.183 7.322a6.151 6.151 0 0 1 .146 7.96 5.521 5.521 0 0 1-4.848 2.231c-2.782-.19-5.572-.45-8.355-.778 1.005-4.605 2.306-11.825 1.874-16.735Z"/><path fill="#274B69" d="M74.644 195.38c6.574-8.791 48.25 16.212 68.623 29.226.432 4.909-.87 12.13-1.875 16.735-42.008-4.941-82.318-25.14-66.748-45.961Z"/><mask id="q" width="73" height="49" x="71" y="193" maskUnits="userSpaceOnUse" style="mask-type:luminance"><path fill="#fff" fill-rule="evenodd" d="M74.644 195.38c6.574-8.791 48.25 16.212 68.623 29.226.432 4.909-.87 12.13-1.875 16.735-42.008-4.941-82.318-25.14-66.748-45.961Z" clip-rule="evenodd"/></mask><g mask="url(#q)"><path fill="#11314B" d="M76.68 228.698c10.009-3.367 13.166-5.487 35.105-.291 6.523 1.546 17.874-11.004 23.965-13.51 6.09-2.506 9.975 13.51 9.975 13.51l-19.873 9.231-13.827 1.683-29.249-3.66-6.096-6.963Z"/><circle cx="72.998" cy="197.966" r="9.048" fill="#11314B"/><path stroke="#11314B" stroke-dasharray="2.58" stroke-linecap="round" stroke-linejoin="round" stroke-width="1.288" d="M64.071 196.551c-7.173 8.491 53.577 42.364 70.579 43.863"/></g><ellipse cx="134.65" cy="138.951" fill="#FF9763" rx="11.075" ry="15.508"/><mask id="r" width="23" height="32" x="123" y="123" maskUnits="userSpaceOnUse" style="mask-type:luminance"><ellipse cx="134.65" cy="138.951" fill="#fff" rx="11.075" ry="15.508"/></mask><g mask="url(#r)"><ellipse cx="128.002" cy="147.695" fill="#E84B23" opacity=".27" rx="2.818" ry="2.146" transform="rotate(-2.519 128.002 147.695)"/><ellipse cx="141.297" cy="147.11" fill="#E84B23" opacity=".27" rx="2.818" ry="2.146" transform="rotate(-2.519 141.297 147.11)"/><rect width="2.004" height="3.696" x="129.816" y="140.75" fill="#190000" rx="1.002" transform="rotate(1.593 129.816 140.75)"/><rect width="2.004" height="3.696" x="137.518" y="140.669" fill="#190000" rx="1.002" transform="rotate(1.595 137.518 140.669)"/><path fill="#190000" d="M130.627 138.428c-2.06.539-1.528 1.669-.218 1.416 1.31-.254 1.565-1.769.218-1.416ZM138.526 138.256c2.028.653 1.591 1.67.297 1.344-1.294-.325-1.621-1.771-.297-1.344Z"/><path fill="#E84B23" d="M135.735 145.084c-.006.677-.584.404-1.299.397-.716-.006-1.298.258-1.292-.419a1.297 1.297 0 0 1 2.591.022Z"/><path fill="#C1525F" d="M131.657 148.856c1.222 4.814 5.685 2.483 5.574-.55a.375.375 0 0 0-.264-.337 7.634 7.634 0 0 0-5.079.442.383.383 0 0 0-.231.445Z"/><mask id="s" width="7" height="5" x="131" y="147" maskUnits="userSpaceOnUse" style="mask-type:luminance"><path fill="#fff" fill-rule="evenodd" d="M131.657 148.856c1.222 4.814 5.685 2.483 5.574-.55a.375.375 0 0 0-.264-.337 7.634 7.634 0 0 0-5.079.442.383.383 0 0 0-.231.445Z" clip-rule="evenodd"/></mask><g mask="url(#s)"><ellipse cx="135.315" cy="151.319" fill="#993443" rx="2.49" ry="2.222" transform="rotate(-22.832 135.315 151.319)"/><path fill="#F0F3FC" d="M132.462 148.016c.003.286.067.569.189.828.559.445 3.048.012 3.367-.298a4.81 4.81 0 0 0 .012-1.125l-3.202.387"/></g></g><path fill="#FF9763" d="M124.382 137.187c-6.391-2.98-7.787 1.781-4.849 5.689 2.204 2.931 4.656 2.545 5.745 2.168M143.77 137.187c6.392-2.98 7.788 1.781 4.849 5.689-1.885 2.506-3.951 2.587-5.19 2.322"/><path fill="#3A3530" d="M131.399 129.838c-1.654 12.47-9.037 10.551-9.037 10.551s-4.298-18.438 11.571-18.225c15.869.213 11.792 16.787 11.792 16.787s-12.563.266-14.326-9.113ZM88.672 229.884l-4.423-.61s-7.842 9.547 12.666 13.641l-8.243-13.031Z"/><path fill="#F0F3FC" d="M94.609 228.698a46.744 46.744 0 0 0-8.796-.136c-5.735.906-.338 12.14 11.102 14.353 0 0-7.591-10.059-2.306-14.217Z"/><path fill="#3A3530" d="M117.76 231.447s-13.374-1.99-23.151-2.749c-5.285 4.159 2.306 14.217 2.306 14.217.727.141 1.461.243 2.199.305 12.928 1.082 23.987-.03 25.483-1.193 1.496-1.163-6.837-10.58-6.837-10.58Z"/><path fill="#FF9763" d="M126.457 224.606c-6.766 4.322-11.183 7.322-11.183 7.322a6.15 6.15 0 0 0-.146 7.96 5.52 5.52 0 0 0 4.848 2.231c2.782-.19 5.572-.45 8.355-.778-1.005-4.605-2.306-11.825-1.874-16.735Z"/><mask id="t" width="16" height="19" x="113" y="224" maskUnits="userSpaceOnUse" style="mask-type:luminance"><path fill="#fff" fill-rule="evenodd" d="M126.457 224.606c-6.766 4.322-11.183 7.322-11.183 7.322a6.15 6.15 0 0 0-.146 7.96 5.52 5.52 0 0 0 4.848 2.231c2.782-.19 5.572-.45 8.355-.778-1.005-4.605-2.306-11.825-1.874-16.735Z" clip-rule="evenodd"/></mask><g mask="url(#t)"><path fill="#E84B23" d="M116.113 230.064c-.601 6.131 4.688 12.743 9.497 10.579 4.809-2.164-2.274-15.123.847-16.037 3.121-.915 5.165 19.054 5.165 19.054s-1.323.59-2.525 1.071c-1.202.48-12.383.48-12.383.48l-6.131-9.117 1.202-7.687 5.975 3.04"/></g><path fill="#274B69" d="M195.079 195.38c-6.574-8.791-48.25 16.212-68.622 29.226-.432 4.909.869 12.13 1.874 16.735 42.008-4.941 82.318-25.14 66.748-45.961Z"/><mask id="u" width="73" height="49" x="126" y="193" maskUnits="userSpaceOnUse" style="mask-type:luminance"><path fill="#fff" fill-rule="evenodd" d="M195.079 195.38c-6.574-8.791-48.25 16.212-68.622 29.226-.432 4.909.869 12.13 1.874 16.735 42.008-4.941 82.318-25.14 66.748-45.961Z" clip-rule="evenodd"/></mask><g mask="url(#u)"><path fill="#11314B" d="M160.966 201.571c8.285.962 26.504-9.53 31.907-6.631 5.403 2.899 11.239 7.18 8.354 17.759-2.886 10.58 1.206 4.746 1.206 4.746l1.683-23.897-20.993-12.242-22.157 20.265Z"/><ellipse cx="200.183" cy="197.966" fill="#11314B" rx="10.094" ry="11.008"/><path stroke="#11314B" stroke-dasharray="2.58" stroke-linecap="round" stroke-linejoin="round" stroke-width="1.288" d="M129.891 237.237s63.149-9.959 68.605-38.045"/><path fill="#589BF7" d="M131.344 219.215c-1.585 7.522 3.443 24.445 3.443 24.445l-10.01.944-3.024-23.32"/></g><circle cx="134.45" cy="164.146" r=".974" fill="#190000"/><circle cx="134.45" cy="169.788" r=".974" fill="#190000"/><path fill="#190000" d="M136.825 125.916a4.771 4.771 0 0 0 .663 2.666.463.463 0 0 0 .801-.468 4.454 4.454 0 0 1-.252-.49c.019.046.018.044-.002-.006a4.7 4.7 0 0 1-.242-.855c-.003-.018-.028-.193-.015-.086l-.014-.127a4.33 4.33 0 0 1-.011-.634.466.466 0 0 0-.464-.464.474.474 0 0 0-.464.464ZM158.893 139.13c.179.166.349.342.507.528l.12.145a5.914 5.914 0 0 1 .281.4 6.135 6.135 0 0 1 .438.809c.004.008.038.087.019.04a7.896 7.896 0 0 1 .154.415.463.463 0 1 0 .895-.246 6.584 6.584 0 0 0-1.758-2.748.466.466 0 0 0-.45-.124.463.463 0 0 0-.206.78v.001Z"/><path fill="#D6DCF2" d="M111.026 191.637a22.48 22.48 0 0 0 5.286 3.918c.527.281.996-.52.468-.802a21.641 21.641 0 0 1-5.098-3.772.464.464 0 0 0-.656.656Z"/><path fill="#11314B" d="m159.928 217.533-3.963 1.815a.468.468 0 0 0-.167.635c.133.216.413.29.635.167l3.963-1.816a.468.468 0 0 0 .167-.635.475.475 0 0 0-.635-.166Z"/><path fill="#D6DCF2" d="M154.992 180.665a4.34 4.34 0 0 1 .267.186c.064.047-.082-.067.026.019a5.543 5.543 0 0 1 .615.578c.049.054.096.108.142.163l.069.084c.052.065-.01-.013.02.027a5.382 5.382 0 0 1 .546.907l.036.079c.003.005.056.134.022.048.053.135.102.271.146.408a.464.464 0 0 0 .895-.247 5.708 5.708 0 0 0-2.315-3.053.468.468 0 0 0-.635.166.475.475 0 0 0 .167.635h-.001Z"/><path fill="#11314B" d="M94.806 205.458a4.804 4.804 0 0 0-1.077 2.878.468.468 0 0 0 .464.464.473.473 0 0 0 .464-.464 4.328 4.328 0 0 1 .034-.427l.03-.168a4.258 4.258 0 0 1 .234-.773c-.036.09.032-.069.04-.084a4.293 4.293 0 0 1 .41-.695l.05-.068c-.028.038-.026.036.007-.006a.476.476 0 0 0 0-.656.468.468 0 0 0-.656 0v-.001Z"/><path fill="#BA393C" d="M160.322 161.419a5.748 5.748 0 0 1 2.658 3.632c.136.581 1.031.335.895-.247a6.674 6.674 0 0 0-3.085-4.186.463.463 0 0 0-.468.801ZM105.382 168.18l-.233.464a.35.35 0 0 0-.055.172.478.478 0 0 0 .222.463l.111.046c.08.022.166.022.246 0l.111-.046a.477.477 0 0 0 .167-.167l.232-.464a.33.33 0 0 0 .055-.172.476.476 0 0 0-.221-.462l-.111-.047a.467.467 0 0 0-.246 0l-.111.047a.466.466 0 0 0-.167.166Z"/><path fill="#FF999A" d="m209.314 83.955-3.745-.106-.335-.01a38.713 38.713 0 0 1-16.758-4.332l-.046-.024-3.593-1.86a87.158 87.158 0 0 1 1.497-3.92l.111-.27a4.658 4.658 0 0 1 5.456-2.694l6.028 1.558 8.542 2.209a4.654 4.654 0 0 1 3.465 5.002c-.027.26-.062.517-.093.776a82.319 82.319 0 0 1-.529 3.671Z"/><path fill="#FE7578" d="M202.214 105.134a4.652 4.652 0 0 1-3.844.697l-2.298-.594-5.712-1.477-5.066-1.31-1.462-.378a4.658 4.658 0 0 1-3.465-5.014c.045-.41.102-.82.154-1.23a86.943 86.943 0 0 1 4.316-18.206l2.672 1.384.967.5a38.636 38.636 0 0 0 16.843 4.336l3.996.113a87.516 87.516 0 0 1-2.084 9.369 86.686 86.686 0 0 1-3.11 9.088c-.097.239-.191.479-.291.716a4.645 4.645 0 0 1-1.616 2.006Z"/><mask id="v" width="30" height="29" x="180" y="77" maskUnits="userSpaceOnUse" style="mask-type:luminance"><path fill="#fff" fill-rule="evenodd" d="M202.214 105.134a4.652 4.652 0 0 1-3.844.697l-2.298-.594-5.712-1.477-5.066-1.31-1.462-.378a4.658 4.658 0 0 1-3.465-5.014c.045-.41.102-.82.154-1.23a86.943 86.943 0 0 1 4.316-18.206l2.672 1.384.967.5a38.636 38.636 0 0 0 16.843 4.336l3.996.113a87.516 87.516 0 0 1-2.084 9.369 86.686 86.686 0 0 1-3.11 9.088c-.097.239-.191.479-.291.716a4.645 4.645 0 0 1-1.616 2.006Z" clip-rule="evenodd"/></mask><g fill="#E55A61" mask="url(#v)"><path d="M179.595 99.863c24.806 5.529 24.767-.473 27.328-5.292 2.562-4.818 2.233 10.708 2.233 10.708s-6.251 4.955-6.716 5.087c-.466.133-22.066-5.068-22.066-5.068l-1.876-.573M200.033 87.969a5.673 5.673 0 0 1-4.604.52 5.686 5.686 0 1 1 6.957-7.634 5.683 5.683 0 0 1-2.353 7.114Z"/></g><path fill="#FFC562" d="M199.682 86.792a5.668 5.668 0 1 1-5.743-9.773 5.668 5.668 0 0 1 5.743 9.773Z"/><path fill="#FF9763" d="M198.837 85.358a4.018 4.018 0 1 1-3.104-7.339 4.024 4.024 0 0 1 5.054 4.379 4.016 4.016 0 0 1-1.95 2.96Z"/><path fill="#FE7578" d="M203.14 77.153c.125.028.243.08.349.152.05.032.097.069.14.11.05.046.097.096.141.15.021.025-.005-.009.016.02l.026.037a1.284 1.284 0 0 1 .103.177 1.05 1.05 0 0 1 .106.445.173.173 0 1 0 .348 0 1.533 1.533 0 0 0-1.137-1.426.174.174 0 1 0-.093.335h.001Z"/><path fill="#E55A61" d="M187.142 95.892a3.785 3.785 0 0 0 2.695 1.877.18.18 0 0 0 .214-.122.175.175 0 0 0-.122-.214 3.456 3.456 0 0 1-2.486-1.716c-.11-.196-.41-.02-.301.175Z"/><ellipse cx="67.436" cy="194.717" fill="#FFC562" rx="10.863" ry="5.716" transform="rotate(-41.61 67.436 194.717)"/><mask id="w" width="19" height="18" x="58" y="186" maskUnits="userSpaceOnUse" style="mask-type:luminance"><ellipse cx="67.436" cy="194.717" fill="#fff" rx="10.863" ry="5.716" transform="rotate(-41.61 67.436 194.717)"/></mask><g mask="url(#w)"><path fill="#D89D35" d="M66.965 185.872c11.495.379 9.714 7.023 8.55 9.836-1.165 2.812 3.567-4.896 3.567-4.896l-1.614-7.476-2.495-.49"/></g><path fill="#E84B23" d="M73.193 188.56c2.413 1.052 1.952 4.711-1.029 8.173-2.982 3.464-7.355 5.419-9.767 4.367-2.413-1.052-1.954-4.712 1.028-8.175 2.982-3.464 7.355-5.417 9.768-4.365Z"/><mask id="x" width="15" height="14" x="60" y="188" maskUnits="userSpaceOnUse" style="mask-type:luminance"><path fill="#fff" fill-rule="evenodd" d="M73.193 188.56c2.413 1.052 1.952 4.711-1.029 8.173-2.982 3.464-7.355 5.419-9.767 4.367-2.413-1.052-1.954-4.712 1.028-8.175 2.982-3.464 7.355-5.417 9.768-4.365Z" clip-rule="evenodd"/></mask><g mask="url(#x)"><path fill="#FF9763" d="M71.617 188.387c2.413 1.052 1.952 4.712-1.029 8.174-2.982 3.464-7.355 5.418-9.767 4.367-2.413-1.052-1.954-4.712 1.028-8.176 2.981-3.462 7.354-5.416 9.768-4.365Z"/></g><path fill="#FF9763" d="m56.034 197.826.035.107c.016.043.033.084.05.125.014.034.026.068.041.101.019.042.04.082.06.123.015.031.03.063.046.093.022.042.047.083.072.124.016.027.031.055.048.082.029.045.06.088.091.131.015.021.029.043.045.063.047.063.097.125.15.184l2.637 2.97a3.262 3.262 0 0 1-.15-.184c-.016-.021-.03-.043-.044-.064-.031-.043-.063-.086-.091-.131l-.049-.082c-.024-.041-.049-.081-.072-.123l-.045-.093c-.02-.041-.041-.081-.06-.123-.015-.033-.027-.067-.04-.101-.017-.041-.035-.083-.05-.125-.013-.035-.024-.072-.035-.107-.014-.043-.029-.085-.041-.129l-.029-.113c-.011-.044-.023-.087-.032-.132l-.023-.118c-.008-.045-.017-.09-.024-.136-.006-.04-.01-.081-.015-.122l-.017-.14-.008-.127c-.004-.047-.007-.095-.009-.143l-.002-.131v-.147l.005-.135.007-.151.012-.138.015-.154.018-.141.022-.157a5.71 5.71 0 0 1 .055-.305l.032-.148.035-.15c.022-.09.046-.182.072-.274a9.875 9.875 0 0 1 .142-.467l.03-.083c.034-.099.07-.199.107-.299l.05-.129c.036-.088.072-.177.11-.266l.06-.138a10.935 10.935 0 0 1 .164-.357l.106-.215c.024-.048.048-.097.074-.146l.123-.231.072-.132c.054-.096.11-.193.167-.289.015-.026.028-.051.044-.076.073-.123.15-.247.228-.371l.067-.102c.058-.089.116-.179.177-.269.031-.047.065-.093.097-.14a8.979 8.979 0 0 1 .274-.385l.164-.222.106-.137c.08-.103.16-.206.244-.309l.102-.126a18.627 18.627 0 0 1 .761-.874l.133-.141c.095-.101.19-.2.287-.299.041-.043.084-.085.126-.127.192-.192.386-.38.583-.563l.036-.032c.192-.177.387-.349.584-.516l.102-.087c.198-.167.4-.329.602-.487l.121-.093c.207-.158.415-.313.624-.461l.056-.038c.201-.141.404-.277.607-.408l.101-.065a16.486 16.486 0 0 1 .754-.454c.212-.121.423-.237.635-.346l.07-.035c.202-.103.404-.201.606-.293l.102-.047c.16-.072.32-.141.478-.205l.03-.012a14.7 14.7 0 0 1 .445-.171l.152-.053c.108-.037.215-.074.321-.108l.17-.053a13.028 13.028 0 0 1 .665-.179l.212-.049a6.19 6.19 0 0 1 .183-.036c.07-.014.138-.027.207-.038.06-.011.12-.02.18-.029l.203-.028c.06-.007.118-.014.177-.019a7.2 7.2 0 0 1 .204-.018l.156-.011c.069-.003.137-.006.205-.007l.151-.003c.068 0 .135.002.202.004l.144.005c.07.004.137.01.205.016.043.004.087.007.13.012.065.008.128.018.191.028.047.007.095.013.141.021.066.012.129.027.193.042.042.009.085.017.127.028.07.018.137.039.204.06l.102.031c.1.034.198.071.293.112.076.033.146.07.218.107.045.023.093.045.136.07.062.035.12.075.179.113.039.025.079.048.116.075.062.045.12.094.177.142.029.024.06.046.088.071.083.075.161.154.235.237l-2.637-2.97a2.946 2.946 0 0 0-.236-.236c-.027-.025-.058-.047-.087-.071-.058-.048-.115-.097-.178-.142-.037-.027-.077-.05-.116-.076-.058-.038-.116-.077-.179-.112-.043-.025-.09-.047-.136-.07-.051-.027-.1-.055-.154-.079a3.959 3.959 0 0 0-.357-.141c-.033-.011-.068-.02-.102-.03-.068-.021-.135-.043-.205-.06-.041-.011-.084-.019-.127-.029-.063-.014-.127-.029-.192-.041l-.14-.022c-.054-.008-.107-.018-.162-.025l-.03-.002c-.043-.005-.087-.008-.13-.012-.068-.006-.136-.013-.205-.016-.048-.003-.096-.004-.144-.005-.067-.002-.134-.004-.202-.004l-.152.002c-.067.002-.135.004-.204.008l-.157.01-.102.007-.101.011-.177.02c-.067.008-.135.018-.203.028l-.18.028-.208.038-.182.037-.212.048-.185.045-.07.017-.103.03a12.34 12.34 0 0 0-.307.088l-.17.053c-.106.034-.213.07-.32.108l-.153.053c-.147.053-.294.11-.442.169l-.033.014c-.16.064-.319.133-.479.205l-.037.016-.064.031c-.201.092-.403.19-.606.293l-.07.035c-.212.109-.423.225-.635.346l-.127.073c-.21.122-.419.249-.627.381l-.1.065c-.204.131-.407.268-.61.409l-.053.037c-.21.148-.418.302-.625.461l-.121.093c-.203.158-.403.32-.602.487l-.102.087c-.197.168-.391.34-.584.516l-.036.033c-.197.182-.391.371-.583.563-.02.021-.043.041-.064.062l-.062.065c-.096.098-.192.197-.286.298l-.134.141a19.715 19.715 0 0 0-.761.874l-.102.127c-.083.103-.164.206-.244.308-.02.026-.042.052-.061.078l-.045.06c-.055.074-.11.147-.163.221l-.112.153c-.056.077-.109.154-.162.232l-.098.141c-.06.088-.118.177-.175.266l-.069.105c-.078.124-.154.247-.227.37l-.004.006-.044.076-.163.282-.073.135c-.041.076-.083.153-.122.229-.026.049-.05.098-.075.148l-.105.212-.072.153-.093.205-.027.06-.032.078a14.25 14.25 0 0 0-.16.395 9.708 9.708 0 0 0-.109.301c-.009.027-.02.054-.028.081-.042.125-.081.25-.117.373l-.026.094a9.67 9.67 0 0 0-.071.275l-.014.053-.021.097-.032.148a8.078 8.078 0 0 0-.077.461l-.019.142a5.726 5.726 0 0 0-.026.293l-.007.15-.005.135v.146l.003.132.008.143c.003.042.005.085.01.127.003.047.01.093.015.139l.016.123c.007.046.016.091.025.136l.022.118.032.132c.01.038.018.076.029.113.01.042.025.085.038.127Z"/><mask id="y" width="21" height="19" x="55" y="183" maskUnits="userSpaceOnUse" style="mask-type:luminance"><path fill="#fff" fill-rule="evenodd" d="m56.034 197.826.035.107c.016.043.033.084.05.125.014.034.026.068.041.101.019.042.04.082.06.123.015.031.03.063.046.093.022.042.047.083.072.124.016.027.031.055.048.082.029.045.06.088.091.131.015.021.029.043.045.063.047.063.097.125.15.184l2.637 2.97a3.262 3.262 0 0 1-.15-.184c-.016-.021-.03-.043-.044-.064-.031-.043-.063-.086-.091-.131l-.049-.082c-.024-.041-.049-.081-.072-.123l-.045-.093c-.02-.041-.041-.081-.06-.123-.015-.033-.027-.067-.04-.101-.017-.041-.035-.083-.05-.125-.013-.035-.024-.072-.035-.107-.014-.043-.029-.085-.041-.129l-.029-.113c-.011-.044-.023-.087-.032-.132l-.023-.118c-.008-.045-.017-.09-.024-.136-.006-.04-.01-.081-.015-.122l-.017-.14-.008-.127c-.004-.047-.007-.095-.009-.143l-.002-.131v-.147l.005-.135.007-.151.012-.138.015-.154.018-.141.022-.157a5.71 5.71 0 0 1 .055-.305l.032-.148.035-.15c.022-.09.046-.182.072-.274a9.875 9.875 0 0 1 .142-.467l.03-.083c.034-.099.07-.199.107-.299l.05-.129c.036-.088.072-.177.11-.266l.06-.138a10.935 10.935 0 0 1 .164-.357l.106-.215c.024-.048.048-.097.074-.146l.123-.231.072-.132c.054-.096.11-.193.167-.289.015-.026.028-.051.044-.076.073-.123.15-.247.228-.371l.067-.102c.058-.089.116-.179.177-.269.031-.047.065-.093.097-.14a8.979 8.979 0 0 1 .274-.385l.164-.222.106-.137c.08-.103.16-.206.244-.309l.102-.126a18.627 18.627 0 0 1 .761-.874l.133-.141c.095-.101.19-.2.287-.299.041-.043.084-.085.126-.127.192-.192.386-.38.583-.563l.036-.032c.192-.177.387-.349.584-.516l.102-.087c.198-.167.4-.329.602-.487l.121-.093c.207-.158.415-.313.624-.461l.056-.038c.201-.141.404-.277.607-.408l.101-.065a16.486 16.486 0 0 1 .754-.454c.212-.121.423-.237.635-.346l.07-.035c.202-.103.404-.201.606-.293l.102-.047c.16-.072.32-.141.478-.205l.03-.012a14.7 14.7 0 0 1 .445-.171l.152-.053c.108-.037.215-.074.321-.108l.17-.053a13.028 13.028 0 0 1 .665-.179l.212-.049a6.19 6.19 0 0 1 .183-.036c.07-.014.138-.027.207-.038.06-.011.12-.02.18-.029l.203-.028c.06-.007.118-.014.177-.019a7.2 7.2 0 0 1 .204-.018l.156-.011c.069-.003.137-.006.205-.007l.151-.003c.068 0 .135.002.202.004l.144.005c.07.004.137.01.205.016.043.004.087.007.13.012.065.008.128.018.191.028.047.007.095.013.141.021.066.012.129.027.193.042.042.009.085.017.127.028.07.018.137.039.204.06l.102.031c.1.034.198.071.293.112.076.033.146.07.218.107.045.023.093.045.136.07.062.035.12.075.179.113.039.025.079.048.116.075.062.045.12.094.177.142.029.024.06.046.088.071.083.075.161.154.235.237l-2.637-2.97a2.946 2.946 0 0 0-.236-.236c-.027-.025-.058-.047-.087-.071-.058-.048-.115-.097-.178-.142-.037-.027-.077-.05-.116-.076-.058-.038-.116-.077-.179-.112-.043-.025-.09-.047-.136-.07-.051-.027-.1-.055-.154-.079a3.959 3.959 0 0 0-.357-.141c-.033-.011-.068-.02-.102-.03-.068-.021-.135-.043-.205-.06-.041-.011-.084-.019-.127-.029-.063-.014-.127-.029-.192-.041l-.14-.022c-.054-.008-.107-.018-.162-.025l-.03-.002c-.043-.005-.087-.008-.13-.012-.068-.006-.136-.013-.205-.016-.048-.003-.096-.004-.144-.005-.067-.002-.134-.004-.202-.004l-.152.002c-.067.002-.135.004-.204.008l-.157.01-.102.007-.101.011-.177.02c-.067.008-.135.018-.203.028l-.18.028-.208.038-.182.037-.212.048-.185.045-.07.017-.103.03a12.34 12.34 0 0 0-.307.088l-.17.053c-.106.034-.213.07-.32.108l-.153.053c-.147.053-.294.11-.442.169l-.033.014c-.16.064-.319.133-.479.205l-.037.016-.064.031c-.201.092-.403.19-.606.293l-.07.035c-.212.109-.423.225-.635.346l-.127.073c-.21.122-.419.249-.627.381l-.1.065c-.204.131-.407.268-.61.409l-.053.037c-.21.148-.418.302-.625.461l-.121.093c-.203.158-.403.32-.602.487l-.102.087c-.197.168-.391.34-.584.516l-.036.033c-.197.182-.391.371-.583.563-.02.021-.043.041-.064.062l-.062.065c-.096.098-.192.197-.286.298l-.134.141a19.715 19.715 0 0 0-.761.874l-.102.127c-.083.103-.164.206-.244.308-.02.026-.042.052-.061.078l-.045.06c-.055.074-.11.147-.163.221l-.112.153c-.056.077-.109.154-.162.232l-.098.141c-.06.088-.118.177-.175.266l-.069.105c-.078.124-.154.247-.227.37l-.004.006-.044.076-.163.282-.073.135c-.041.076-.083.153-.122.229-.026.049-.05.098-.075.148l-.105.212-.072.153-.093.205-.027.06-.032.078a14.25 14.25 0 0 0-.16.395 9.708 9.708 0 0 0-.109.301c-.009.027-.02.054-.028.081-.042.125-.081.25-.117.373l-.026.094a9.67 9.67 0 0 0-.071.275l-.014.053-.021.097-.032.148a8.078 8.078 0 0 0-.077.461l-.019.142a5.726 5.726 0 0 0-.026.293l-.007.15-.005.135v.146l.003.132.008.143c.003.042.005.085.01.127.003.047.01.093.015.139l.016.123c.007.046.016.091.025.136l.022.118.032.132c.01.038.018.076.029.113.01.042.025.085.038.127Z" clip-rule="evenodd"/></mask><g mask="url(#y)"><path fill="#E84B23" d="M67.131 183.831c-15.638 5.68-7.65 20.814-7.65 20.814l-5.47-4.368.184-12.417 8.162-3.054"/></g><path fill="#E84B23" d="m72.247 191.551.978.497-4.291 2.499.938.478-1.014 1.015-1.297-.658-.584.584 1.304.662-1.015 1.015-1.304-.662-1.408 1.41-.895-.457 1.408-1.409-1.304-.663 1.015-1.015 1.303.663.585-.585-1.304-.663 1.014-1.014.94.477 1.918-3.707 1.008.513-1.904 3.429 3.909-2.409ZM66.258 192.369a1.477 1.477 0 0 0-1.066.892.148.148 0 0 0 .104.182.153.153 0 0 0 .182-.103l.007-.016.015-.032.037-.069c.026-.044.054-.087.085-.129-.016.023.01-.013.011-.014l.023-.027.052-.057a1.4 1.4 0 0 1 .151-.133l.07-.047c.044-.028.09-.053.136-.075l.032-.015.01-.004.073-.026c.051-.017.104-.03.157-.04a.15.15 0 0 0 .103-.183.152.152 0 0 0-.182-.103v-.001ZM64.726 186.59l-.272.058a.149.149 0 0 0-.035.271.162.162 0 0 0 .114.015l.272-.058a.149.149 0 0 0 .035-.271.162.162 0 0 0-.114-.015Z"/><ellipse cx="211.226" cy="183.542" fill="#FFC562" rx="9.25" ry="17.58" transform="rotate(-54.986 211.226 183.542)"/><mask id="z" width="32" height="27" x="195" y="170" maskUnits="userSpaceOnUse" style="mask-type:luminance"><ellipse cx="211.226" cy="183.542" fill="#fff" rx="9.25" ry="17.58" transform="rotate(-54.986 211.226 183.542)"/></mask><g mask="url(#z)"><path fill="#D89D35" d="M197.292 186.107c-4.88-15.24 7.72-15.744 16.729-13.458 9.009 2.286-13.839-7.337-13.839-7.337l-9.555 5.028"/></g><path fill="#FF9763" d="M199.378 176.784c.753-4.193 6.687-4.837 13.254-1.441 6.569 3.399 11.283 9.552 10.531 13.744-.753 4.194-6.687 4.839-13.256 1.44-6.567-3.396-11.281-9.55-10.529-13.743Z"/><path fill="#FF9763" d="M220.391 200.329c.051-.032.104-.062.155-.095.061-.041.119-.084.178-.126.048-.034.097-.066.144-.102.059-.045.114-.092.17-.139.044-.036.088-.071.13-.108.058-.051.113-.106.168-.159.037-.036.075-.07.111-.107.06-.062.116-.128.172-.193.028-.031.057-.061.084-.093.081-.099.159-.2.232-.305l3.688-5.265a4.637 4.637 0 0 1-.232.306c-.027.032-.057.062-.084.094-.057.064-.113.13-.172.192-.036.037-.075.071-.112.107-.055.053-.109.108-.167.159-.041.037-.086.071-.129.107-.056.047-.113.095-.171.14-.047.035-.095.068-.143.102-.059.042-.118.085-.179.125-.051.033-.104.064-.155.096-.063.037-.124.076-.188.112-.054.03-.111.059-.166.087-.065.034-.129.069-.196.101a7.327 7.327 0 0 1-.178.079c-.068.03-.135.061-.205.089l-.186.07c-.071.026-.142.053-.215.078-.064.022-.13.041-.196.061a6.504 6.504 0 0 1-.223.067c-.067.019-.137.036-.205.053-.077.019-.153.038-.231.055-.07.016-.142.03-.214.044-.08.015-.159.031-.24.044-.073.013-.147.023-.221.034-.083.012-.165.024-.249.034a8.042 8.042 0 0 1-.229.024c-.085.009-.17.017-.256.024-.079.006-.158.01-.238.015a11.22 11.22 0 0 1-.262.012c-.081.003-.163.004-.246.006l-.248.001a14.305 14.305 0 0 1-.459-.01l-.159-.005c-.207-.01-.417-.025-.63-.044l-.142-.015a16.032 16.032 0 0 1-1.192-.162l-.24-.042c-.119-.022-.238-.046-.358-.07a25.114 25.114 0 0 1-.266-.055c-.125-.027-.251-.057-.377-.087l-.258-.061c-.135-.034-.272-.071-.409-.108-.079-.022-.157-.041-.236-.064-.171-.048-.344-.101-.517-.154l-.136-.04c-.222-.07-.444-.143-.669-.221-.061-.021-.124-.045-.185-.067-.163-.058-.326-.116-.491-.178-.085-.032-.17-.066-.255-.1a25.39 25.39 0 0 1-1.12-.462l-.256-.115a27 27 0 0 1-.578-.269 29.77 29.77 0 0 1-1.898-.985c-.091-.051-.181-.104-.271-.156a33.68 33.68 0 0 1-.579-.34l-.247-.151c-.373-.23-.743-.465-1.104-.707l-.065-.045c-.35-.236-.694-.478-1.031-.726-.058-.043-.118-.085-.175-.128a30.587 30.587 0 0 1-1.184-.922 33.24 33.24 0 0 1-1.04-.883 30.46 30.46 0 0 1-.869-.803l-.141-.134a27.6 27.6 0 0 1-.997-1.018 28.445 28.445 0 0 1-.783-.87l-.081-.097c-.238-.28-.467-.561-.687-.844l-.113-.142a23.136 23.136 0 0 1-.502-.677l-.031-.044c-.15-.212-.294-.423-.434-.635l-.141-.22c-.099-.155-.196-.31-.29-.465l-.147-.248c-.087-.15-.172-.3-.253-.45a22.009 22.009 0 0 1-.139-.255c-.048-.092-.093-.183-.139-.275a13.215 13.215 0 0 1-.419-.902 15.747 15.747 0 0 1-.232-.582c-.034-.091-.066-.181-.098-.271a23.022 23.022 0 0 1-.105-.313l-.074-.243a10.201 10.201 0 0 1-.089-.319c-.021-.08-.042-.159-.061-.238a9.136 9.136 0 0 1-.069-.32c-.016-.076-.033-.153-.046-.228-.02-.111-.036-.22-.052-.329l-.03-.21c-.012-.105-.019-.207-.028-.311-.006-.076-.015-.154-.019-.23-.005-.107-.005-.212-.006-.318-.001-.07-.005-.141-.003-.211.002-.116.01-.23.018-.345.004-.057.004-.114.01-.171.016-.17.037-.338.066-.503.023-.132.057-.257.088-.384.019-.08.036-.163.059-.241.032-.111.072-.217.111-.323.025-.071.047-.143.075-.211.047-.115.102-.224.157-.333.027-.054.05-.111.079-.164.086-.158.181-.312.284-.46l-3.688 5.264a4.944 4.944 0 0 0-.284.46c-.029.053-.052.109-.079.163-.055.11-.11.219-.157.334-.028.068-.05.14-.075.211-.039.106-.079.212-.111.323-.023.078-.04.161-.059.241-.022.091-.049.179-.067.272l-.021.112a6.338 6.338 0 0 0-.066.503c-.006.056-.006.115-.01.172-.008.114-.016.228-.018.344-.001.07.002.141.003.211.001.106.001.211.007.318.004.076.012.153.018.23.007.087.012.175.022.263.001.017.005.033.006.048.008.069.021.14.03.21.017.109.032.219.052.329.013.076.03.152.045.228.022.106.045.213.07.32.019.079.04.159.061.238a9.414 9.414 0 0 0 .163.562c.017.053.031.105.049.158.017.052.038.103.056.155a9.778 9.778 0 0 0 .217.581 12.052 12.052 0 0 0 .249.585c.042.091.083.182.127.274a15.263 15.263 0 0 0 .295.589l.052.103c.027.051.058.102.086.153a20.442 20.442 0 0 0 .69 1.162c.048.074.093.148.142.221.139.211.282.421.431.632l.033.047c.162.226.33.452.503.677l.039.053.072.088c.221.283.45.565.688.845l.082.097c.251.293.513.582.783.871l.162.173c.27.284.548.565.834.844l.141.134c.283.271.573.54.871.805l.079.072a33.518 33.518 0 0 0 2.143 1.732l.175.127c.338.247.681.489 1.031.726l.065.045c.362.243.731.477 1.104.707.042.025.081.053.123.078l.125.074c.191.115.383.227.577.338.091.053.181.106.273.158a32.592 32.592 0 0 0 1.66.872l.238.113c.193.092.385.182.577.268l.146.068.11.047c.137.06.273.118.409.175.094.04.189.081.283.119.142.058.284.113.426.168.086.034.172.069.258.101.162.061.324.119.485.176l.191.069c.224.077.446.151.667.22l.011.004.137.041c.169.052.338.103.506.15.08.023.159.043.239.065.135.037.271.073.406.107.087.022.174.042.26.062.126.03.251.059.375.086.089.02.178.037.267.055.12.025.239.049.357.07l.106.021.134.021a20.717 20.717 0 0 0 .682.104c.173.022.344.042.514.058l.138.015c.213.019.424.034.631.044l.158.005c.155.006.308.01.46.01l.089.002c.054 0 .106-.003.16-.003.082-.002.164-.003.245-.006.088-.003.175-.007.262-.012.08-.005.16-.009.239-.015l.254-.023.231-.025c.083-.01.165-.022.246-.034.075-.011.15-.021.224-.034l.238-.044c.072-.015.144-.028.215-.044.078-.017.154-.036.231-.055.069-.018.138-.034.206-.053.075-.021.148-.044.221-.066l.198-.062a7.72 7.72 0 0 0 .213-.078l.188-.07a9.62 9.62 0 0 0 .204-.089c.06-.026.12-.052.177-.079.067-.033.132-.067.197-.101.056-.029.112-.057.166-.087.064-.037.126-.075.188-.113Z"/><mask id="A" width="34" height="29" x="192" y="173" maskUnits="userSpaceOnUse" style="mask-type:luminance"><path fill="#fff" fill-rule="evenodd" d="M220.391 200.329c.051-.032.104-.062.155-.095.061-.041.119-.084.178-.126.048-.034.097-.066.144-.102.059-.045.114-.092.17-.139.044-.036.088-.071.13-.108.058-.051.113-.106.168-.159.037-.036.075-.07.111-.107.06-.062.116-.128.172-.193.028-.031.057-.061.084-.093.081-.099.159-.2.232-.305l3.688-5.265a4.637 4.637 0 0 1-.232.306c-.027.032-.057.062-.084.094-.057.064-.113.13-.172.192-.036.037-.075.071-.112.107-.055.053-.109.108-.167.159-.041.037-.086.071-.129.107-.056.047-.113.095-.171.14-.047.035-.095.068-.143.102-.059.042-.118.085-.179.125-.051.033-.104.064-.155.096-.063.037-.124.076-.188.112-.054.03-.111.059-.166.087-.065.034-.129.069-.196.101a7.327 7.327 0 0 1-.178.079c-.068.03-.135.061-.205.089l-.186.07c-.071.026-.142.053-.215.078-.064.022-.13.041-.196.061a6.504 6.504 0 0 1-.223.067c-.067.019-.137.036-.205.053-.077.019-.153.038-.231.055-.07.016-.142.03-.214.044-.08.015-.159.031-.24.044-.073.013-.147.023-.221.034-.083.012-.165.024-.249.034a8.042 8.042 0 0 1-.229.024c-.085.009-.17.017-.256.024-.079.006-.158.01-.238.015a11.22 11.22 0 0 1-.262.012c-.081.003-.163.004-.246.006l-.248.001a14.305 14.305 0 0 1-.459-.01l-.159-.005c-.207-.01-.417-.025-.63-.044l-.142-.015a16.032 16.032 0 0 1-1.192-.162l-.24-.042c-.119-.022-.238-.046-.358-.07a25.114 25.114 0 0 1-.266-.055c-.125-.027-.251-.057-.377-.087l-.258-.061c-.135-.034-.272-.071-.409-.108-.079-.022-.157-.041-.236-.064-.171-.048-.344-.101-.517-.154l-.136-.04c-.222-.07-.444-.143-.669-.221-.061-.021-.124-.045-.185-.067-.163-.058-.326-.116-.491-.178-.085-.032-.17-.066-.255-.1a25.39 25.39 0 0 1-1.12-.462l-.256-.115a27 27 0 0 1-.578-.269 29.77 29.77 0 0 1-1.898-.985c-.091-.051-.181-.104-.271-.156a33.68 33.68 0 0 1-.579-.34l-.247-.151c-.373-.23-.743-.465-1.104-.707l-.065-.045c-.35-.236-.694-.478-1.031-.726-.058-.043-.118-.085-.175-.128a30.587 30.587 0 0 1-1.184-.922 33.24 33.24 0 0 1-1.04-.883 30.46 30.46 0 0 1-.869-.803l-.141-.134a27.6 27.6 0 0 1-.997-1.018 28.445 28.445 0 0 1-.783-.87l-.081-.097c-.238-.28-.467-.561-.687-.844l-.113-.142a23.136 23.136 0 0 1-.502-.677l-.031-.044c-.15-.212-.294-.423-.434-.635l-.141-.22c-.099-.155-.196-.31-.29-.465l-.147-.248c-.087-.15-.172-.3-.253-.45a22.009 22.009 0 0 1-.139-.255c-.048-.092-.093-.183-.139-.275a13.215 13.215 0 0 1-.419-.902 15.747 15.747 0 0 1-.232-.582c-.034-.091-.066-.181-.098-.271a23.022 23.022 0 0 1-.105-.313l-.074-.243a10.201 10.201 0 0 1-.089-.319c-.021-.08-.042-.159-.061-.238a9.136 9.136 0 0 1-.069-.32c-.016-.076-.033-.153-.046-.228-.02-.111-.036-.22-.052-.329l-.03-.21c-.012-.105-.019-.207-.028-.311-.006-.076-.015-.154-.019-.23-.005-.107-.005-.212-.006-.318-.001-.07-.005-.141-.003-.211.002-.116.01-.23.018-.345.004-.057.004-.114.01-.171.016-.17.037-.338.066-.503.023-.132.057-.257.088-.384.019-.08.036-.163.059-.241.032-.111.072-.217.111-.323.025-.071.047-.143.075-.211.047-.115.102-.224.157-.333.027-.054.05-.111.079-.164.086-.158.181-.312.284-.46l-3.688 5.264a4.944 4.944 0 0 0-.284.46c-.029.053-.052.109-.079.163-.055.11-.11.219-.157.334-.028.068-.05.14-.075.211-.039.106-.079.212-.111.323-.023.078-.04.161-.059.241-.022.091-.049.179-.067.272l-.021.112a6.338 6.338 0 0 0-.066.503c-.006.056-.006.115-.01.172-.008.114-.016.228-.018.344-.001.07.002.141.003.211.001.106.001.211.007.318.004.076.012.153.018.23.007.087.012.175.022.263.001.017.005.033.006.048.008.069.021.14.03.21.017.109.032.219.052.329.013.076.03.152.045.228.022.106.045.213.07.32.019.079.04.159.061.238a9.414 9.414 0 0 0 .163.562c.017.053.031.105.049.158.017.052.038.103.056.155a9.778 9.778 0 0 0 .217.581 12.052 12.052 0 0 0 .249.585c.042.091.083.182.127.274a15.263 15.263 0 0 0 .295.589l.052.103c.027.051.058.102.086.153a20.442 20.442 0 0 0 .69 1.162c.048.074.093.148.142.221.139.211.282.421.431.632l.033.047c.162.226.33.452.503.677l.039.053.072.088c.221.283.45.565.688.845l.082.097c.251.293.513.582.783.871l.162.173c.27.284.548.565.834.844l.141.134c.283.271.573.54.871.805l.079.072a33.518 33.518 0 0 0 2.143 1.732l.175.127c.338.247.681.489 1.031.726l.065.045c.362.243.731.477 1.104.707.042.025.081.053.123.078l.125.074c.191.115.383.227.577.338.091.053.181.106.273.158a32.592 32.592 0 0 0 1.66.872l.238.113c.193.092.385.182.577.268l.146.068.11.047c.137.06.273.118.409.175.094.04.189.081.283.119.142.058.284.113.426.168.086.034.172.069.258.101.162.061.324.119.485.176l.191.069c.224.077.446.151.667.22l.011.004.137.041c.169.052.338.103.506.15.08.023.159.043.239.065.135.037.271.073.406.107.087.022.174.042.26.062.126.03.251.059.375.086.089.02.178.037.267.055.12.025.239.049.357.07l.106.021.134.021a20.717 20.717 0 0 0 .682.104c.173.022.344.042.514.058l.138.015c.213.019.424.034.631.044l.158.005c.155.006.308.01.46.01l.089.002c.054 0 .106-.003.16-.003.082-.002.164-.003.245-.006.088-.003.175-.007.262-.012.08-.005.16-.009.239-.015l.254-.023.231-.025c.083-.01.165-.022.246-.034.075-.011.15-.021.224-.034l.238-.044c.072-.015.144-.028.215-.044.078-.017.154-.036.231-.055.069-.018.138-.034.206-.053.075-.021.148-.044.221-.066l.198-.062a7.72 7.72 0 0 0 .213-.078l.188-.07a9.62 9.62 0 0 0 .204-.089c.06-.026.12-.052.177-.079.067-.033.132-.067.197-.101.056-.029.112-.057.166-.087.064-.037.126-.075.188-.113Z" clip-rule="evenodd"/></mask><g mask="url(#A)"><path fill="#E84B23" d="M227.391 195.213c-8.264 7.637-24.624 1.538-24.624 1.538l2.912 9.719s12.46 1.821 16.801-1.969l4.341-3.791"/></g><path fill="#E84B23" d="M213.719 179.874a18.94 18.94 0 0 1 1.63 4.043.294.294 0 0 0 .36.196.294.294 0 0 0 .208-.353 19.608 19.608 0 0 0-1.689-4.184c-.182-.333-.691-.036-.509.298ZM201.426 193.925l1.973.882c.141.076.318.03.403-.106a.296.296 0 0 0-.106-.403l-1.972-.882a.303.303 0 0 0-.403.106.297.297 0 0 0 .105.403Z"/></g></svg>